<?xml version="1.0" encoding="UTF-8"?>
<svg id="Layer_1" xmlns="http://www.w3.org/2000/svg" version="1.1" viewBox="0 0 2000 3000">
  <!-- Generator: Adobe Illustrator 30.0.0, SVG Export Plug-In . SVG Version: 2.1.1 Build 123)  -->
  <defs>
    <style>
      .st0 {
        fill: #fff;
      }
    </style>
  </defs>
  <path class="st0" d="M536.35,1489.3l-3.82-50.24c-7.79,6.35-14.38,11.25-24,14.66l4.04,51.28c8.73-4.03,17.5-8.08,23.78-15.71Z"/>
  <path class="st0" d="M523.54,1315.18c-.96-1.17-10.68,7.41-12.27,8.2-1.84.93-12.55,3.58-12.77,4.39l8.06,104.29c10.23-1.66,17.54-7.78,24.81-14.57l-7.83-102.32Z"/>
  <path class="st0" d="M555.52,1747.79c-7.85,3.57-13.43,9.38-22.98,7.99l3,40.96c8.87-.33,15.28-2.86,22.81-7.15l-2.84-41.8Z"/>
  <path class="st0" d="M542.38,1571.28l-3.84-61.28c-.83-.97-11.24,7.56-13.08,8.39-2.39,1.08-11.33,2.41-11.78,4.16l5.55,53.42c8.37.36,16.54,1.17,23.16-4.7Z"/>
  <path class="st0" d="M1589.63,1489.53c12.52-11,22.08-25.29,35.43-35.5l3.51-71.91c-22.78,16.7-42.31,37.64-66.72,52.15l-2.2,77.73c.69.79,4.95-2.89,5.89-3.59,7.65-5.7,17.03-12.65,24.1-18.87Z"/>
  <path class="st0" d="M1586.15,1659.89c12.09-11.6,19.62-26.76,31.24-38.69l4.2-92.21c-.65-.75-9.26,6.12-10.44,7.03-19.34,14.85-38.47,31.05-54.29,49.62l-2.19,48.25,12.48-8.99c.96,12.96-12.26,19.78-13.48,32.48-.83,8.74.9,17.76-1.01,26.45l33.49-23.95Z"/>
  <path class="st0" d="M564,1859.7l-3.49-42.97c-7.1,3.43-13.91,6.02-21.98,4.99-.93.93,1.08,24.43,2.03,26.2.61,1.13,2.2,1.3,2.85,2.36,2.33,3.76.86,15.63,2.31,20.71.81,2.8,8.73,5.04,11.31,7.68,8.44,8.61,10.35,10.31,21.17,16.8,9.03,5.42,18.59,10.03,27.77,15.19,1.42-5.63-.63-12.86.53-18.3.11-.5,6.36-6.01,4.94-8.64l-47.43-24.01Z"/>
  <path class="st0" d="M1473.75,1911.17c-16.27,19.17-28.94,41.56-45.64,60.31-27.22,30.56-64.64,56.22-95.29,83.52-6.3,5.61-14.23,16.44-21.64,20.33-12.21,6.42-28.91,7.45-42.29,5.17l-2.05-.58-.66,57.31,1.72.23c16.53,1.33,30.3,4.61,45.26-5.2,23.82-18.74,48.96-36.21,72.11-55.78,13.47-11.39,24.6-25.9,37.48-36.46,13.95-11.44,35.24-16.14,51.65-23.29,15.9-6.93,30.45-16.88,46.6-23.34,17.38-6.96,35.62-10.28,51.12-21.82,7.04-5.24,12-12.58,18.49-18.48,3.1-2.82,6.8-5.2,10.23-7.73l4.29-86.39c-.25-.31-.57-.44-1-.26-19.68,10.58-35.5,25.14-50.99,40.94-18.98,19.36-36.37,40.24-54.92,59.97-4.88,5.19-11.64,13.91-19.48,11.49,8.25-26.83,31.06-45.17,47.36-66.54,11.24-14.74,20.87-31.84,32.14-46.79,13.09-17.36,28.43-36.63,48.37-46.04.63.72-.96,4.41.62,5.03l2.02-40.62c-.05-.13-.08-.25-.13-.37-15.75,8.78-31.58,19.65-48.11,26.83-9.61,4.17-19.42,5.68-27.81,12.15-2.79,2.15-20.42,20.2-23.5,16.96-.12-7.69,4.07-15.01,8.18-21.29,12.01-18.35,27.64-24.94,44.66-37.27,12.49-9.05,22.82-18.8,34.61-28.34,2.66-2.16,12.47-7.94,13.54-9.44,3.37-4.78,1.82-27.69,2.63-38.25l1.29-22.03v-3.73s-1.98-.48-1.98-.48c.04.77-.13,1.45-.75,1.96-14.35,11.98-25.7,26.68-40.92,37.8-3.57,2.61-16.66,9.73-18.29,11.69-6.42,7.73,4.55,33.14-10.67,43.28l-147.17,67.64-9.01.98c-10.89,10.38-21.87,20.9-33.51,30.43-21.69,17.76-33.08,26.96-62.04,30.88-7.33.99-14.13.32-21.36-.88l-.99,125.89c1.68.45.45-1.93,1.59-2.08,3.44-.46,12.78,2.73,16.9,3.07,10.8.9,14.85.41,23.78-5.18,10.9-6.83,14.08-14.18,22.16-22.8,25.75-27.51,46.81-56.43,80.77-75.09,10.9-5.99,22.69-9.45,33.66-15.29,25.21-13.41,41.67-31.42,62.91-48.99,5.77-4.77,24.49-17.58,15.8-.19-9,18.01-37.63,40.57-51.73,57.17Z"/>
  <path class="st0" d="M1599.62,1954.61c.34,4.39-.32,8.86-.36,13.24-.01,1.05-.56,1.82.34,2.37l.73-14.77c-.21-.3-.44-.58-.72-.84Z"/>
  <path class="st0" d="M1310.21,1832.56c3.45-1.96,9.44-7.45,12.66-10.32,22.31-19.86,42.76-44.58,59.91-68.97l2.02-69.41c-.85-.84-5.21,2.45-6.31,3.17-15.23,10.08-31.86,24.16-45.66,36.27-11.41,10.02-26.86,29.09-41.71,33.22-3.22.9-20.32,2.18-21.08,3.4l-1.01,72.66c13.18,2.94,28.74,7.05,41.18-.02Z"/>
  <path class="st0" d="M1467.72,1451.06c-9.43,3.06-20.09,5.63-29.22,9.25-1.06.42-2.98.29-2.74,1.73,9.68-2.1,20.52-5.03,29.77-8.73,1.51-.61,2.7.58,2.19-2.25Z"/>
  <path class="st0" d="M539.81,1711.61c.69-.14,11.23-4.86,11.72-5.27.67-.56,1.01-1.13,1.03-2.01l-7.04-88.42c-8.43,2.35-14.67,6.63-23.96,5.01l7.01,87.39c.29,4.03,8.44,3.87,11.24,3.31Z"/>
  <path class="st0" d="M1153.02,1274.73c12.64-5.04,36.52-8.27,50.75-11.2,51.14-10.52,105.16-16.27,155.05-30.79,18.55-5.4,36.53-15.48,55.95-14.48,1.54,1.35-4.52,4.72-5.31,5.17-49.54,27.32-115.13,36-169.74,51.06-6.59,1.82-29.05,7.25-32.78,11.18-7.32,7.73-5.29,23.74-3.97,33.49-.4.21-12.14-2.16-8,1l77.89,13.04-.94,75.88c7.83-1.73,15.74-3.21,23.59-4.87,11.8-2.49,19.84-5.73,31.14-8.83,33.58-9.21,69.32-8.16,103.35-14.55,6.27-1.18,15.75-6.27,21.33-3.78,3.79,1.69,4.53,5.24,2.9,9.04-.43,1.01-12.21,15.1-13.95,17.01-26.3,28.87-54.44,26.15-84.74,44.14-22.04,13.08-41.68,37.91-64.37,48.53-1.57.74-17.59,5.91-18.24,5.23l-.99-6.99-2,242.26s1.65-.62,1.46-.53c6.09-2.9,12.78-4.15,18.87-7.08,20.39-9.79,38.88-38.62,54.08-55.82,13.06-14.79,27.21-28.82,40.96-42.97l2.53-76.4c-.74-1.48-1.76-.22-2.55.49-20.65,18.49-41.15,44.76-57.8,67.05-8.91,11.93-20.31,34.48-33.78,40.16-4.22,1.78-16.76,5.12-21.29,5.7-3.05.39-.51-1.14-.49-1.5.37-8.79-.27-17.68,0-26.48,15.54-3.1,28.46-11.95,38.98-23.47,1.17-1.28,1.33-3.07,2.29-4.21,25.91-30.66,47.59-65.68,74.11-96.23,2.61-10.41-1.04-25.31,4.67-34.29,6.23-9.78,23.42-9.37,33.08-14.68,2.07-1.14,15.22-18.03,18.68-21.5,30.05-30.13,64.79-45.95,100.25-67.59,31.93-19.49,58.7-45.54,88.4-67.95l1.22-35.76-21.98,4c-1.63-1.62,4.54-37.68-1.3-45.67-4.5-6.17-29.97-6.2-37.67-8.3,2.11-3.11,7.4-2.62,10.81-3.71,1.68-.54,2.63.44,2.17-2.26-10.74.69-23.24-3.87-33.57-3.9-22.45-.07-63.13,8.81-86.33,13.37-9.74,1.92-18.36,6.3-28.96,4.5l50.13-14.29c10.38-2.33,20.75-4.14,31.28-5.7,1.74-.26,1.68.53,1.51-1.97l-78.55-9.91-5.39.9-.48-2-1.14,3.05c-49.94,13.34-101.82,15.88-152.25,26.42-10.43,2.18-20.08,6.82-30.96,4.5,3.46-3.45,10.23-5.9,14.98-7.49,24.38-8.17,56.26-13.87,81.92-19.99,14.43-3.44,29.02-6.19,43.48-9.49,1.56-.36,1.73.66,1.5-1.98l-94.43-11.98c-52.98,6.39-106.79,8.68-159.54,17.29-12.56,2.05-24.91,6.45-37.78,5.67l14.97-4.5c45-9,90.3-16.86,135.89-22.47.18-2.5.24-1.71-1.5-1.97-13.6-2.02-27.42-2.56-40.96-5.1-95.02,12.81-187.28,33.66-282.76,44.04-27.8,3.02-60.76,3.13-87.66,8.25-2.79.53-7.74,2.22-9.2,4.78-1.01,1.77-5.63,21.16-5.57,23.43l61.98,11.5c1.07-9.11,1.16-24.71,11.59-27.88,15.15-4.6,45.92-6.34,62.85-8.08,37.21-3.83,74.66-5.45,111.89-9.01,40.17-3.84,80.13-10.15,120.39-12.97l-25.64,4.82-222.13,31.65c-10.08,3.87-9.77,16.87-12.46,25.51-.59,1.9-2.83,2.77-2.54,4.94l58.94,10.99-2.07-2.6c3.25-12.73-2.7-25.19,12.85-30.09,23.49-7.4,59.79-12.26,84.81-16.1,51.66-7.94,103.99-11.06,155.4-20.44,12.03-2.2,23.16-7.27,35.76-5.69-1.68,2.51-6.34,3.36-9.23,4.25-28.31,8.79-67.77,15.87-97.49,21.4-47.73,8.88-98.44,11.07-145.28,20.57-2.2.45-4.52.97-6.53,1.97-4.71,8.5-7.07,18.05-8.27,27.68-1.72,1.64-8.97-3.17-7.95,1.03l60.54,10.95c3.25-.24,6.85-13.16,8.52-16.31,2.96-5.56,7.45-11.54,13.81-13.17,39.29-4.22,78.48-10.35,117.95-12.42-.54,1.48-4.44,2.05-6,2.48-24.15,6.68-53.11,6.29-77.79,13.13-12.52,3.47-11.9,21.87-14.13,31.66-.26,1.13-2.92-.03-1.99,2.67l39.96,6c.48-11.58-2.07-29.24,11.01-34.45ZM1339.89,1333.7c-.16,3.58-1.72,6.64-.34,10-.17,1.07-1.33,1.18-2.13,1.52-5.17,2.24-20.63,5.63-26.56,6.4-8.24,1.06-16.76.55-24.98-.48v-34.47l-25.92-5.55c-.81-4.83,2.68-18.15,6.56-20.8,2.64-1.8,25.98-7.08,29.84-7.19,5.33-.15,29.51,3.75,34.48,5.55,5.11,1.86,7.92,5.96,8.74,11.24,1.3,8.38.69,24.83.29,33.78Z"/>
  <path class="st0" d="M1058.67,2115.39c-6.94,8.57-7.85,17.3-6.09,28.06,3.29,2.32,28.15,15.97,29.48,14.97.21-.79-.95-1.14-1-1.49-.72-5.28,0-13.31,0-18.98,0-.96,8.31-6.66,6.99-8.48l-29.38-14.08Z"/>
  <path class="st0" d="M1271.9,1425.08v48.96h2v-44.46c0-.74-1.62-2.93-1.01-4.49h-.99Z"/>
  <path class="st0" d="M1118.3,2160.19c-.72,1.55-4.59,15.36-4.17,16.08l53.56,27.93,2.3.18-.05-20.26c3.99-1.36,8.59-5.16,12.72-3.98,8.84,2.53,19.75,11.91,29.3,14.24l-80.93-42.55c-3.23-.86-11.52,5.77-12.72,8.35Z"/>
  <path class="st0" d="M964.14,2097.9l50.5,27.46,6.66-17.7c3.66-.13,7.2-3.85,10.4-4.17,3.34-.34,4.52,1.73,7.4,1.98l-63.47-32.94c-9.13,5.41-9.01,16.01-11.48,25.38Z"/>
  <path class="st0" d="M1594.14,2000.59c-12.72,11.65-32.61,32.15-47.44,39.48-7.72,3.81-17.94,5.68-26.28,8.69-6.46,2.33-11.75,6.02-18.94,8.04-19.68,5.53-24.9,3.91-43.66,15.29-38.07,23.08-70.94,53.99-107.1,79.74-19.97,14.22-40.29,28.36-66.21,25.26-2.57-.31-16.61-5.74-17.61-4.67v48.96l-26.27-11.86-10.96,9.09-2.63,16.08c.2.84.92,1.11,1.52,1.56,1.35,1.03,20.09,10.48,21.33,10.71,4.01.73,3.16-2.76,2.49-5.58-.28-1.16-1.11-1.43,1.05-1.04,3.3.6,21.55,12.08,22.47,11,.43-9.28,2.33-18.81.01-27.97,19.05,13.26,33.22-6.09,49.94-12.98.64,11.38-2.49,24.21-1,35.48.18,1.39-.55,1.73,1.48,1.47,10.35-7.41,21.44-13.64,32.43-20l14.48-9.12c1.81-1.44,3.58-2.81,5.7-3.59l10.34-6.51-.49-.73c.5.09.94.15,1.34.19l3.74-2.36c.09-.33.24-.65.54-.92,1.58-1.44,20.95-13.27,29.34-17.89l18.24-11.48c.94-.8,2.19-1.62,3.5-2.2l58.16-36.62h0c21.03-13.49,47.36-25.15,65.32-39.81,9.8-8,3.89-27.2,7.16-38.8,3.58-3.98,17.72-9.13,19.8-13.25l2.4-48.42c-1.41.57-2.8,3.48-4.19,4.75Z"/>
  <path class="st0" d="M834.79,1999.56c-1.06.84,1.27,1.63,1.28,3.29.01,1.77-1.65,4.7-1.78,7.22-.31,6.31.26,12.69-.09,19l.72,1.56,36.32,18.89v-21.48c0-.47,5.31-5.94,3.93-8.41l-40.39-20.07Z"/>
  <path class="st0" d="M715.38,1938.02c-10.86,2.69-5.19,16.13-7.92,24.16l1.39,2.44,64.01,33.92c2.08.58,1.51-1.13,1.5-2.5-.03-4.71-2.27-13.63-1.63-18.01.33-2.25,6.83-4.77,5.59-8.43l-62.94-31.59Z"/>
  <path class="st0" d="M647.83,1902.74c-2.5-.55-5.57,9.87-5.94,11.92-.39,2.15-.8,13.97-.27,14.81l43.32,23.12c2.15.31,1.22-.23,1.46-1.51.88-4.74.15-13.21,1.22-16.76.66-2.2,7.45-6.66,5.8-8.68l-45.58-22.91Z"/>
  <path class="st0" d="M894.87,2030.7c-1.25,1.71-7.06,5.49-7.6,6.63-2.05,4.35-1.26,14.94-2.97,20.1l24.91,12.08,2.23-19.26c.39-2.54,9.44-5.41,7.77-7.7l-24.33-11.84Z"/>
  <path class="st0" d="M1158.5,1167.31c2.93-.27,6.19.35,9,0,1.39-.18,2.88-.52,1.48-1.99-14.55-1.13-30.99-5.69-45.45-5-14.84.71-31.81,4.5-46.98,5.97-111.43,10.83-223.38,19.76-333.47,40.2-9.1,5.87-7.78,17.25-7.72,26.75-1.44,1.41-8.06-3.23-6.99.99l77.93,13.99-2.96-2.02c1.62-6.57,2.64-24.17,9.7-26.71,77.24-9.55,152.63-29.48,229.7-40.06,37.97-5.21,77.53-8.6,115.77-12.12Z"/>
  <path class="st0" d="M676.52,1223.16c-.4-5.4-.31-20.8,3.92-24.37,2.21-1.86,38.49-6.64,44.57-7.39,44.26-5.46,91.48-11.27,135.76-15.11,58.5-5.06,117.32-6.62,175.83-12,21.12-1.94,42.24-5.45,63.44-6,.91-2.69-4.87-2.58-6.63-2.85-32.28-5.09-65.13,1.99-97.78,3.85-33.6,1.92-67.32,3.17-100.91,5-10.76.59-21.7.15-32.46,1l25.48-3.97c39.79-.82,78.83-8.11,118.01-13.87,2.51-.37,8.21,1.26,7.37-2.12l-73.47-8.53c-42.62,5.89-86.72,3.78-129.72,8.65-12.87,1.46-25.61,5.08-38.59,4.86-.02-1.54,3.52-1.4,4.82-1.65,38.15-7.4,88.6-12.45,127.57-14.31,4.52-.22,9.13-.31,13.47.99.87-2.53-3.02-2.69-4.59-2.88-14.87-1.77-30.02-2.52-44.84-5.13l.5,2.01c-25.63-.39-50.47,6.96-75.94,7.99l64.94-9.99c3.22-2.62-6.58-1.9-7.49-2-3.21-.36-7.6-.81-10.5-1.99h-18.98l-15.6,2.89c-7.25-1.02-14.49-2.37-21.86-1.88l-247.63,34.13-2.28,3.89c-14.2,1.43-32.13-.16-28.37,19.91l-12.98-2c-1.12,7.07,1.53,14.75,1,21.52-.22,2.85-2.45,1.04-4,1.47v9.99l4.52,41.98c9.81-.47,17.23-4.7,25.36-9.66l-3.91-50.31h5.01c-.24-12.3,0-21.11,13.58-23.88,19.78-4.02,48.66-3.12,69.84-5.1,38.24-3.57,76.21-9.47,114.4-12.97l-19.64,3.82c-44.97,9.76-93.87,9.55-138.61,17.26-14.86,2.56-11.45,13-13.48,25.23l1.55,1.47,16.31,3.16c-1.55-9.59-3.59-23.56,8.59-25.88,18.44-3.51,44.53-4.47,63.86-6.08,75.92-6.29,151.96-9.39,227.67-18.12,22.89-2.64,45.7-6.71,68.56-8.86l-38.75,7.69c-91.24,14.43-183.49,21.41-275.19,32.54-10.58,2.83-9.1,18.17-12.77,26.69l25.97,4c.68-3.23-2.16-1.73-4-2-.91-.92,4.66-22.95,8.77-23.7l74.16-8.25-62.22,9.2c-7.91,3.83-5.33,17.6-5.72,24.76-1.44,1.41-8.07-3.22-6.99.99l47.45,9.02c2.43-3.44-5.7-1.93-6.38-3.1Z"/>
</svg>