<?xml version="1.0" encoding="UTF-8"?>
<svg xmlns="http://www.w3.org/2000/svg" version="1.1" viewBox="0 0 2000 2000">
  <!-- Generator: Adobe Illustrator 30.0.0, SVG Export Plug-In . SVG Version: 2.1.1 Build 123)  -->
  <defs>
    <style>
      .st0 {
        display: none;
      }
    </style>
  </defs>
  <g id="TIGER" class="st0">
    <g id="STRIPES">
      <g>
        <path d="M1682.91,1488.9l.57-1.91c3.05,1.65,5.4,4.16,6.48,7.55l10.04,97.45-5.59-2.93-1.88,1.95c-18.24-9.95-34.67-23.04-52.61-33.42-63.82-36.97-109.18,22.98-164.4,48.43-16.87,7.77-33.75,8.81-50.74,14.26-30.09,9.64-51.57,21.08-84.44,26.56-6.15,1.03-16.8.94-21.64,2.14-1.09.27-.68,2.58-3.16,3.05-9.43,1.78-20.23-2.48-29.28-3.77s-17.25-1.58-26.44-3.57c-3.3-.71-18.85-4.02-19.65-6.35l-3.16-45.33c11.74.33,23.7,1.95,35.48.97,6.05-.5,36.06-5.08,39.81-7.19,2.22-1.25,2.18-3.02,3.41-3.85,2.29-1.55,8.89-3.24,11.97-4.77,22.05-10.95,40.59-23.4,61.65-35.35,30-17.02,57.96-31.95,87.2-50.8,20.63-13.3,69.39-51.37,92.08-51.92,36.68-.9,62.08,17.13,92.06,34.72,7.58,4.45,14.62,9.73,22.24,14.08Z"/>
        <path d="M618.94,1029.05l-2.94,83.95-42.06-5.44c-1.03-.72-1.31-3.7-1.39-5.06-.85-14.28.28-38.44,1.42-53.05,1.06-13.54,7.22-16.38,17.75-23.26l27.23,2.85Z"/>
        <polygon points="626.99 759 601.29 745.21 585 745.99 588.98 670.48 603.28 667.2 628.84 679.66 626.99 759"/>
        <g>
          <path d="M1160.06,187.91l6.97,2.77c.33,8.09-1.17,16.54,1.46,24.32,9.15-7.82,34.07-34.49,45.12-35.7,7.07-.78,20.61,8.88,26.7,12.89,34.54,22.81,66.59,49.83,100.78,73.22,13.06,8.94,30.74,14.22,35.83,30.99-.23,1.05-1.91,1.77-2.91,2.12-36.82,13.01-63.6-11.86-95.13-26.9-21.56-10.28-57.22-26.16-74.39-1.64l-31.48,41.01-4.02-86.99-39.47,27.9-34.56-12.37c-1.84-9.1-7.22-40.4-1.99-47.06l59.53-47.47c.05,13.4,3.59,27.4,7.78,40.25.3.92.05,1.79-.23,2.65Z"/>
          <path d="M1060,220.01c-6.05,15.03-.89,32.47-4.05,48.29l29.42,15.62.62,2.06-46.5,33.84-19.35-22.54c4-18.52,5.5-39.07,13.42-56.21l26.43-21.06Z"/>
        </g>
        <path d="M606.01,1445.99l-2.01,62c-15.72,1.79-31.49,4.55-45.99,11l2.43-70.06c1.53-2.18,39.94-2.85,45.57-2.94Z"/>
        <path d="M610.99,1293l-2.1,66.89c-16.14,3.12-33.33,4.26-45.88,16.1.42-19.65.37-39.48,2.51-58.98.46-1.04,15.48-13.89,17.21-14.79,7.64-3.98,20.02-5.71,28.27-9.22Z"/>
        <g>
          <path d="M713,533.5l28,8.51-50.74,38.8-27.15-7.91c1.74-12.33-1.07-25.48,4.02-37.27l46.38-37.62c1.64.76-.5,2.33-.5,2.5v33Z"/>
          <path d="M885,361.01c-.87,1.58-1.53,2.73-1.91,4.58-2.61,12.8-3.58,27.76-4.93,40.75l25.21,13.57.62,2.06-43.33,30.8-24.72-13.45c2.76-12.77.96-38.17,10.01-47.87,7.27-7.79,26.79-22.24,36.05-28.95.98-.71,1.2-2,2.99-1.5Z"/>
          <path d="M940.32,315.31l35.67-28.31-7.88,49.34,24.87,18.16-24.62,18.26-29.37-12.25c-1.12-.73-.91-1.85-1.05-2.95-.91-7.27-.8-27.68.03-35.08.28-2.54,1.59-4.78,2.35-7.16Z"/>
        </g>
        <path d="M622.01,904.99l-1.01,60c-14.81-4.33-26.8-13.9-42.56-15.93.45-9.2-.63-21.84.52-30.62.23-1.76.36-2.16,1.47-3.53.7-.87,13.44-10.46,14.29-10.7,7.56-2.17,19.25,2.05,27.29.78Z"/>
        <path d="M625.84,783.16l-.84,52.84c-1.02,1.17-23.42-14.62-26.59-15.9-5.05-2.04-10.81-1.09-14.89-5.11l1.43-43.55,15.32-1.19,25.58,12.91Z"/>
        <path d="M613.99,1197l-1.16,34.84c-15.37,7.85-31.64,13.19-45.83,23.16l2.45-47.05c14.12-6.64,29.8-6.3,44.54-10.95Z"/>
        <path d="M792.99,435.01l-8.03,43.29,24.03,14.69-20.49,14.73-25.18-13.15c2.59-13.68.71-28.56,6.23-41.5l23.43-18.06Z"/>
        <path d="M638.99,559l-1.57,33.05,25.58,7.95c.61,2.33-.56,1.67-1.27,2.29-2.22,1.91-18.95,14.66-20.2,14.69l-20.91-9.88-.72-1.58c2.16-12.78,2.17-26.32,7.4-38.21l11.68-8.3Z"/>
        <g>
          <path d="M1648.11,1168.91l5.88-2.91,8.9,81.34-4.48,2.7-2.76-1.95c-16.53,7.48-35.18,15.79-53.67,11.41-9.82-2.33-19.38-8.24-29.21-10.79-15.48-4.02-24.84-4.84-40.14-11.86-20.11-9.22-23.61-15.1-48.1-15.9-51.76-1.69-106.88,14.28-158.18,20.9-20.36,2.63-40.38,3.55-60.71,6.29-14.51,1.95-29.05,4.69-43.38,7.67l-2.11-1.46-2.99-69.19c14.2-5.25,28.24-13.23,42.58-17.92,38.29-12.53,79.42-11.75,118.08-21.92,13.49-3.55,23.72-11.3,35.89-15.11,23.7-7.4,60.84,11.09,85.1,16.47,17.41,3.86,35.69,4.66,53.19,8.81,22.26,5.27,58.58,24.78,80.21,18.23,4.77-1.45,10.03-5.06,14.29-7.7l1.6,2.9Z"/>
          <path d="M1579.95,542.09l.1,2.81,5.81.24,9.13,80.86c-3.61.39-5.73-3.69-7.45-4.02-6.78-1.3-32.31,0-39.8,1.26-3.01.5-20.39,7.78-21.72,6.77-1.51-6.63-4.29-13.49-10.32-17.2-51.92-23.51-103.47-48.62-156.19-69.9-14.67-.05-6.12,25.19-7.51,34.09-20.9-4.25-42.18-8.34-63.5-9.99-17.41-1.34-36.23-2.53-52.88,3.1-19.36,11.61-31.47,32.5-47.6,47.89l-.57-36.06c15.55-18.19,30.46-52.43,52.59-62.41,45.46-20.49,114.91-18.34,162.78-7.85s111.16,39.25,159.56,34.19c6.15-.64,11.52-4.05,17.57-3.79Z"/>
          <path d="M1569.32,436.66c1.77,1.1,4.67.61,5.49,3.03l8.18,72.3c-.27.25-3.52-.64-4.19-1.04-11.89-7.16-32.55-8.08-47.22-12.03-43.65-11.76-81.87-35.8-122.9-53.1-40.36-17.01-129.64-39.5-171.72-30.37-8.51,1.85-14.05,5.83-19.93,12.07-13.18,14.01-22.99,33.13-36.02,47.47l-.47-32.96c11.08-14.27,20.99-30.69,32.5-44.5,9.97-11.97,14.33-14.74,29.73-18.27,28.07-6.43,57.76-7.93,86.04-12.96,67.74-12.04,128.3,38.68,190.97,56.4,14.72,4.16,37.8,6.65,49.53,13.95Z"/>
          <path d="M1376.89,925.11c2.48,12.17-.06,26.61,6.91,37.58,4.78,7.52,12.21,7.82,20.18,9.82,20.76,5.22,42.04,9.18,63.01,13.49l-.47,2.01c-11.3,7.45-20.86,17.31-31.62,25.38-46.47,34.82-117.05,28.24-170.42,47.58-18.33,6.65-32.19,21.34-48.58,30.42-1.27.7-2.21,1.94-3.9,1.59l-4.11-95.53,47.43-29.64c23.32-7.51,40.03-26.76,62.69-35.31,19.34-7.3,38.31-8.53,58.88-7.41Z"/>
          <path d="M1497.58,1372.57c-26.17,29.5-48.25,31.67-83.34,42.16-31.22,9.34-58.66,36.63-84.92,56.08-8.28,6.13-14.53,10.73-22.03,17.24-5.87,5.09-17.31,8.49-24.77,10.97-16.09,5.35-32.75,9.31-49.51,11.98l-7-150.99,75.43,17.04,1.13-2.09c55.39,1.47,120.33,4.95,170.46-22.44,3.31-1.81,20.01-13.44,21.32-13.32,5.53.51,9.34,12.58,9.65,17.31.5,7.45-1.75,10.79-6.42,16.06Z"/>
          <path d="M1356.88,648.12l9.1,117.85c-26.56,9.75-53.34,13.81-81.48,16.02-9.49.75-20.43-.19-29.97,1.03-19.87,2.53-38.68,20.46-56.51,28.98l-4.07-83.49c-.5-5.32,6.26-7.24,9.97-10.09,9.94-7.63,21.06-18.26,31.17-24.83,13.23-8.6,34.81-11.04,50.43-16.57,24.39-8.64,45.05-26.21,71.36-28.9Z"/>
          <path d="M1633.01,971.99l6.98,67.01c-9.98-5.24-22.45-2.34-32.99.5-15.01,4.06-24.68,11.58-37.81,17.19-5.67,2.42-12.45,3.74-18.56,6.44-12.19,5.41-27.91,18.72-39.09,21.91-6.24,1.78-17.68-.27-18.54-7.63-1.51-12.93,18.61-30.11,28.26-36.65,7.98-5.41,19.14-9.52,26.23-14.77,8.56-6.34,17.63-19.13,25.98-27.02,10.56-9.99,34.97-30.1,50.04-29.06,2.87.2,5.71,3.4,9.49,2.08Z"/>
          <path d="M1602.01,743l5.99-3,6.01,55.99c-6.07,1.9-4.68-.85-6.18-1.81-1.94-1.23-18.94,5.22-23.44,5.69-13.61,1.43-29.11-1.61-42.24-5.01l-3.96-43.16c.58-1.91,3.97-3.54,5.84-4.2,12.32-4.3,26.43,3.33,39.38.38,6.19-1.41,12.49-4.54,17.12-8.86l1.51,3.98Z"/>
          <path d="M1615.73,871.32c.26.12.24,1.5.95,1.66,1.71.39,3.56-.26,5.28.06l6.03,52.95c-25.56-7.16-52.76-8.93-76.54-21.95l-2.46-31.05c14.18.37,29.37,2.07,43.54,1.04,5.5-.4,19.12-4.61,23.19-2.72Z"/>
          <path d="M1673,1340.99l4.99,45.01c-10.67-4.21-23.99-4.78-35.53-4.04-10.15.65-27.05,5.96-35.97,5.11-10.55-1.01-11.89-18.43-6.01-26.09,9.99-13.02,48.54-19.93,64.47-20.47,1.63-.05,5.02,2.09,8.05.48Z"/>
          <path d="M1554.01,686c1.15,12.76-8.59,19.84-20,22.01l-3.01-22.99,23.01.99Z"/>
        </g>
        <g>
          <path d="M993,1624.01c-.37,1.8-1.96,1.87-3.46,2.03-10.55,1.13-21.44,1.23-32.04,1.96l-2.43,1.57c-2.88,20.37-9.79,42.02-7.08,62.43l-72.39-16.1c-2.02-1.66-2.66-7.57-2.63-10.35.09-10.4,3.4-30.01,5.18-40.91.33-2.02.64-6.89,2.49-7.51l38.51-3.52,73.87,10.4Z"/>
          <path d="M1100,1640.01c.02,1.54-3.52,1.4-4.83,1.66-8.97,1.74-18.11,2.87-27.11,4.38.75,17.6,1.31,36.92,4.07,54.32.99,6.23,2.2,12.33,5.87,17.62l-80.88-17.11.33-10.93,15.69-51.81c10.77-.24,21.58-.65,32.35-1.15,5.33-.25,12.81-2.08,17.96-2.02,11.26.13,24.84,5.54,36.54,5.05Z"/>
          <path d="M1240.01,1661v2.99s-37.96,3.05-37.96,3.05c-2.08,19.7-9.48,41.05-10.91,60.58-.35,4.82.17,8.69.86,13.37-10.62-2.58-22.6-3.54-33.02-6.47-1.44-.41-9.25-3.26-9.75-3.75-1.08-1.06-3.75-11.17-4.12-13.38l-6.01-59.3,32.4-7.08,68.51,10Z"/>
          <path d="M818,1598.01c.03,1.55-3.45,1.66-4.63,1.86-3.74.63-22.81,1.69-23.89,3.11-.82,2.43-1.29,4.92-1.51,7.49-.89,10.27-.97,28.69-.41,39.04.18,3.28,1.02,6.53,2.45,9.48-18.3-3.9-39.59-5.97-57.39-11.1-6.63-1.91-8.8-3-9.61-10.39-1.52-13.85,1.09-30.32.06-44.45l32.39-4.08,62.55,9.04Z"/>
          <path d="M714.99,1583.01c.24,1.74-2.27.95-3.48.99-9.57.36-18.98,1.56-28.52,1.99.05,17.28-4.86,35.07,0,52-5.93-2.76-37.7-5.91-40.06-9.67-1.16-1.84-.99-4.57-.83-6.69.93-12.47,7.73-26.87,8.94-39.6l39.46-2.48,24.5,3.44Z"/>
          <path d="M645.99,1573.01l-16.5,1.98c-5.47.91-12.32-2.76-14.23,3.77-2.25,7.69-6.49,33.06-6.28,40.76.04,1.33.56,2.31,1.02,3.47-4.83-1.74-26.5-4.03-28.77-7.23-.66-.93-1.31-6.66-1.27-8.21l5.18-36.41c20.78-.93,40.42-3.96,60.85,1.87Z"/>
          <path d="M885,1608.01c.09,1.47-3.59,1.76-4.62,1.87-4.41.46-29.58,1.08-30.95,3.05l-5.52,46.57,2.08,11.49c-10.42-2.37-15.25-1.42-16.03-13.45-.32-4.9,1-8.76,1.07-13,.2-11.51.58-23.2-.05-34.53l34.48-4.48,19.52,2.48Z"/>
        </g>
      </g>
    </g>
    <g id="BODY">
      <g>
        <path d="M1167,1650.01c-.35,1.95-2.12,1.63-3.46,2.03-4.07,1.23-24.68,4.17-25.48,6.59l6.06,56.74,4.88,16.61c-20.04-4.59-42.6-6.6-62.21-12.28-11.84-3.43-11.6-6.43-13.66-18.34-3.03-17.51-2.84-36.6-5.06-54.28l35.43-6.07,63.5,9Z"/>
        <path d="M937,359.5l29.41,13.44.58,2.04-60.96,44.63-26.87-12.77-.23-1.3c1.8-15.39,2.07-32.77,8.21-46.9l50.36-40.64c1.66.81-.51,2.93-.51,3.49v38Z"/>
        <path d="M969.22,336.79c-1.02-1.74,4.14-35.39,5.08-40,.88-4.33,1.64-8.03,4.26-11.74l53.44-43.05c-6.91,17.27-8.32,36.51-12.91,54.58.15,2.39,15.38,18.12,17.97,21.9.61.88,1.45,1.33.51,2.52l-43.21,32.89-25.13-17.09Z"/>
        <path d="M1059,1634.01l-10.51,1.98-36.39,2.12-15.86,52.63-.24,10.26c-6.78-1.65-45.18-6.97-47.51-10.99l-1.1-8.34,8.54-52.24,42.56-3.86,60.5,8.44Z"/>
        <polygon points="615.99 1114.01 613.87 1195.87 569.01 1207 572 1108 615.99 1114.01"/>
        <path d="M608.99,1361l-2.99,84-46,2.99c1.03-11.48.54-23.04.95-34.54.32-9.08.31-18.94,1-28,.63-8.21,1.93-9.97,8.71-14.29,11.12-7.07,25.55-7.93,38.32-10.18Z"/>
        <path d="M835.11,439.88l24.89,13.14-50.5,38.69-23.33-12.86c-1.42-2.26,5.11-41.48,8.97-46.2l46.36-37.64-6.39,44.88Z"/>
        <path d="M604,1509l-1.01,58.01,12,1.98-30.8,2.2-5.09,37.42c-.91,1.6,3.93,8.91.41,8.39-.92-.14-7.03-1.95-7.3-2.22-1.96-1.96-2.39-12.63-2.32-15.68l-11.9-2.11c.42-1.18.98-2.12,1.03-3.46.2-5.87.93-19,0-24.07-.48-2.6-2.83-1.63-3.11-3.93-1.56-13.01,2.68-29.31,1.3-42.82,1.03-4.48,10.54-6.99,14.79-8.21,3.83-1.1,30.84-6.65,32-5.51Z"/>
        <path d="M623.84,836.16l-1.72,67.26-26.41-.21-16.7,11.79,4-99c4.55,3.41,9.83,2.65,14.87,4.62,8.38,3.27,17.19,12.23,25.95,15.54Z"/>
        <path d="M768,455.01c-2.08,3.52-2.51,8.34-2.99,12.5-1.05,9.14-1.55,18.62-1.84,27.84l23.82,13.16-44.63,33.23-28.25-7.83c1.2-9.52-3.04-30.44,2.46-37.84l51.44-41.05Z"/>
        <path d="M628.99,678c-.84,1.14-23.12-11.47-25.72-11.82s-14.66,4.5-15.26,3.81c1.62-11.39.11-23.15,1-34.48.51-6.42,3.67-9.14,4.01-10.98,1.1-5.77-.47-15.42.95-21.83.22-.99,9.42-6.23,10.5-8.72.96-2.2.24-4.7.96-7.04,1.46-4.75,15-13.16,19.07-16.93l-5.39,36.32,20.88,11.19-8.98,9-2.02,51.49Z"/>
        <path d="M1093.13,239.87l34.87,12.14-1.52,2.97-39.14,28.82-29.42-15.22c-2.69-3.68.02-12.66.12-17.04.22-9.88-2.34-27.05,4.46-34.54l28.49-22c-2.8,14.88,1.86,29.94,2.14,44.87Z"/>
        <path d="M621.01,966.02l-2,61.99c-8.72.18-20.01-3.6-28.48-1.98-3.81.73-11.73,9.75-15.51,11.98l3-88c15.73,1.6,28.21,11.47,43,16.01Z"/>
        <path d="M861.99,1605.01l-8.62,1.87-22.38,2.12c-.22,6.82.31,13.72.05,20.55-.32,8.35-2.13,18.76-2.12,26.95,0,3.67,1.76,8.09,3.08,11.5l-41.81-9.18c-3.74-8.55-1.26-16.04-1.15-24.27.06-4.48-.87-29.91.9-31.1l33.45-4.33,38.61,5.9Z"/>
        <path d="M613,1233.01l-2.44,59.05c-8.61,3.57-20.12,5.48-28.26,9.74-6.1,3.19-11.26,10.54-17.29,14.2l2.48-60.01c8.68-7.58,18.84-10.55,28.86-15.14,2.71-1.24,15.33-8.75,16.64-7.85Z"/>
        <path d="M751,1588.01c-.58,1.38-5.1,1.66-6.62,1.87-7.37,1-14.97,1.52-22.38,2.12,1.4,17.62-3.17,37.39,3.01,54-6.79-1.87-37.62-5.58-41.05-9.44-5-5.62-.35-40.52.16-49.44l36.43-3.15,30.45,4.05Z"/>
        <path d="M913.99,1613.01l-35.95,4.03-5.94,49.56,1.9,9.39-27.83-6.16c-3.06-18.85,2.88-37.92,3.89-56.77l40.44-3.85,23.5,3.8Z"/>
        <path d="M685,1579.99l-33.87,1.14-9.88,40.63.74,7.23-31.51-6.98c-3.34-5.63,5.72-37.46,6.45-45.58,11.77-.44,24.93-3.08,36.61-2.47,7.95.41,19.93,2.52,27.95,4.05,1.46.28,3.1,0,3.51,1.98Z"/>
        <path d="M665,538.01c-2.16,11.5-2.65,23.34-1.54,35.04.7,1.05,19.19,6.55,22.33,7.7,1.28.47,2.66-.43,2.21,1.75l-24.47,17.41-24.93-7.79c-2.04-1.44.38-10.02.45-12.57.17-6.24-1.38-17.96,2.08-22.92l23.87-18.62Z"/>
        <path d="M601.5,746l25.01,13.99-.52,23.01c-.89,1.21-22.54-12.99-26.73-13.8s-9.61,1.82-14.26.8v-22.5l1.5-1.5h15Z"/>
        <g>
          <path d="M1656.79,1249.25c.26.13.12,2.39,1.63,1.8l4.57-2.05,9.58,90c-3.27,3.35-6.88.67-11.03.98-15.77,1.19-54.55,7.66-62.96,22.09-5.16,8.85-2.85,23.02,7.98,25.89,23.69-2.61,46.78-9.97,70.22-1.73l12.22,103.77c-3.05-4.21-6.23-2.61-8.93-3.53-2.85-.96-9.71-6.9-13.15-8.89-41.17-23.81-79.09-53.79-127.59-27.76-34.59,18.57-67.73,45.58-102.03,65.97-29.16,17.34-61.84,36.41-91.63,52.37-9.81,5.26-22.28,9.09-30.97,13.79-1.16.63-.39,2.66-2.34,3.88-3.88,2.43-33.32,6.44-39.87,7.14-4.9.53-33.19.67-35.05-1.92l-4.44-79.06c11.51-1.97,22.94-4.24,34.22-7.29,8.11-2.19,34.7-10.04,39.75-15.25,7.75-7.99,13.41-11.05,22.35-17.65,22.05-16.28,53.22-45.48,77.9-54.1,32.98-11.53,48.67-8.48,78.26-32.74,7.76-6.37,19.4-15.72,19.52-26.47.06-5.44-4.39-20.72-11.52-20.49-1.19.04-16.46,11.28-19.8,13.16-50.14,28.2-116.5,24.29-172.07,22.76l-1.04,2.01c-24.15-5.89-48.29-12.5-72.92-16.09l-1.48-1.52-5.04-101.2c3.78-1.31,7.74-2.06,11.66-2.84,35.56-7.05,70.86-8.37,106.54-13.46,47.85-6.82,98.59-20.92,147.16-18.82,25.86,1.12,32.21,10.23,53.83,19.17,12.53,5.18,23.37,5.68,35.69,9.31,24.28,7.16,27.57,15.67,55.98,8.01,4.04-1.09,23.62-9.86,24.8-9.25Z"/>
          <path d="M1168,196.5c-.16-1.82-1.77-4.76-1.12-7.38-1.24-.68-3.05-.59-4.21-1.28-2.26-1.34-5.37-15.25-6.18-18.83-2.75-12.08-8.28-26.21,6.5-32.01l1.51,8c.81,1.2,1.51,1.22,2.83.85,2.71-.77,21.65-18.88,22.66-17.85l2.94,29.57c3.11,2.26,6.74-3.04,9.54-4.6,6.16-3.44,9.72-4.87,16.74-2.68,7.85,2.44,29.13,19.96,33.26,20.32.68.06,1.68-.54,2.43-.71l-2.94-40.38,1.52-1.51,282.04,188.96,4.27,5.73,3.7,35.3c5.18,5.53,21.4,11.26,24.02,17.98l7.5,61.5c-1.23-.11-4.34-1-5.22-1.53-12.05-7.26-32.44-9.21-47.01-13.24-64.02-17.71-125.23-68.91-193.99-57.42-26.36,4.41-53.69,6.65-79.98,12.02-5.92,1.21-17.07,3.28-22.09,5.91-12.71,6.65-35.3,43.43-45.44,56.51-.64.83.01,1.84-2.29,1.25l-5.79-128.28c4.95-7.6,10.34-14.95,15.83-22.16,7.18-9.44,22.68-31.43,34.41-32.59,48.32-4.78,98.2,53.27,138.78,44.78,4.17-.87,10.37-3.21,14.29-4.71,2.08-3.48-2.45-9.46-4.69-12.34-7.1-9.15-20.02-13.93-29.56-20.44-32.28-22.04-62.66-47.07-94.96-69.04-8.31-5.65-23.96-18.1-33.82-17.24-7.77.68-20.34,12.26-26.51,17.54-6.54,5.59-12.5,11.88-18.99,17.51-.36-5.69.49-11.88,0-17.5Z"/>
          <path d="M1621.68,924.36c.25.07.34,1.21,1.11,1.54,1.27.55,4.85.22,5.23,1.79l4.97,43.3c-4.51,1.67-5.94-2.1-8.43-2.09-16.9.09-37.13,16.23-49.1,27.07-8.79,7.96-19.63,22.84-27.98,29.02-6.96,5.16-17.35,8.99-25.03,13.97-10.83,7.02-31.36,24.19-30.43,38.47.28,4.27,8.6,9.16,12.58,9.51,10.35.9,34.69-17.73,46.02-22.81,5.99-2.69,12.67-4.19,18.35-6.65,16.83-7.3,44.96-25.11,64.32-20.46.33.08,2.35,3.32,5.73,2.43l14.72,124.28c.48,2.03-5.05,5.02-5.75,4.27l-.5-3c-5.33,2.37-12.64,7.81-18.25,8.76-22.37,3.77-54.98-13.8-77.44-19.08-16.52-3.88-33.48-4.76-49.85-8.15-22.56-4.66-55.59-20.33-77.47-19.6-13.58.45-35.13,14.78-51.49,18.58-37.19,8.63-77,8.72-113.27,20.73-14.5,4.8-28.19,12.93-42.73,17.75l-4.49-89.06c16.25-10.08,33.83-26.62,51.79-33.13,46.57-16.86,102.4-14.54,148.95-34.05,21.64-9.07,36.5-28.75,56.36-40.5l76.15,17.51c10.99,1.51,13.44-7.18,13.29-16.3-.33-19.97-4.43-42.73-6.05-62.97-.54-6.76-.73-13.71-1-20.49,13.45,7.04,28.01,11.42,42.8,14.69,8.46,1.87,18.97,2.27,26.87,4.67Z"/>
          <path d="M1693.81,1591.74l.67-1.75c6.6,3.3,7.8,7.97,6.08,15.07l-24.51,4.99c-2.09,2.17,7.18,52.56,3.96,59.95l18.51-3.98.48,1.97-349.5,85.02c.7-2.31,2.65-3.81,3.69-6.31s1.63-5.44,1.84-8.16l-4.03-63.54c-19.18,1.88-38.02,9.3-57.49,7.99-6.03-.4-12.27-2.81-18.52-1.99l2,50.01-34-5.01c-.4,9.46.31,19.74,7,27-16.19-4.5-35.13-5.65-51.02-10.47-2.25-.68-6.06-1.76-6.79-4.21-1.35-4.51.42-14.48,1.1-19.51,2.27-16.8,6.79-33.49,9.59-50.21l38.01-4.68-.88-23.89c8.07,2.69,16.41,5.15,24.81,6.68,12.35,2.26,31.51,5.81,43.64,6.36,2.98.13,6.01-.21,8.99.03l1.09-3.14c25.41-1.02,50.14-7.62,73.98-15.91,11.13-3.87,22.8-9.93,33.68-13.32,9.45-2.94,20.29-4.19,30.02-6.98,33.12-9.51,60.75-31.95,89.87-49.13,61.23-36.13,77.17-15.48,129,16.83,2.48,1.55,17.75,11.1,18.72,10.32Z"/>
          <path d="M1576.69,509.33c.46.25.66,1.72,1.35,2.12,1.3.75,3.05.29,3.75.74,1.91,1.23,3.75,27.47,4.2,31.82l-4.94-.11-.11-2.8-1.44-.15c-11.4,3.49-21.1,4.55-33.05,4.1-44.57-1.68-85.85-19.81-128.45-30.55-46.06-11.61-88.03-15.47-135.19-7.18-20.88,3.67-46.97,7.99-60.78,25.22l-35.02,48.46-5.79-103.69c9.63-13.16,18.6-27.04,28.82-39.76,11.48-14.28,16.74-21.05,36.47-22.53,42.68-3.21,93.66,8.79,134.25,21.72,55.99,17.84,103.77,52.25,162.2,65.8,7.87,1.83,27.92,3.66,33.73,6.79Z"/>
          <path d="M1365.99,767l11.01,157c-17.53-.49-33.88-.3-50.77,4.73-19.18,5.72-31.98,16.36-48.63,26.42-16.58,10.01-34.23,20.44-51.3,30.65-5.86,3.51-12.28,6.12-17.81,10.17l-10.03-182.97c13.01-6.98,26.13-17.42,39.21-23.83,17.13-8.4,40.74-5.51,59.81-7.19,23.48-2.07,46.2-7.83,68.5-14.99Z"/>
          <path d="M1356.95,646.95c-3.78.32-7.53,1.29-11.17,2.33-22.07,6.28-38.9,19.14-60.27,26.73-17.34,6.16-38.64,8.13-53.43,18.57-12.76,9.01-24.27,21.46-38.08,29.41-1.64-35.08-4.53-70.25-4.81-105.3,10.39-11.48,19.8-24.3,30.77-35.23,4.19-4.18,10.71-10.58,16.13-12.87,16.18-6.86,55.14-2.74,73.27-.47,13.95,1.75,27.82,4.74,41.61,7.39l2.03,4.97,3.93,64.47Z"/>
          <path d="M1588.78,623.24c.43.27.54,1.77,1.26,2.17,3,1.69,5.02-.19,5.89,5.15,5.45,33.38,5.39,69.41,11.1,102.98.4,3.39-1.07,8.21-5.02,8.45l-.5-4.99c-4.65,5.31-15.2,10.19-22.12,10.88-13.06,1.31-29.4-7.33-41.38,2.11l-3.89-40.37.85-1.15c10.35-1.21,24.51-12.54,17.39-23.35l-21.37-1.12-4.93-52.37c.64-1.95,9.56-3.11,12.15-3.92,3.03-.95,6.39-3.11,9.34-3.66,4.56-.84,39.4-1.95,41.22-.81Z"/>
          <path d="M1607.95,795.07l.05,2.93,5.99-1.01,8,75c-4.57,1.6-5.79-1.97-8.41-2.09-5.88-.28-11.75,2.41-17.19,2.99-15.36,1.65-31.89-.15-47.3-1l-7.09-75.89c15.68,3.2,32.2,7.15,48.25,3.75,3.03-.64,15.87-6.42,17.7-4.68Z"/>
        </g>
      </g>
    </g>
  </g>
  <g id="SHOCK" class="st0">
    <g id="BOLT" class="st0">
      <g>
        <g>
          <path d="M1558.14,997.14c2.38-1.52,37.02,8.79,42.86,8.87l-284.48,634.01c-25.25,6.05-51.04-2.63-76.39-4.16l-4.14-77.87c25.56-.32,51.88,7.81,77.02,1.3l122.94-464.86-109.96-17.45,51.01-137.99c3.19,2.14,1.58,7.73,2.24,11.24,1.45,7.7,5.37,17.11,13.52,19.48l157.25,34.88c7.23-1.32,6.91-6.69,8.11-7.46Z"/>
          <g>
            <path d="M1566.71,373.29c.71.96,1.9,6.66,2.19,8.32,2.06,12.03,1.51,25.33,4.09,37.39-.42.52-8.55-8.49-10.98-7l-46.5,200.98-81.51-36.99.16-2.31,123.43-205.62c.7-.17,8.62,4.55,9.11,5.23Z"/>
            <polygon points="1547.99 855.99 1537.01 741 1578.72 756.78 1581.03 759.5 1547.99 855.99"/>
            <polygon points="1366.99 790 1315 773.99 1360.5 697 1366.99 790"/>
          </g>
        </g>
        <path d="M605,1498l-2,46.01c-15.6.15-30.46,3.76-45.95-.06l.95-45.95h47Z"/>
      </g>
    </g>
    <g id="BOTTOM" class="st0">
      <path d="M603,1565.5l2.55,1.45,635.45,94.05-1.01-23.01c25.44,1.2,51.21,10.16,76.54,4.04l286.44-635.54-43.93-10.54-10.96-137.37,34.91-101.57-46.26-19.25-10.99-109.01c-1.2-6.6-5.02-10.92-8.67-16.18l46.42-200.57c6.15,5.22,10.31,7.58,10.38,16.62l127,1175.74c-1.01,2.95-24.69,4.91-24.91,6.19l5.08,50.98-1.03,8.45c5.91-1.05,11.81-2.78,17.72-3.79,2.12-.36,1.18.6,1.28,1.78l-349.5,85.02c.69-2.31,2.65-3.81,3.69-6.31s1.64-5.45,1.83-8.16l-4.03-63.54c-19.21,2.14-37.94,9.14-57.49,7.99-2.85-.17-17.4-3.1-18.51-1.99l2,50.01-34-5.01,1.49,17.02,5.01,9.99-676.79-137.98c-2.83-4.89-2.84-10.45-2.81-15.93l-11.91-2.12c.9-4.81,2.22-26.32.48-29-.42-.64-1.95-.74-2.24-1.19-.84-1.36-.26-20.83.81-21.76,15.54,3.61,30.34.19,45.96-.03v20.5Z"/>
    </g>
    <g id="TOP">
      <path d="M1252.01,128l284.26,188.95c6.9,6.74,4.63,31.1,7.63,40.65l13.01,9.89-123.89,206.07-3.03.02-67.71-30.35c-12.83-2.67-11.53,10.52-11.26,19.27l9.72,130.9-47.73,81.6,54.87,17.14,10.22,139.36-54.09,146.49,110.84,17.48-122.92,461.96-2.42,1.58-24.05,1.04-50.02-4.98-66.44-1331.06-537.5,400.99c-2.47,25.73-1.61,51.71-2.45,77.55-3.2,98.96-6,197.95-9,297l-15.04,494.96-1.64,2.36c-15.13.63-30.29,2.37-45.35.13.75-10.14.62-20.32,1-30.48,10.25-269.7,19.23-539.96,30.03-809.97.29-7.32-1.39-22.91,1.17-28.87.64-1.5,2.56-1.39,2.81-2.37,1.43-5.49-1.8-17.75,1.51-23.27,1.21-2.02,8.93-5.71,9.96-8.04,1.37-3.11-.2-7.06,2.83-10.68l554.19-446.31c2.37-.43,1.27,1.08,1.45,2.52.41,3.24-.24,6.59,4.34,6.37l22.69-17.89c1.38,5.24-.4,27.46,3,29.56,2.63,1.63,12.23-7,17-8.07,12.36-2.77,31.61,15.97,42.51,21.39l2.5-3.39-3-39.47Z"/>
    </g>
  </g>
  <g id="NITRO" class="st0">
    <g id="FLAMES" class="st0">
      <g>
        <path d="M1369.65,979.66c8.38-8.28,2.41-35.04-.15-45.66-5.38-22.32-14.85-42.13-17.38-65.62-3.16-29.39,5.57-51.01,7.86-78.88.4-4.81-.58-10.38,0-15.01.18-1.38.56-2.93,1.99-1.48,4.7,22.09,5.87,44.91,8.1,67.41.19,1.88,1.67,3.36,1.86,5.14,3.45,32.85,1.58,71.95,7.16,103.84,1.47,8.42,5.21,18.38,14.46,20.54l109.78,24.98c3.29,10.7,4.38,23.1,12.62,31.63,17.21,17.81,28.43-6.97,28.05-22.54,9.21,3.01,14.3-2.52,14.98-11.51l-8.98-108.48,8.13,25.35c2.07,4.68,10.7,20.25,14.88,22.17,4.78,2.2,10.27-8.71,11.33-12.68,9.13-34.29-18.29-107.67-18.4-149.38l2.04-19.46c2.35,13.32,3.73,26.89,6.33,40.18,8.78,44.95,29.11,87.48,33.68,133.32,4.76,47.82-19.64,72.91-33.03,114.96-14.98,47.04-15.93,128.95,3.27,174.8,5.1,12.18,19.8,31.25,25.3,7.77,12.36-52.75-37.81-118.12-14.57-173.57l4.02-8.46c-12.41,51.17,18.57,98.22,29.34,146.17,5.36,23.89,3.51,48.29,10.96,72.04,2.75,8.76,9.03,23.69,18.68,26.32,3.13.85,13.81.4,14.85,3.15l34.79,316.86c-.24,1.51-1.91,2-3.14,2.43-6.38,2.24-15.65,2.86-22.46,4.04l5.03,51.54-2.01,10.98-329.52,80.48c.69-2.31,2.64-3.81,3.69-6.31s1.64-5.45,1.83-8.16l-4.03-63.54c-19.7,2.31-38.38,9.29-58.49,7.99-5.68-.37-11.62-2.68-17.52-1.99l2,50.01-34-5.01,1.49,17.02,5.01,9.99-670.69-136.3-6.83-2.41-2.02-15.25-11.96-2.07c.66-5.04,2.38-26.07.48-28.99-.45-.69-2.23-.67-2.49-1.68-.62-2.37-.11-11.6-.02-14.84,1.72-57.84,5.33-115.93,7.08-173.92.26-8.49-.28-17.05-.03-25.53l46-1.01-5.07,215.57,637.07,94.44-17.01-343.01,43.46-3.04c8.29-1.23,22.34,1.8,29.84.01.8-.19,7.21-2.68,9.7-3.47,13.64-4.33,18.03-21.14,18.99-34.01,2.09-28.17-7.99-53.73-5.97-81.97,1.89-26.55,15.05-53.17,18.85-79.15,1.99-13.6-.66-24-.85-37.36,1.91,1.03,2.87,4.99,3.5,6.98,10.61,33.48-.18,67.81,2.45,101.55.87,11.11,6.13,25.85,18.22,28.78,17.39,4.21,24.56-20.1,26.54-33.08,15.13-99.14-78.73-144.06-89.61-236.85-8.56-73.05,17.52-109.5,28.56-175.19,3.18-18.9,1.02-36.18,1.33-55.18,4.11,4.45,4.92,14.37,5.85,20.64,8.33,56.55-9.51,104.32-8.9,159.9.26,23.13,6,66.44,25.56,81.44,4.94,3.79,12.95,6.8,18.13,1.68Z"/>
        <g>
          <path d="M1362.99,729.99l-14.51-24.97c-20.26-38.08-28.43-80.43-22.31-123.36,3.43-24.07,13.21-47.59,15.82-71.18,1.71-15.44-.84-30.91.02-46.48,1.84.71,2.37,5.01,2.72,6.77,7.82,39.86,3.71,83.45,9.26,123.74l9,135.48Z"/>
          <path d="M1413.99,565.99l-31.01-13.7c-3.21-44.37-18.74-86.43-25.69-130.09-6.21-39-8.41-80.17,3.72-118.2,1.74-.24.94,2.27.99,3.48.95,25.42-.39,47.89,3.13,73.88,8.59,63.53,40.68,121.08,48.87,184.62Z"/>
          <path d="M1497.99,605l-17.34-7.92c-1.34-.99-2.54-13.78-2.69-16.54-1.94-35.61,6.12-70.98,4.03-107.03-2.92-50.44-27.3-90.62-29.03-143.97-.26-8.13-.35-16.57,1.05-24.54,1.46-.18,1.79,2.61,1.9,3.58,2.35,20.73,2.67,40.91,9.05,60.95,11.61,36.47,30.44,68.65,34.91,108.09,4.75,41.86-7.54,85.18-1.89,127.38Z"/>
          <path d="M1516.99,558.01c2.1,29.67,15.12,57.34,22.72,85.78,13.16,49.26,12.77,103.28,7.29,153.73l-1.02,37.48c-1.74.24-.95-2.27-.99-3.48-.1-2.66.15-5.34,0-8l-19.44-194.56c-3.57-17.01-9.28-36.07-10.54-53.46-.31-4.23-.53-11.96-.01-16.01.19-1.46.78-3.12,2-1.48Z"/>
        </g>
      </g>
    </g>
    <g id="BODY1" data-name="BODY">
      <g>
        <path d="M1254.94,169.94l-2.98-40.42,1.52-1.51,282.76,188.97c1.24,1.16,3.1,4.13,3.54,5.74,2.75,10.06,1.44,24.71,3.71,35.28,5.19,5.26,21.46,11.41,24.02,17.98l99.48,909.01c-11.91-2.77-18.45-.39-25.81-11.68-13.36-20.48-12.16-49.48-15.31-72.69-6.42-47.33-38.05-95.02-34.91-143.17.48-7.4,3.07-14.97,3.03-22.45l-5.02,10.47c-8.99,25.49-6.79,48.72-1.49,74.54,6.16,29.94,24.59,76.34,14.25,105.23-3.86,10.79-13.01,4.8-17.58-1.9-24.59-36.1-22.41-135.36-10.88-176.55,7.99-28.54,24.58-53.82,32.43-81.57,13.99-49.42-15.91-110.95-27.23-159.2-4.72-20.09-7.35-40.62-10.5-61.01l-2.03,12.45c-.95,19.6,1.16,37.54,4.36,56.73,4.16,25.02,23.32,90.86,10.52,111.15-4.74,7.52-7.18,6.76-12.26.58-37.4-45.62-14.13-154.09-17.59-211.41-.9-14.86-2.82-33.05-5.28-47.72-6.68-39.88-27.08-76.91-29.72-117.78-1.73-.24-.95,2.27-.99,3.48-.23,6.7-1.27,13.34-.98,20.01.65,15.34,6.17,31.26,7.98,46.5l-5.66-5.83c-4.4-3.44-16.86-5.23-18.12-10.88.07-9.99-1.35-19.83-1.26-29.83.28-30.91,7.17-61.88,3.91-92.83-5.31-50.39-35.45-92.4-41.75-141.25-1.47-11.36-1.69-23.01-3.12-34.38-2.57-3.15-3.97,9.25-4.03,10.45-.43,7.73.48,21,1.05,29.03,3.18,44.7,24.17,82.12,27.98,127.02,3.04,35.83-5.52,70.69-4.03,106.03.26,6.15,1.63,13.22,2.03,19.46-2.83-2.37-10.3-3.96-12.55-5.94-2.36-2.08-2.44-7.74-4.95-10.05-1.64,1.32,1.17,7.57-1.87,6.89l-45.47-21.55c-7.2-62.7-39.28-119.43-48.01-181.99-1.98-14.2-3.84-31.56-4.19-45.81-.26-10.74,1.78-21.71,1.05-32.06-.5-7.14-3.95,1.9-4.72,4.3-10.68,33.52-6.75,81.92-.97,116.4,7.07,42.15,21.94,82.92,24.68,125.81-9.51-2.17-21.46-15.02-29.98-6-2.39-21.85-2.11-44.44-5.14-66.37-.56-4.07-1.45-10.51-2.79-14.21-.41-1.13-1.42-3.52-2.6-1.43-1.03,1.83-.62,15.28-.52,18.56,1.04,37.48-7.4,53.59-13.64,88.28-9.86,54.79-.77,92.83,24.16,141.21,3.71,7.21,11.46,16.83,12.41,24.59,2.14,17.43,3.28,39.19,4.1,56.9.18,3.82-.09,7.67,0,11.48l-4.67-29.82c-.28-2.77-3.16-4.72-4.16-1.52-1.16,3.72.2,13.07-.17,17.83-2.01,25.62-9.82,45.74-8.03,73.05,2.21,33.7,25.27,72.02,22.03,103.95-2.27,22.34-21.5,11.69-29.81-1.16-36.4-56.25.4-155.38-6.3-220.7-1.09-10.64-3.22-21.31-5.89-31.62-1.92-.3-2.67.79-2.98,2.5-1.92,10.54,1.71,26.36,1.04,38.04-1.56,27.12-14.14,58.4-20.96,85.04-10.99,42.94-16.1,80.18-6.4,124.24,18.17,82.49,107.88,131.36,84.64,226.01-3.56,14.49-13.6,33.78-30.82,21.17-17.95-13.14-9.25-54.32-8.46-73.45.82-19.87.76-42.59-8.54-60.52-3.6-.09.36,18.34.49,20.49,1.87,31.56-17.8,66.6-19.98,99-1.95,28.99,16.81,83.57-2.5,106.5-10.42,12.37-32.44,9.76-47.05,9.95l-45.35,2.93-56.59-1092.88-536.02,400.98c-2.28,13.77-.96,27.68-1.45,41.55-1.18,33.24-1.96,66.6-3,100l-18.04,583.46-45.01,1,3-84.52c.25-6.99-.28-14.04-.03-21.03,6.87-195.55,14.41-392.09,22.08-587.92.32-8.27-1.34-22.47.96-29.81.39-1.24,2.56-.73,3.02-3.19.95-5-1.03-18.23,1.48-22.53,1.12-1.92,8.69-5.05,9.98-8.02,1.37-3.16-.18-7.06,2.84-10.67l555.67-446.31,1.51,8c.81,1.2,1.51,1.22,2.83.85,2.71-.77,21.65-18.88,22.66-17.85l2.94,29.57c3.12,2.26,6.74-3.04,9.54-4.6,9.63-5.36,13.23-4.88,22.83.23,6.73,3.58,20.93,15.56,26.69,17.25,1.09.32,1.92-.37,2.94-.51Z"/>
        <path d="M1542.87,1004.13c-3.06,48.48-37.5,24.05-37.86-9.13l37.86,9.13Z"/>
      </g>
    </g>
  </g>
  <g id="_x32_12V_TIGER" class="st0">
    <g id="STRIPES1" data-name="STRIPES" class="st0">
      <g>
        <path d="M1452,1166.99l2.8,40.31c-1.17,3.84-17.73,7.92-21.97,9.02-23.09,5.99-50.56,7.78-72.61,15.39-8.09,2.79-15.68,8.36-23.54,11.46-20.72,8.17-50.62-5.11-72.3-8.06-15.93-2.17-32.57-1.92-48.72-4.28-23.65-3.46-47.11-13.58-71.12-14.88-30.18-1.62-46.8,17.35-75.54,21.04l-1.55-71.04c21.04-7.76,36.75-18.76,59.36-22.64,36.51-6.27,40.67,1.86,72.19,10.18,7.67,2.02,15.1,2.64,22.95,5.05,19.65,6.03,33.02,18.1,54.55,19.45,44.16,2.78,84.25-8.82,127-10.98,16.22-.82,32.35,2.51,48.49-.01Z"/>
        <path d="M1418.35,1515.35c-21.61,21.68-34.84,46.06-60.44,65.06-36.53,27.11-68.61,26.61-111.1,33.9-28.36,4.87-51.83,24.77-77.81,35.68-.92-13.93,10.16-26.02,19.98-34.51,6.67-5.77,14.59-9.58,21.33-14.67,27.06-20.46,62.07-42.7,86.21-64.79,37.1-33.94,63.36-72.23,108.8-97.2,21.48-11.8,44.43-18.06,66.66-27.83l4.53,64.02c-21.48,10.7-41.19,23.3-58.17,40.33Z"/>
        <path d="M1464.83,1331.84c-6.4,3.01-13.34,5.53-19.5,8.99-22.32,12.55-33.06,33.68-55.64,45.36-31.55,16.31-57.36,6.71-89.72,13.28-25.43,5.16-42.01,17.81-64.28,25.72-9.27,3.29-27.54,3.71-19.55-10.56,8.79-15.7,49.1-32.72,64.78-44.22,14.68-10.76,25.71-25.12,39.07-36.93,39.13-34.56,98.69-34.38,139.52-66.48l5.33,64.83Z"/>
        <path d="M1413.99,705c-43.89-30.32-80.05-69.4-117.02-107.47-15.77-16.24-30.2-33.81-46.96-49.04-43.49-39.53-92.84-75.62-146.25-100.47-3.23-2.94-3.94-8.86-3.76-13.01,51.3,10.56,98.61,36.97,141.72,65.78,56.86,37.99,108,83.63,163.31,123.69l2.91,5.09,6.05,75.44Z"/>
        <path d="M1028.99,391.01l1.16,46.34,14.35,8.65.49,13.01c14.06,1.88,29.28-6.48,42.7-1.2,6.6,2.6,18.58,15.52,23.81,21.19,34.28,37.14,58.48,86.83,107.24,106.76,8.59,3.51,20.08,3.17,21.2,14.87,2.05,21.45-39.55-1.19-47.62-5.45-32.93-17.36-56.21-38.08-85.39-59.61-5.34-3.94-12.84-9.82-19.43-10.57-12.46-1.42-27.36,3.22-39.49,6l-2.02-69.99-59.74,37.85-22.79-14.87-.43-2.33c4.25-17.12,3.34-36.86,11.52-52.6l54.44-38.05Z"/>
        <path d="M1203.98,898.02l3.95,70.91c-7.6,1.56-15.01,4.56-22.69,5.8-40.12,6.5-60.32-19.84-95.22-30.24-9.69-2.89-20.57-3.76-29.84-8.65l-2.16-73.83c13.79,4.31,29.77,7.82,42.98,13.51,10.2,4.4,18.62,12.45,28.64,17.36,24.83,12.18,47.93,9.96,74.36,5.14Z"/>
        <path d="M1075,1423l-2-69c35.11,3.58,67.25-7,98.03-22.47,13.32-6.7,26.7-13.24,40-20,10.79-5.49,36.91-25.35,46.48-25.6,20.68-.53,4.98,20.91-2.01,28.07-13.11,13.44-31.15,20.71-44.97,32.03-9.39,7.69-19.15,20.58-28.51,29.49-18.73,17.84-54.48,47.49-81.51,47.49h-25.5Z"/>
        <path d="M1198.99,792c-17.63-4.53-35.24-9.37-52.98-13.51-11.89-2.77-38.56-10.62-49.26-9.22-13.1,1.71-28.44,12.79-41.75,15.73l-.9-57.9c12.88-1.74,27.98-12.11,40.41-13.09,10.95-.86,49.51,12.59,62.26,16.72s25.87,8.52,38.56,13.44l1.52,1.48,2.16,46.34Z"/>
        <path d="M1242.99,1452.02c1.59,13.27-7.91,25-17.52,32.96-14.42,11.95-40.69,15.63-58.99,22.01-29.14,10.15-56.06,26.05-88.49,24.02l-2-59c13.1-1.13,26.39-.91,39.49-2.01,16.97-1.43,34.06-5.02,51.02-5.98,16.43-.93,30.84,3.56,46.16-2.84,10.03-4.19,18.31-11.85,30.31-9.16Z"/>
        <path d="M1199.86,668.86c-11,2.11-19.73-7.02-29.65-9.56-11.13-2.86-25.38-3.07-37.39-5.61-10.93-2.31-29.94-10.1-39.48-10.3-6.33-.13-15.22,2.66-21.85,3.6-6.68.95-13.57.11-20.48,3.01l-1-57.99c12.49,4.43,26.86,3.6,39.26,6.24,8.73,1.86,14.41,8.51,21.82,13.18,22.63,14.23,42.55,17.37,66.43,26.57,13.29,5.12,30.27,13.73,22.34,30.88Z"/>
        <path d="M1419.99,781c-4.23-4.28-9.58-7.5-14-11.49-23-20.74-39.19-40.78-65.67-59.33-24.12-16.89-48.86-25.28-72.35-39.65-3.43-2.1-7.8-5.04-8.76-9.25-2.36-10.35,6.9-8.41,13.82-6.82,19.32,4.43,42.55,18.18,62.32,23.68,11.16,5.6,22.03,11.74,32.56,18.44,12.18,7.76,34.52,22.07,44.58,31.42,2.22,2.06,3.8,4.55,4.44,7.56l3.05,45.44Z"/>
        <path d="M1443.99,1073c-3.56-1.37-7.44-2.11-10.98-3.51-9.75-3.86-21.78-12.14-31-15-4.07-1.27-29.07-4.34-29.88-5.62l-1.68-40.87c20.36-10.32,42.33-19.41,65.59-19.54l7.95,84.55Z"/>
        <path d="M1064,1065l-1-43.01c5.11.27,10.39-.36,15.49.02,17.66,1.33,35.36,3.42,53.02,4.98,11.44,1.01,28.16.55,38.74,3.26,8.4,2.15,12.77,13.31,6.25,19.75-12.03,11.9-57.97,4.58-76.14,8.86-5.36,1.26-10.73,4.37-15.98,5.02-6.29.78-13.91.31-20.39,1.12Z"/>
        <path d="M663.95,1436.05l-.96,58.95c-8.67-.92-21.17-.78-28.72-5.77-1.05-.7-14.75-15.83-16.24-17.76-1.12-1.46-2.64-3.18-2.98-5.02l1.96-59.45c8.1,5.76,12.41,15.44,20.69,20.8,7.8,5.05,17.14,7.05,26.25,8.25Z"/>
        <polygon points="678.99 782 678.01 843.01 650.7 842.2 633.01 859 634.54 807.04 651.99 784.49 678.99 782"/>
        <path d="M661.86,1526.14l-.97,41.76c-10.51,2.42-22.18.58-32.22,4.91l-16.5-6.97,1.83-47.83c.87-.93,17.57,4.44,20.6,4.89,3.8.55,25.85,1.02,27.26,3.25Z"/>
        <path d="M880,496.01l-8.9,48.34,24.89,13.64-31.41,19.03-24.47-10.12c-.21-2.76-.25-5.61-.11-8.38.44-8.68,1.39-24.73,3.22-32.78.69-3.05,2.52-6.07,4.83-8.17l31.94-21.55Z"/>
        <path d="M668.95,1210.04l-.96,46.96c-17.53-3.69-32.58-3.64-46.98,8l1.93-50.56c12.97-13.89,29.96-7.36,46.01-4.4Z"/>
        <path d="M680.99,718.01l-2,51-27.28-2.8c-2.52.76-10.54,10.87-13.7,13.3-1,.77-1.27,1.94-3,1.49.18-2.58,1.05-4.79,1.08-7.48.11-10.92-1.55-26.65-.13-37.06.81-5.97,13.59-16.21,17.77-21.27l27.27,2.82Z"/>
        <path d="M1430.99,916c-21.57-15.17-42.97-34.02-69.98-38.01l-1.01-19c8.93.55,18.66-.75,27.49.02,12.66,1.1,25.49,6.26,38.57,5.43l4.93,51.56Z"/>
        <path d="M670.99,1134c-15.27-5.16-30.51-13.42-45.98-4,.53-5.92-.21-39.83,2-42.49,2.43-2.94,13.58-6.57,17.49-6.58,2.79,0,26.26,4.88,27.06,6.01l-.57,47.06Z"/>
        <path d="M813,543.01c-3.72,13.95-3.16,28.94-4.86,43.32l25.84,11.17-26.46,17.11c-4.06-1.66-25.38-7.46-26.36-10.27-.41-1.17-.24-2.56-.18-3.8.4-7.36,1.18-16.61,2.14-23.92.82-6.25,1.2-13.28,6.39-17.61l23.49-16Z"/>
        <path d="M933.17,504.84l22.83,14.15-18.46,10.94-27.6-10.54c.14-9.24.19-18.69,1.07-27.88.45-4.65.95-13.51,2.57-17.43,3.27-7.88,21.49-16.58,28.41-22.08l-8.82,52.84Z"/>
        <path d="M630,940.5c.37-1.81,7.01-12.29,8.59-14.41,1.02-1.37,8.7-10.09,9.48-10.52,6.27-3.48,20.27-1.12,27.42-3.58l-.48,38.02c-7.87-.04-20.23.45-27.27,4.23-4.98,2.68-11.66,14.26-17.25,17.76-3.29.16-.49-2.03-.49-2.49,0-7.43-1.27-22.73,0-29Z"/>
        <path d="M673.87,1017.13l-.88,35.86-27.48-4.06-18.51,8.07,1.02-31.47c.68-3.63,13.75-11.86,17.53-12.46,3.33-.53,27.36,2.59,28.31,4.07Z"/>
        <path d="M721,608v38l27.01,7.5-24.91,16.02-26.64-7.48c-.79-1.19-.78-25.22-.5-28.58.99-11.7,5.85-13.2,14.72-19.28,3.17-2.17,6.69-4.97,10.32-6.18Z"/>
        <path d="M752,1582.01l-16.51,1.98-16.26,1.25c-3.84,17.41-14.51,34.51-11.24,52.75-4.49-1.85-25.97-3.93-27.52-6.99-1.28-2.52.33-6.34,1.02-9.01,3.37-13.02,10.38-26.44,12.58-39.92l31.38-2.13,26.54,2.06Z"/>
        <path d="M772,572.01l-4.85,42.28,3.14,2.92,19.7,9.78-26.51,16.03-17.32-13.74-.13-2.63c5.06-11.65,1.55-35.19,10.07-44.04l15.89-10.6Z"/>
        <path d="M666,1369c-16.18-2.6-31.18-10.82-47.99-5l1.58-22.11c15.15-4.99,31.74-7.62,47.42-3.87.03.68-1.01,1.24-1.01,1.49v29.5Z"/>
        <path d="M705,1575.01l-11.51,1.98-24.33.17c-5.84,16.04-17.41,31.37-18.16,48.84-12.55-.08-13.14-4.62-11.87-15.39,1.39-11.8,6.58-24.36,8.82-36.18l35.55-2.23,21.5,2.8Z"/>
        <path d="M1404.99,593c-17.76-14.77-40.59-26.5-57.46-42.03-1.94-1.79-17.42-18.23-15.52-19.97,5.01.5,9.61,4.06,13.91,6.58,14.93,8.76,29.25,20.5,44.4,28.6,6.06,3.24,12.45,2.04,13.59,10.41.72,5.31-.11,11.07,1.08,16.41Z"/>
        <path d="M698.99,685.01l-14.48,9.55-25.06-7.52c-.88-1.31-.89-28.17-.48-31.57.89-7.45,7.52-9.72,13.01-13.48l1.47,35.04,25.53,7.97Z"/>
        <path d="M1396.85,933.14c7.64,20.54-18.78,15.25-30.21,11.91l-2.64-22.05c10.85,3.39,20.74,10.4,32.85,10.14Z"/>
        <path d="M1304,1045.01c-.35,1.95-2.12,1.63-3.46,2.03-3.57,1.07-7.65,1.5-11.33,2.67s-12.56,5.74-15.66,5.31c-5.01-.69-7.99-11.52-7.55-16.03l37.99,6.01Z"/>
        <g>
          <path d="M894.99,1603.01l-31.95,3.04c-1.33,18.46-8.74,39.21-8.07,57.48.05,1.34.56,2.29,1.02,3.46l-46.41-9.08c-6.14-1.56-7.15-6.78-7.63-12.37-1.27-15,.54-32.47.62-47.65l33.8-3.78,58.61,8.91Z"/>
          <path d="M1046,1624.01c-.58,1.38-5.1,1.66-6.62,1.87-3.7.51-25.09,1.83-25.94,3.06l-4.2,62.33,2.76,6.73-47.43-9.06c-5.91-1.43-4.91-8.47-4.55-13.42.96-13.45,4.69-34.14,7.08-47.92.23-1.34.84-4.46,1.87-5.13l35.52-3.91,41.51,5.46Z"/>
          <path d="M1081.01,1632c.16,2.71-.44,5.6.24,8.26,1.88,7.43,14.23,21.27,16.98,29.02,2.5,7.05-1.44,19.93-1.23,27.73l-15-2.01c-.43,5.95.23,11.36,2,17-11.44-3.34-35.97-.2-36.03-16.45l4.03-60.55,29.01-3Z"/>
          <path d="M949,1610.01c.2,1.45-2.71,1.53-3.77,1.71-3.48.59-24.41,2.35-25.08,3.43-.54,6.74.23,13.59-.15,20.35-.58,10.38-2.71,21.73-3.03,31.97-.15,4.86.51,8.03,2.03,12.54-8.44-3-18.59-3.11-27.03-5.46-5.35-1.5-6.64-2.87-6.69-8.77l9.66-54.34,36.61-3.47,17.45,2.05Z"/>
        </g>
      </g>
    </g>
    <g id="BODY2" data-name="BODY" class="st0">
      <g>
        <path d="M830,1593.01c-.13,1.42-4.45,1.74-5.62,1.87-7.71.87-15.67.68-23.33,2.17,1.06,15.84-1.61,33.86-.04,49.44.39,3.92,1.53,7.44,3.99,10.5l-94.99-19.5c-2.69-1.74-2.18-5.16-1.99-7.97,1.04-15.4,9.15-29.45,12.08-44.42l36.42-2.17,73.48,10.08Z"/>
        <path d="M667.86,1258.14l-1.87,78.86c-15.66-4.03-31.92-.68-46.99,3.99l2.5-74.99c13.56-11.63,29.6-11.92,46.36-7.86Z"/>
        <path d="M668.99,1210c-15.11-5.32-33.22-9.22-45.98,3l1.99-80.5c.71-3.9,13.6-6.39,17.24-6.24,3.02.13,27.41,7.37,28.3,8.7l-1.55,75.04Z"/>
        <path d="M999.99,1618.01l-32.85,4.13c-.8,17.48-6.91,36.33-8.12,53.38-.3,4.22-.84,9.15,1.98,12.47-11.1-3.17-25.77-3.51-36.4-7.08-7.36-2.47-6.85-7.59-6.63-14.45.34-10.48,2.41-22.27,3.03-32.96.19-3.34-.84-16.86.94-18.06l31.57-4.22,46.49,6.8Z"/>
        <path d="M677.97,844.04l-1.97,67.97c-7.15.43-21.69-.75-27.93,2.57-2.5,1.33-9.62,9.81-11.51,12.49s-2.81,6.96-5.55,8.93l.95-65.54,1.56-10.44,17.43-16.57,27.03.59Z"/>
        <path d="M665.96,1370.04l-1.95,63.49c-.22,1.49.59,1.6-1.49,1.48-3.72-.22-11.88-2.23-15.49-3.53-13.62-4.92-19.02-15.46-28.89-25.11-2.93-5.58-.19-12.29-.09-17.83.12-6.24-1.06-16.55-.04-22.04.23-1.22.31-1.93,1.65-2.35,2.63-.82,10.8-1.24,13.84-1.13,11.4.38,21.32,5.76,32.47,7.03Z"/>
        <path d="M936,530.01l-1.27,2.28-37.28,23.71c-3,.3-24.82-10.39-25.23-12.6,3.34-12.25,2.62-36.64,8.57-47.1,4.67-8.22,24.67-16.82,31.71-24.29l-3.49,31.51.15,15.83c.85,2.5,22.77,9.5,26.84,10.67Z"/>
        <path d="M675.01,950.99l-1.01,65c-8.35-.98-20.22-5.23-28.44-3.93-5.64.89-12.97,7.58-17.55,10.93-.92-5.55.86-11.28,1.03-16.46.26-8.03-1.58-25.6,1.12-31.88.78-1.81,15.97-18.51,17.54-19.46,3.28-1.99,25.59-5.92,27.31-4.2Z"/>
        <path d="M972,431.01l-10,51.47c.37,3.92,18.53,13.52,21.98,17.01l-27.41,17.53-22.41-13.69c-1.11-3.14,3.18-25.51,4.15-30.53,1.36-7.02,2.23-17.7,6.84-23.16l26.85-18.64Z"/>
        <path d="M927,1607.01l-9.5,1.99-24.45,2.05c-.42,16.86-6.48,34.02-7.99,50.54-.37,4-.97,7.6.94,11.41-5.14-1.61-26.3-3.69-29.01-6.48-1.28-1.32-1.72-4.85-1.71-6.74l8.94-52.57c21.2-3.15,41.63-3.86,62.78-.19Z"/>
        <path d="M842.99,522.01l-3.86,44.36.86,1.14c6.96,3.09,14.06,5.93,21,9.05.8.36,2.85.23,2.01,1.94-.67,1.36-23.48,16.07-25.28,16.75-1.14.43-1.75.78-3.11.73-1.85-.07-24.72-7.98-25.43-9.13,1.13-14.49,1.46-29.4,4.62-43.55l2.18-2.82,27.03-18.46Z"/>
        <path d="M661.99,1525c-8.73-2.68-18.78-1.85-27.39-3.1-6.64-.96-13.58-4.44-20.51-4.99l.91-46.9c12.28,10.75,14.88,21.75,32.75,24.74,2.93.49,13.94-.02,14.81,1.2l-.57,29.06Z"/>
        <path d="M658,687.5l24.99,7.51c.48,1.65-1.99.87-1.99.99v19.5c0,.5-1.65,1.65-2.49,1.53l-24.79-2.85-16.72,16.82v-30.5c0-1.84,3.79-3.4,4.01-4.21.66-2.46-.27-7.63,0-10.77.23-2.68.89-12.15,1.5-13.5,1.37-3.01,9.78-5.98,10.99-8.01,1.67-2.82-.88-10.25,5.01-12.99,1.64.74-.5,2.33-.5,2.5v34Z"/>
        <path d="M726,1578.01c.18,1.46-2.62,1.79-3.58,1.9-8.82.95-18.73-.41-27.79,1.22l-15.2,44.84.57,6.03-27.85-6.13c-3.45-5.42,14.61-40.28,17.84-47.37l56-.48Z"/>
        <path d="M752,586.01l-7.64,43.53,17.63,13.96c.02.64-9.18,7.04-10.4,7.57-7.25,3.14-21.26-5.3-29.53-5.11.71-11.1-1.1-23.58-.09-34.5.39-4.27.97-5.12,4.12-7.88l25.92-17.57Z"/>
        <path d="M672.86,1054.14l-.87,31.86c-15.78-4.2-31.68-10.41-45.98,1l1.96-29.53,18.57-7.52,26.33,4.19Z"/>
        <polygon points="695.14 662.86 721 670.5 699.46 683.97 674.13 676.87 673.44 641.93 695.99 625 695.14 662.86"/>
        <path d="M677,1571.01l-10.51,1.98-20.35,1.15c-.45,9.97-4.71,19.33-6.68,28.82-1.43,6.88-3.22,14.4-.47,21.03-10.45-.26-9.24-6.4-10.95-14.54l-12.48-3.43.5-29.42-3.95-2.22-.11-7.38,16.5,6.95c8.39-2.82,22.21-5.06,31.04-4.99,5.49.04,11.73,2.69,17.45,2.05Z"/>
        <polygon points="806 615.01 790.5 625.65 767.97 614.29 772.48 572.98 784.5 562 780.14 605.37 806 615.01"/>
        <path d="M635,784.5c.51-2.36,15.26-16.57,17.72-17.29l26.14,2.93-.8,11.42-25.36,1.64-18.69,21.8c-.62-1.45.99-2.91.99-3.5,0-4.44-.79-13.32,0-17Z"/>
        <g>
          <path d="M1454.99,1210l3.72,56.71c-37.08,28.2-87.83,31.19-126.63,55.87-17.03,10.83-32.92,32.37-49.61,45.39s-37.94,20.61-54.95,34.05c-5.96,4.71-19.36,15.1-12.55,23.51,3.79,4.68,17.07,2.26,22.27.21,20.02-7.92,35.56-18.53,57.94-24.06,42.08-10.41,70.2,6.07,109.72-24.28,11.43-8.77,18.96-20.58,30.77-29.23,8.84-6.47,18.87-10.74,28.82-15.19l6.4,77.91c-24.89,9.41-50.21,17.62-73.19,31.3-38.33,22.83-62.53,55.87-94.17,85.83-26.55,25.15-61.83,47.87-91.61,70.39-12.72,9.62-27.53,16.47-36.9,30.1-4.85,7.05-6.89,13.58-7.95,22.05-11.79,1.11-24.78,5.24-36.52,5.48-7.96.16-15.57-2.59-23.55-2.05l2,45-10.88-2.11c-.86-1.35,2.81-21.25,1.67-26.18-1.63-7.1-14.07-21.56-17.17-29.82-1.36-3.6-1.93-7.02-1.62-10.89l-29.55,4.94c-.29,2.85-1.16,5.74-1.42,8.58-1.35,14.21-2.71,31.78-3.05,45.94-.15,6.22-.19,11.53,4.04,16.54-7.42-3.18-32.97-4.2-37.98-8.51-3.15-2.71-3.18-10.17-3.06-14.03l4.03-54.46,36.5-3.99,30.51,4-3.01-97.01c6.82.3,13.61-.24,20.36-1.14,27.83-3.7,52.32-17.65,78.68-26.32,24.45-8.04,48.35-9.22,62.76-34.24,3.63-6.3,9.06-20.06-2.3-20.1-9.52-.03-17.47,6.98-25.52,10.28-14.21,5.82-30.94,1.65-46.47,2.53-16.96.96-34.04,4.61-51.02,5.98-12.25.99-24.61.72-36.85,1.89l-1.65-2.38-1-44.51c32.85,3.26,60.32-7.96,85.48-28.02,19.12-15.26,34.93-36.56,53.05-50.95,14.91-11.84,52.37-29.23,55.42-50.6,1.22-8.57-8.12-10.42-15-8.98-10.27,2.14-33.24,20.27-44.89,26.1-12.73,6.36-25.34,12.55-38.02,18.98-30.67,15.55-63.11,25.81-98.03,22.48l-3.89-114.9c9.08-2.23,18.47-3.72,27.16-7.35s15.46-8.82,25.52-11.48c30.34-8,63.89,8.14,93.88,12.55,15.81,2.32,32.09,2.19,47.71,4.29,19.84,2.66,53,15.57,71.31,9.06,10.28-3.65,18.8-10.3,30.32-13.68,29.45-8.64,61.51-9.26,89.99-21.51Z"/>
          <path d="M1065,406.5c1.37,4.66,10.64-3.31,12.75-4.24,4.66-2.06,8.57-2.15,13.47-.97,5.47,1.31,32.1,16.04,33.79,15.27,1.28-.58,2.06-2.62,2.06-4.03-.88-10.61-1.55-21.35-2.12-31.98-.08-1.59-.88-7.23,1.51-6.52l241.58,120.42c4.91,5,3.8,32.42,5.11,40.39,5.07,3.51,24.18,9.55,26.88,13.62,3.25,4.9,1.57,16.45,2.95,22.54-7.32-3.89-14.76-7.31-21.91-11.58-13.07-7.81-26.01-18.57-39.41-25.59-3.32-1.74-6.78-4.11-10.67-3.82-2.9,2.83,15.16,21.03,17.98,23.51,15.07,13.29,34.9,23.15,49.93,36.07,6.04,5.19,6.06,7.13,7.07,14.93.8,6.16,1.12,14.36.52,20.48-51.49-38.28-99.92-80.77-152.78-117.22-46.74-32.22-98.39-62.76-154.72-73.78-.4,6.28.18,11.19,5.08,15.42,6.8,5.87,27.16,13.14,36.59,18.41,41.58,23.22,92.97,64.62,126.36,98.64,47.27,48.18,90.81,100.3,146.02,139.98,2.68,7.46,2.11,15.74,2.46,23.54-1.57-1.41-2.86-3.17-4.57-4.43-14.7-10.84-29.93-21.91-45.42-31.58-30.73-19.2-66.36-32.18-101.05-41.81l-5.87,1.72c-2.25,6.01.73,11.87,5.48,15.54,10.72,8.29,35.02,16.63,48.6,24.4,38.31,21.92,57.02,42.94,87.78,72.22,6.57,6.25,19.17,12.25,20.46,21.54,3.38,24.24,2.39,50.51,6.12,74.89l-.04,1.52c-22.6-2.07-43.93-7.85-66.89-6.11l-10.22-125.28c-1.04-5.67-3.27-11.45-7.94-15.06l-140.95-49.56c7.08-14.85-7.76-24.72-19.73-29.75-21.76-9.13-43.15-11.97-64.57-24.43-9.01-5.24-17.32-14.32-27.45-16.55-12.38-2.73-26.72-1.67-39.14-6.35l-1.66-58.96c12.59-2.84,33.17-9.57,45.23-4.12,14.95,6.76,38.71,30.33,54.01,40.99,17.01,11.86,62.56,40.81,81.96,42.08,13.89.91,13.96-13.95,6.6-19.92-3.78-3.06-22.24-7.78-29.26-11.46-37.5-19.63-64.19-67.33-92.47-98.53-5.96-6.58-19.76-21.82-27.54-24.46-13.24-4.48-27.32,2.86-40.98,1.48l-1.22-13.77-13.81-6.9c2.39-13.39-3.53-33.18-.75-45.62.62-2.77,8.84-9.69,11.31-10.7,1.35-.55,1.59,0,1.33,1.31-.62,3.11-2.3,7.1.68,9.68l19.98-14c.29-.14,1.5,2.35,1.5,2.5,0,5.35-1.07,22.36,0,26Z"/>
          <path d="M1207.99,970c.24,4.81-.29,9.72-.03,14.54.52,9.9.51,30.57,4.31,38.69,2.17,4.64,4.79,6.92,9.69,8.31,13.12,3.73,29.08,3.71,42.47,7.34.65,4.98,2.95,16.2,8.54,17.7,1.64.44,25.67-9.05,32.55-9.56,15.31-1.14,50.12,11.41,61.06,7.06,2.45-.98,3.77-3.87,5.84-3.99,2.75-.16,26.11,4.31,29.6,5.4,6.13,1.91,14.92,7.78,21.31,10.69s13.58,5.54,20.48,8.02l7.2,91.8c-15.82,2.61-31.6-.79-47.5,0-42.78,2.15-82.81,13.76-127,10.98-20.7-1.3-32.85-12.23-51.55-18.45-8.49-2.82-16.84-3.56-25.17-5.83-14-3.82-27.58-11.71-42.24-12.76-15.68-1.12-40.73,2.68-55.23,8.87-4.71,2.01-32.69,17.77-35.32,15.18l-3-99c6.22.59,15.17.72,21.41-.09,5.1-.66,11.34-4.28,16.55-5.45,20.24-4.55,55.49,4.27,72.99-7.01,10.17-6.55,5.64-20.54-4.7-23.2-4.91-1.26-13.35-1.7-18.76-2.24-24.31-2.45-48.76-3.94-73.01-5.99-5.04-.43-10.42.27-15.49-.01l-2.99-84c9.37,4.72,20.35,5.6,30,8.49,30.21,9.05,54.97,34.45,88.36,31.38,10.04-.92,19.81-4.88,29.62-6.87Z"/>
          <path d="M1476.99,1477l10.04,118.51-1.74,2.29-28.86,5.17,3.65,43.52-3.11,9.99-275.98,55.51c-.11-2.93,1.13-5.51,1.09-8.49-.13-9.8-1.71-21.07-2.13-30.96-.16-3.82.77-21.91-1.06-23.44-.94-.78-4.11,1-3.89-1.09,23.7-10.45,45.66-28.08,71.81-32.69,33.67-5.94,63.67-5.96,94.85-23.15,42.76-23.57,60.74-66.41,98.41-94.59,11.06-8.27,24.12-15.6,36.91-20.58Z"/>
          <path d="M1198.87,793.14l5.13,103.85c-24.83,4.38-45.5,7.09-69.35-3.13-12.3-5.27-22.1-14.4-33.66-19.34-13.3-5.68-29.08-9.05-42.85-13.65-1.4-13.79-.76-27.57-1.09-41.41-.06-2.37-1.04-4.55-1.08-6.92-.12-6.43-.98-19.46.04-25.04.2-1.12.49-1.91,1.59-2.41,12.55-2.89,26.78-13.2,39.17-14.82,10.51-1.37,36.76,6.3,48.46,9.02,17.98,4.18,35.85,9.05,53.65,13.85Z"/>
          <path d="M1196,670.01c-3.84,8.23-1.24,16.25-.96,24.45.57,16.54.93,32.99,1.95,49.54-13.13-5.43-26.69-9.92-40.22-14.27-12.78-4.1-51.33-17.58-62.26-16.72-6.28.49-39.09,14.58-40.51,12.99l-1.41-75.11c6.17-3.35,12.8-2.02,18.89-2.9,6.87-1,15.92-3.83,22.54-3.51,9.01.43,23.98,6.99,33.78,9.21,13.43,3.04,30.28,3.25,42.41,6.59,8.64,2.38,16.5,9.85,25.78,9.73Z"/>
          <path d="M1436.99,988c-1.52-.7-2.67-1.12-4.43-1.05-5.17.22-15.26,2.3-20.57,3.55-14.55,3.41-28.57,10.15-41.99,16.5l-4-61c7.34,1.95,25.69,5.89,31.49-.01,2.23-2.27,2.31-11.92-.48-13.51-1.43-.82-12.79-2.14-16.55-3.45-2.09-.73-15.42-7.12-15.97-8.03l-3.48-42.01c26.65,3.84,47.74,22.57,69.02,37.47l1.98,6.02,4.99,65.5Z"/>
        </g>
      </g>
    </g>
  </g>
  <g id="_x32_12V_SHOCK" class="st0">
    <g id="BOLT1" data-name="BOLT">
      <g>
        <g>
          <path d="M1332,1050.01l-8.98,23.96,90.89,15.42-268.33,519.68c-21.52,5.38-43.89-1.29-65.56-3.08l-1.01-62.99c8.73.72,61.79,5.99,65.1,1.38l110.87-373.89-99.97-10.49,57.52-133.97c1.55-2.36,2.2,1.83,4.52,3.43,1.7,1.17,3.75,1.78,5.74,2.26l109.22,18.29Z"/>
          <g>
            <path d="M1403.99,579l-6.43-2.97-1.63,2.4-45.92,159.56c.08-7.75-2.08-16.2-8.66-20.85-16.75-6.54-34.24-11.49-50.97-18.06-1.01-.4-1.76.55-1.33-1.53l99.96-154.11c1.6-1.01,9.03,2.47,10.39,3.64,4.51,3.87,2.21,25.43,4.59,31.9Z"/>
            <polygon points="1204.99 921 1152 909.99 1200.01 834.01 1201.99 839.51 1204.99 921"/>
            <polygon points="1403 876 1367.01 964 1360 865.01 1403 876"/>
          </g>
        </g>
        <path d="M663.01,1500.99l-1,43.01c-16.67.55-32.36,3.59-49-.01l.99-43h49.01Z"/>
      </g>
    </g>
    <path id="TOP1" data-name="TOP" class="st0" d="M1065,406.5c1.31,4.45,10.45-3.28,12.76-4.24,15.29-6.35,32.82,10.05,47.26,14.29,3.89-2.86,1.08-6.68.99-10.07-.22-8.43-.61-16.61-1.05-24.95-.09-1.66-.9-8.24,1.51-7.52l240.88,120.12c6.33,5.3,4.05,31.24,6.14,39.86l14.51,7-100.13,156.91-85.63-29.73c-12.09,1.98-7.49,16.08-7.21,24.27,1.59,45.96,3.99,91.88,5.91,138l-49.94,79,54.09,13.15,5.13,94.66,2.39,6.24-58.15,133.47-.48,4.02,99.03,10.51-109.91,371.91c-21.56,4.49-43.44-1.46-65.12-1.41l-32-1081-5.91,2.58-359.1,233.12-17.92,801.68c-.7,2.57-43.66,3.46-49.08,1.08-.09-3.36.93-6.56,1.02-9.9,7.16-262.9,15.09-525.19,21.94-788.13-.28-3.31,3.45-3.94,4.03-6.97,1.16-6.02-.28-16.15,1-22.78.27-1.18,10.5-5.96,11.52-7.7,2.44-4.11-2.09-6.87,5.59-13.41l382.43-269.57c1.63-.13,1.66-.27,1.33,1.31-.7,3.4-1.86,6.49.67,9.69l19.5-13.53,1.98,1.01v27Z"/>
    <g id="BOTTOM1" data-name="BOTTOM" class="st0">
      <path d="M1081,1607c21.4,2.24,42.76,7.5,64.33,3.83l1.57-1.43,267.93-520.08.19-2.31-91-13.01,8.99-22.52c13.83-1.39,39.26,13.96,39.8-9.98.53-23.63-5.6-50.83-5.5-74.87l36.7-89.19-.4-1.47-43.54-12-9.57-123.5c17.32-51.4,27.97-106.12,45.03-157.45,2.3-6.94,1.16-8.41,7.99-2l83.54,1014.5-1.74,2.29-28.86,5.17,3.65,43.52-2.61,9.48-276.46,57.03c1.72-5.92.12-11.17,0-16.51-.35-15.8-.44-31.71-2.05-47.44-15.58.54-32.05,6.43-47.46,6.94-8.45.28-16.11-2.42-24.5-1.99l2,45-26.99-4.99c.02,6.07-.69,12.33,1.99,17.99l-447.2-88.29c-9.47-2.74-6.49-5.74-8.76-14.24l-12.46-3.43.49-29.42-3.62-1.53.55-30.08c16.64,3.58,32.33.57,49,0l-1.05,23.34,2.78,1.38,417.26,59.28v-22Z"/>
    </g>
  </g>
  <g id="_x32_12V_NITRO">
    <g id="FLAMES1" data-name="FLAMES" class="st0">
      <g>
        <path d="M1415,1230.5c2.46,19.45,17,44.6,21.51,65.49,4.89,22.67-1.38,59.55,10.65,78.35,5.45,8.52,11.88,9.03,21.2,7.8l1.64,2.36,17.05,210.98c-.16,2.29-2.18,2.56-4.01,3.06-3.79,1.04-25.02,3.2-25.91,4.59-1.23,17.04,5.98,35.95.75,52.25l-2.86,2.14-274.01,55.48-2.01-64c-17.73,1.37-36.75,8.01-54.48,6.99-3.39-.19-15.38-3.4-17.09-1.05l1.58,44.06-27-4.01c-.27,5.75-.08,11.08,2.02,16.49l-2.49.5-446.51-88.5c-7.31-1.74-5.28-8.5-6.95-13.98l-12.93-2.64.87-30.87h-4.02s5.95-200.38,5.95-200.38c.93-3.51,40.77-.06,46.44-2.54l-3.27,195.82,419.89,60.11-8.01-271.01,72.27-2.23c3.23-.75,5.86-2.56,8.26-4.74,20.2-18.34,9.4-68.27,11.6-93.4,2.8-31.9,19.61-65.03,20.86-98.14.61-16.13-3.95-31.46-8.98-46.49,5.44,6.71,9.07,15.41,12.01,23.48,6.56,18,9.07,33.72,7.97,53.01-2.02,35.53-17.75,75.49-.87,108.89,8.18,16.17,20.75,7.15,25.65-6.1,13.13-35.56,2.77-101.08-8.51-137.04-22.31-71.1-79.95-118.31-75.31-198.78,1.94-33.52,15.75-64.78,19.04-97.96,1.5-15.11.9-30.31,1.02-45.49,1.44-.24,1.39,1.76,1.68,2.79,6.18,21.96,7.33,45.94,6.29,68.69-1.52,33.37-13.3,78.09,5.99,108.03,1.59,2.47,8.18,11.31,10.01,13,4.81,4.43,11.55-5.52,13.56-9.48,16.42-32.41-4.55-114.71-13.62-150.46-12.45-49.08-29.93-93.59-18.43-145.59,5.04-22.8,15.02-44.73,12.52-68.98l5.03,24.45c-1.3,32.12-7.53,63.43,5.79,94.21,3.94,9.11,11.33,13.73,12.15,22.85.5,5.48-.31,11.48-.02,17.02,2.36,44.96,4.86,90.08,7.08,134.92,1.43,28.78.23,62.97,4.07,90.93.55,4.02,2.99,10.25,5.89,13.11,2.54,2.51,7.2,2.21,7.87,4.12-1.94,25.14-1.53,52.87,8.66,76.34,3.1,7.13,6.15,13.06,13.43,16.57,22.68,10.94,23.18-24.12,22.09-38.09l-3.04-48.45,12.77,2.22c3.42,15.61,8.75,54.57,25.23,61.27,25.28,10.27,26.99-37.83,26-52.5,1.13-1.12,26.58,5.16,31.49,5.08,4.03-.06,9.17-1.28,10.58-5.51,1.83-21.19-1-43.84-2.95-65.2-.1-1.12-.92-3.59.87-3.37,1.93,12.91,7.25,25.01,9.71,37.79,4.8,24.94,1.57,37.86-1.55,61.86-1.49,11.5-5.07,41.78,7.47,48.21,18.54,9.51,20.76-30.48,20.36-40.36-2.1-51.7-29.07-105.16-25-156.02.09-1.16.31-4.48,2-4.49,1.48,21.78,5.32,41.04,11.75,61.76,17.23,55.51,48.09,117.54,23.12,175.59-15.05,35-35.49,51.92-31.85,94.13,1.03,12,8.09,49.33,22.57,51.47s14.04-15.12,13.41-24.45c-1.66-24.61-13.72-49.97-7.98-75.51,1.01-.43,1.99,2.33,1.99,2.49,0,5.18-.62,12.13,0,17Z"/>
        <g>
          <path d="M1240,680.99l-30.79-10.21c-6.63-40.15-24.33-81.01-13.92-122,4.27-16.83,12.89-28.9,18.9-44.1,6.76-17.1,3.01-32.97,1.83-50.68,3.49,2.39,3.95,8.75,4.7,12.79,2.79,15.1,5.67,41.63,4.17,56.59-1.76,17.5-9.97,30.41-8.87,50.11,1.95,35.09,20.17,72.19,23.99,107.5Z"/>
          <path d="M1363.01,914c-.22-5.13.28-10.35-.02-15.49-1.79-30.35-7.7-64.34-7.95-94.16-.02-2.05,2.95-7.07,3.68-10.13,3.63-15.34-2.58-44.71-3.71-61.73-.69-10.42-.84-21.05-1-31.49,2.02.39,1.63,2.12,1.98,3.51,1.64,6.36,1.16,14.26,2.13,20.87,6.15,41.66,27.07,80.57,28.91,123.09,1.08,24.93-8.88,46.64-24.03,65.54Z"/>
          <path d="M1328.99,713l-29.05-10.58c3.86-22.09,12.63-45.52,14.11-67.88,1.83-27.71-2.05-56.25-6.03-83.54l13.91,45.57c10.43,37.96,15.14,77.47,7.07,116.42Z"/>
        </g>
      </g>
    </g>
    <g id="BODY3" data-name="BODY">
      <g>
        <path d="M1065,405.5c.09.53,1.17,1.5,1.05,2.47,7.1-1.01,12.45-8.35,20.31-7.91,10.79.6,25.58,12.6,35.61,15.49,1.35.39,2.76.93,4.08.02,1.88-1.31-2.21-37.18-.56-42.56l243.53,122.47c4.03,11.95,2.61,25.93,4.47,38.53l27.28,14.72,68.23,832.28c-6.91-.28-9.64,2.67-15.94-1.57-17-11.45-11.63-56.98-14.38-75.62-4.16-28.11-20.62-53-23.67-81.33-.13-1.2.67-15.51-2-13.48-8.92,29.23,10.44,61.91,7.01,90.52-1.56,13.03-13.27,13.52-21,3.95-9.86-12.2-15.03-45.45-14.01-60.96,2.41-36.86,35.74-66.76,40.86-104.14,7.73-56.41-21.33-109.77-35.59-162.16-4.6-16.89-5.43-33.08-8.3-50.21-2.32,1.35-2.81,7.86-2.98,10.51-3.12,50.99,39.26,141.38,20.76,183.77-6.86,15.72-19.28,9.19-22.5-5.05-5.42-23.97,6.61-53.3,4.71-79.71-1.5-20.83-10.8-39.46-13.87-59.13-2.97-19.02-1.93-39.68-4.14-58.91,5.94-13.77,15.98-25.82,20.48-40.51,12.86-41.98-14.2-94.88-22.97-135.95-2.18-10.21-2.59-33.17-5.75-40.25-.36-.8-.65-1.79-1.73-1.76-.37,3.64-1.13,6.77-1.06,10.53.43,23.08,9.43,65.64,4.56,85.47-.36,1.46-1.07,5.49-2.5,5.99l-6.29-73.21c-3.27-11.18-9.89-10.86-18.64-15.43,11-55.75-4.11-112.13-22.58-164.35-1.18,8.86,2.31,17.8,3.38,26.62,3.11,25.87,4.12,51.68-.35,77.39-2.92,16.81-7.84,33.35-11.54,49.98l-58.52-20.97c-3.57-30.25-15.66-59.29-21-89-5.34-29.66.26-36.24,5.07-63,3.12-17.33-.21-49.47-3.98-67.09-.66-3.07-1.56-9.81-5.56-7.45,1.26,15.07,4.8,32.96-.51,47.48-6.5,17.81-16.76,30.7-21,51-8.29,39.69,8.59,78.29,14.5,117.01-8.74-3.45-13.08-.93-13.97,8.51l3.97,85.49c-13.25-11.12-18-35.73-19.03-52.46-1.33-21.43,4.69-42.64,1.93-63.93-.96-7.38-3.38-15.28-4.9-22.61-1.77.29-1.12,5.21-1.03,6.54,2.24,33.99-14.61,60.54-16,92.92-2.14,49.79,16.45,95.12,27.55,142.53,7.46,31.83,23.14,100.33,8.03,129.06-1.54,2.93-6.39,10.34-9.99,10.01-1.23,0-1.78-.82-2.57-1.54-2.32-2.1-10.58-13.77-12.16-16.84-17.4-33.9-.55-94.26-2.77-133.23-.88-15.41-5.17-30.4-8.05-45.45l-1.98,14.5c4.86,52.95-23.05,101.27-20.05,154.03,3.47,61.12,50.48,109.5,71.06,164.94,14.25,38.38,25.32,101.51,15.31,141.34-1.68,6.68-6.1,21-13.9,22.14-8.8,1.29-11.37-4.91-14.19-11.7-13.1-31.48-1.06-65.04,1.75-97.77,2.47-28.72-1.1-50.94-14.47-76.51l-7.51-11.97c1.95,10.48,6.95,20.21,8.72,30.77,7.74,46.13-21.55,92.82-19.77,140.77.65,17.53,3,29.52-.25,47.66-1.89,10.53-6.9,24.59-18.32,27.68l-72.39,2.12-28.48-895.99-363.31,235.19-15.21,676.8-48.01,1c.19-5.83-.22-11.72-.04-17.55,5.94-198.27,11.67-396.66,18.09-594.91,1.47-18.45-1.49-42.21.91-60.09.54-4,3.46-3.99,4.03-6.97,1.24-6.46-.87-16.24,1.22-23.28l11.59-7.39c-.04-5.7.15-9.84,5.29-13.22l382.43-269.57c1.69-.22,1.6-.09,1.48,1.5-.24,3.06-.85,4.62.02,7.97.19.72-.39,2.31,1.47,1.51,2.57-1.11,10.57-8.04,13.79-10.22,2.02-1.36,4.32-3.44,6.72-3.78.98,8.33-1.33,19.56,0,27.5Z"/>
        <g>
          <path d="M1225,1032l38.33,6.17,1.53,1.47c.53,5.61-.19,11.3.09,16.91.78,15.13,6.13,53.88-2.52,65.4s-22.58.65-27.62-9.27c-11.68-23-12.85-55.54-9.82-80.68Z"/>
          <path d="M1279.01,1041l48.56,8.93c1.85,13.93.54,58.81-22.6,52.6-13.73-3.68-21.19-33.93-23.65-46.34-.43-2.17-2.95-14.43-2.3-15.19Z"/>
        </g>
      </g>
    </g>
  </g>
</svg>