<?xml version="1.0" encoding="UTF-8"?>
<svg id="Layer_1" data-name="Layer 1" xmlns="http://www.w3.org/2000/svg" viewBox="0 0 707 707.22">
  <defs>
    <style>
      .cls-1 {
        fill: #393939;
      }
    </style>
  </defs>
  <path class="cls-1" d="M615.32,0H91.68C41.05,0,0,41.05,0,91.68v523.86c0,50.63,41.05,91.68,91.68,91.68h523.64c50.63,0,91.68-41.05,91.68-91.68V91.68c0-50.63-41.05-91.68-91.68-91.68ZM205.85,640.36c-69.91,0-126.58-56.67-126.58-126.58s56.67-126.58,126.58-126.58,126.58,56.67,126.58,126.58-56.67,126.58-126.58,126.58ZM205.85,320.01c-69.91,0-126.58-56.67-126.58-126.58s56.67-126.58,126.58-126.58,126.58,56.67,126.58,126.58-56.67,126.58-126.58,126.58ZM501.15,640.36c-69.91,0-126.58-56.67-126.58-126.58s56.67-126.58,126.58-126.58,126.58,56.67,126.58,126.58-56.67,126.58-126.58,126.58ZM501.15,320.01c-69.91,0-126.58-56.67-126.58-126.58s56.67-126.58,126.58-126.58,126.58,56.67,126.58,126.58-56.67,126.58-126.58,126.58Z"/>
</svg>