<?xml version="1.0" encoding="UTF-8"?>
<svg id="Layer_1" data-name="Layer 1" xmlns="http://www.w3.org/2000/svg" xmlns:xlink="http://www.w3.org/1999/xlink" viewBox="0 0 253.15 253.15">
  <defs>
    <style>
      .cls-1 {
        fill: none;
      }

      .cls-2 {
        fill: #fff;
        filter: url(#drop-shadow-13);
      }

      .cls-3 {
        fill: #bfb290;
      }

      .cls-4 {
        fill: #29282b;
      }

      .cls-5 {
        fill: #d0b374;
      }

      .cls-6 {
        clip-path: url(#clippath);
      }
    </style>
    <clipPath id="clippath">
      <rect class="cls-1" x="-14.19" y="-377.21" width="1080.03" height="293.15"/>
    </clipPath>
    <filter id="drop-shadow-13" x="-130.97" y="-227.16" width="1315" height="1335" filterUnits="userSpaceOnUse">
      <feOffset dx="0" dy="0"/>
      <feGaussianBlur result="blur" stdDeviation="38.87"/>
      <feFlood flood-color="#000" flood-opacity="1"/>
      <feComposite in2="blur" operator="in"/>
      <feComposite in="SourceGraphic"/>
    </filter>
  </defs>
  <g>
    <circle class="cls-3" cx="126.58" cy="126.58" r="126.58"/>
    <circle class="cls-4" cx="126.58" cy="126.58" r="65.45"/>
    <g>
      <path class="cls-4" d="M164.73,29.09c-10.26-5.28-23.32-8.39-34.87-9-12.28-.65-24.53,2.52-35.95,6.81-1.84.69-3.67,1.42-5.48,2.19-4.59,2.36-11.55,10.51-11.78,15.58.96,4.8,4.65,6.45,7.93,8.89,3.61,3.33,8.84,6.37,13.27,4.32,8.82-4.08,18.59-6.94,28.45-7.16,10.4-.24,19.58,3.16,29.01,7.16,4.43,2.05,9.67-.98,13.27-4.32,3.29-2.44,6.97-4.09,7.93-8.89-.23-5.07-7.19-13.22-11.78-15.58Z"/>
      <path class="cls-4" d="M164.73,224.06c-10.26,5.28-23.32,8.39-34.87,9-12.28.65-24.53-2.52-35.95-6.81-1.84-.69-3.67-1.42-5.48-2.19-4.59-2.36-11.55-10.51-11.78-15.58.96-4.8,4.65-6.45,7.93-8.89,3.61-3.33,8.84-6.37,13.27-4.32,8.82,4.08,18.59,6.94,28.45,7.16,10.4.24,19.58-3.16,29.01-7.16,4.43-2.05,9.67.98,13.27,4.32,3.29,2.44,6.97,4.09,7.93,8.89-.23,5.07-7.19,13.22-11.78,15.58Z"/>
    </g>
    <g>
      <path class="cls-4" d="M224.06,164.73c5.28-10.26,8.39-23.32,9-34.87.65-12.28-2.52-24.53-6.81-35.95-.69-1.84-1.42-3.67-2.19-5.48-2.36-4.59-10.51-11.55-15.58-11.78-4.8.96-6.45,4.65-8.89,7.93-3.33,3.61-6.37,8.84-4.32,13.27,4.08,8.82,6.94,18.59,7.16,28.45.24,10.4-3.16,19.58-7.16,29.01-2.05,4.43.98,9.67,4.32,13.27,2.44,3.29,4.09,6.97,8.89,7.93,5.07-.23,13.22-7.19,15.58-11.78Z"/>
      <path class="cls-4" d="M29.09,164.73c-5.28-10.26-8.39-23.32-9-34.87-.65-12.28,2.52-24.53,6.81-35.95.69-1.84,1.42-3.67,2.19-5.48,2.36-4.59,10.51-11.55,15.58-11.78,4.8.96,6.45,4.65,8.89,7.93,3.33,3.61,6.37,8.84,4.32,13.27-4.08,8.82-6.94,18.59-7.16,28.45-.24,10.4,3.16,19.58,7.16,29.01,2.05,4.43-.98,9.67-4.32,13.27-2.44,3.29-4.09,6.97-8.89,7.93-5.07-.23-13.22-7.19-15.58-11.78Z"/>
    </g>
    <circle class="cls-5" cx="126.58" cy="126.58" r="62.17"/>
    <rect class="cls-4" x="63.55" y="111.18" width="125.19" height="30.8"/>
    <g>
      <path class="cls-5" d="M83.78,129.66v3.23c0,3.89-1.57,6.11-4.6,6.11s-4.6-2.22-4.6-6.11v-12.63c0-3.89,1.57-6.11,4.6-6.11s4.6,2.22,4.6,6.11v2.36h-2.92v-2.6c0-1.73-.62-2.39-1.6-2.39s-1.6.66-1.6,2.39v13.11c0,1.73.62,2.36,1.6,2.36s1.6-.62,1.6-2.36v-3.47h2.92Z"/>
      <path class="cls-5" d="M92.12,138.72c-.17-.63-.28-1.01-.28-2.98v-3.82c0-2.25-.62-3.09-2.02-3.09h-1.07v9.89h-3.09v-24.29h4.66c3.2,0,4.57,1.84,4.57,5.59v1.91c0,2.5-.65,4.09-2.02,4.89v.07c1.54.8,2.05,2.6,2.05,5.13v3.75c0,1.18.03,2.05.34,2.95h-3.14ZM88.75,117.9v7.46h1.21c1.15,0,1.85-.62,1.85-2.57v-2.39c0-1.73-.48-2.5-1.57-2.5h-1.49Z"/>
      <path class="cls-5" d="M100.03,124.67h4.24v3.47h-4.24v7.11h5.33v3.47h-8.42v-24.29h8.42v3.47h-5.33v6.77Z"/>
      <path class="cls-5" d="M117.27,138.72h-3.12l-.53-4.41h-3.79l-.53,4.41h-2.84l3.14-24.29h4.52l3.14,24.29ZM110.22,131.02h2.97l-1.46-12.28h-.06l-1.46,12.28Z"/>
      <path class="cls-5" d="M125.21,131.68h.06l2.08-17.24h4.3v24.29h-2.92v-17.42h-.06l-2.08,17.42h-2.92l-2.25-17.17h-.06v17.17h-2.69v-24.29h4.29l2.25,17.24Z"/>
      <path class="cls-5" d="M143.11,120.02v.87c0,2.5-.62,4.06-1.99,4.86v.07c1.66.8,2.3,2.6,2.3,5.17v1.98c0,3.75-1.6,5.76-4.69,5.76h-4.86v-24.29h4.66c3.2,0,4.57,1.84,4.57,5.59ZM136.97,117.9v6.42h1.21c1.15,0,1.85-.62,1.85-2.57v-1.35c0-1.73-.48-2.5-1.57-2.5h-1.49ZM136.97,127.79v7.46h1.77c1.04,0,1.6-.59,1.6-2.39v-2.12c0-2.26-.59-2.95-1.99-2.95h-1.38Z"/>
      <path class="cls-5" d="M155.27,138.72h-3.12l-.53-4.41h-3.79l-.53,4.41h-2.84l3.14-24.29h4.52l3.14,24.29ZM148.22,131.02h2.97l-1.46-12.28h-.06l-1.46,12.28Z"/>
      <path class="cls-5" d="M165.62,129.66v3.23c0,3.89-1.57,6.11-4.6,6.11s-4.6-2.22-4.6-6.11v-12.63c0-3.89,1.57-6.11,4.6-6.11s4.6,2.22,4.6,6.11v2.36h-2.92v-2.6c0-1.73-.62-2.39-1.6-2.39s-1.6.66-1.6,2.39v13.11c0,1.73.62,2.36,1.6,2.36s1.6-.62,1.6-2.36v-3.47h2.92Z"/>
      <path class="cls-5" d="M171.55,129.04l-.95,2.22v7.46h-3.09v-24.29h3.09v10.51h.06l3.99-10.51h3.09l-4.3,10.82,4.3,13.46h-3.17l-3-9.68Z"/>
    </g>
  </g>
  <g class="cls-6">
    <rect class="cls-2" x="-14.19" y="-110.15" width="1080.03" height="1100.34"/>
  </g>
</svg>