<?xml version="1.0" encoding="UTF-8"?>
<svg id="Layer_1" data-name="Layer 1" xmlns="http://www.w3.org/2000/svg" xmlns:xlink="http://www.w3.org/1999/xlink" viewBox="0 0 253.15 253.15">
  <defs>
    <style>
      .cls-1 {
        fill: none;
      }

      .cls-2 {
        fill: #fff;
        filter: url(#drop-shadow-13);
      }

      .cls-3 {
        fill: #bfb290;
      }

      .cls-4 {
        fill: #215e12;
      }

      .cls-5 {
        fill: #29282b;
      }

      .cls-6 {
        fill: #d0b374;
      }

      .cls-7 {
        clip-path: url(#clippath);
      }
    </style>
    <clipPath id="clippath">
      <rect class="cls-1" x="-607.98" y="-372.26" width="1080.03" height="293.15"/>
    </clipPath>
    <filter id="drop-shadow-13" x="-724.77" y="-222.21" width="1315" height="1335" filterUnits="userSpaceOnUse">
      <feOffset dx="0" dy="0"/>
      <feGaussianBlur result="blur" stdDeviation="38.87"/>
      <feFlood flood-color="#000" flood-opacity="1"/>
      <feComposite in2="blur" operator="in"/>
      <feComposite in="SourceGraphic"/>
    </filter>
  </defs>
  <circle class="cls-3" cx="126.58" cy="126.58" r="126.58"/>
  <circle class="cls-4" cx="126.58" cy="126.58" r="65.45"/>
  <g>
    <path class="cls-5" d="M164.73,29.09c-10.26-5.28-23.32-8.39-34.87-9-12.28-.65-24.53,2.52-35.95,6.81-1.84.69-3.67,1.42-5.48,2.19-4.59,2.36-11.55,10.51-11.78,15.58.96,4.8,4.65,6.45,7.93,8.89,3.61,3.33,8.84,6.37,13.27,4.32,8.82-4.08,18.59-6.94,28.45-7.16,10.4-.24,19.58,3.16,29.01,7.16,4.43,2.05,9.67-.98,13.27-4.32,3.29-2.44,6.97-4.09,7.93-8.89-.23-5.07-7.19-13.22-11.78-15.58Z"/>
    <path class="cls-5" d="M164.73,224.06c-10.26,5.28-23.32,8.39-34.87,9-12.28.65-24.53-2.52-35.95-6.81-1.84-.69-3.67-1.42-5.48-2.19-4.59-2.36-11.55-10.51-11.78-15.58.96-4.8,4.65-6.45,7.93-8.89,3.61-3.33,8.84-6.37,13.27-4.32,8.82,4.08,18.59,6.94,28.45,7.16,10.4.24,19.58-3.16,29.01-7.16,4.43-2.05,9.67.98,13.27,4.32,3.29,2.44,6.97,4.09,7.93,8.89-.23,5.07-7.19,13.22-11.78,15.58Z"/>
  </g>
  <circle class="cls-5" cx="126.58" cy="126.58" r="51.15"/>
  <g>
    <path class="cls-5" d="M224.06,164.73c5.28-10.26,8.39-23.32,9-34.87.65-12.28-2.52-24.53-6.81-35.95-.69-1.84-1.42-3.67-2.19-5.48-2.36-4.59-10.51-11.55-15.58-11.78-4.8.96-6.45,4.65-8.89,7.93-3.33,3.61-6.37,8.84-4.32,13.27,4.08,8.82,6.94,18.59,7.16,28.45.24,10.4-3.16,19.58-7.16,29.01-2.05,4.43.98,9.67,4.32,13.27,2.44,3.29,4.09,6.97,8.89,7.93,5.07-.23,13.22-7.19,15.58-11.78Z"/>
    <path class="cls-5" d="M29.09,164.73c-5.28-10.26-8.39-23.32-9-34.87-.65-12.28,2.52-24.53,6.81-35.95.69-1.84,1.42-3.67,2.19-5.48,2.36-4.59,10.51-11.55,15.58-11.78,4.8.96,6.45,4.65,8.89,7.93,3.33,3.61,6.37,8.84,4.32,13.27-4.08,8.82-6.94,18.59-7.16,28.45-.24,10.4,3.16,19.58,7.16,29.01,2.05,4.43-.98,9.67-4.32,13.27-2.44,3.29-4.09,6.97-8.89,7.93-5.07-.23-13.22-7.19-15.58-11.78Z"/>
  </g>
  <circle class="cls-6" cx="126.58" cy="126.58" r="48.58"/>
  <rect class="cls-4" x="63.55" y="111.18" width="125.19" height="30.8"/>
  <g>
    <path class="cls-6" d="M74.42,125.27h5.01v7.22c0,3.64-1.82,5.72-5.34,5.72s-5.34-2.08-5.34-5.72v-11.84c0-3.64,1.82-5.72,5.34-5.72s5.34,2.08,5.34,5.72v2.21h-3.38v-2.44c0-1.63-.72-2.24-1.85-2.24s-1.85.62-1.85,2.24v12.3c0,1.63.72,2.21,1.85,2.21s1.85-.59,1.85-2.21v-4.2h-1.63v-3.25Z"/>
    <path class="cls-6" d="M89.23,137.96c-.2-.59-.33-.94-.33-2.8v-3.58c0-2.11-.72-2.9-2.34-2.9h-1.24v9.27h-3.58v-22.77h5.4c3.71,0,5.3,1.72,5.3,5.24v1.79c0,2.34-.75,3.84-2.34,4.59v.06c1.79.75,2.37,2.44,2.37,4.82v3.51c0,1.11.03,1.92.39,2.77h-3.64ZM85.33,118.44v7h1.4c1.34,0,2.15-.59,2.15-2.41v-2.25c0-1.63-.55-2.34-1.82-2.34h-1.72Z"/>
    <path class="cls-6" d="M98.41,124.79h4.91v3.25h-4.91v6.67h6.18v3.25h-9.76v-22.77h9.76v3.25h-6.18v6.34Z"/>
    <path class="cls-6" d="M110.39,124.79h4.91v3.25h-4.91v6.67h6.18v3.25h-9.76v-22.77h9.76v3.25h-6.18v6.34Z"/>
    <path class="cls-6" d="M122.05,121.47h-.06v16.5h-3.22v-22.77h4.49l3.61,13.63h.07v-13.63h3.19v22.77h-3.68l-4.39-16.5Z"/>
    <path class="cls-6" d="M143.4,120.43v.81c0,2.34-.72,3.81-2.31,4.56v.06c1.92.75,2.67,2.44,2.67,4.85v1.85c0,3.52-1.85,5.4-5.43,5.4h-5.63v-22.77h5.4c3.71,0,5.3,1.72,5.3,5.24ZM136.27,118.44v6.02h1.4c1.34,0,2.15-.59,2.15-2.41v-1.27c0-1.63-.55-2.34-1.82-2.34h-1.72ZM136.27,127.71v7h2.05c1.2,0,1.85-.55,1.85-2.25v-1.98c0-2.11-.68-2.77-2.31-2.77h-1.59Z"/>
    <path class="cls-6" d="M157.49,137.96h-3.61l-.62-4.13h-4.39l-.62,4.13h-3.29l3.65-22.77h5.24l3.64,22.77ZM149.33,130.74h3.45l-1.69-11.52h-.07l-1.69,11.52Z"/>
    <path class="cls-6" d="M169.5,129.47v3.03c0,3.64-1.82,5.72-5.34,5.72s-5.34-2.08-5.34-5.72v-11.84c0-3.64,1.82-5.72,5.34-5.72s5.34,2.08,5.34,5.72v2.21h-3.38v-2.44c0-1.63-.72-2.24-1.85-2.24s-1.85.62-1.85,2.24v12.3c0,1.63.72,2.21,1.85,2.21s1.85-.59,1.85-2.21v-3.25h3.38Z"/>
    <path class="cls-6" d="M176.37,128.89l-1.11,2.08v6.99h-3.58v-22.77h3.58v9.86h.07l4.62-9.86h3.58l-4.98,10.15,4.98,12.62h-3.68l-3.48-9.08Z"/>
  </g>
  <g class="cls-7">
    <rect class="cls-2" x="-607.98" y="-105.21" width="1080.03" height="1100.34"/>
  </g>
</svg>