<?xml version="1.0" encoding="UTF-8"?>
<svg id="Layer_1" data-name="Layer 1" xmlns="http://www.w3.org/2000/svg" xmlns:xlink="http://www.w3.org/1999/xlink" viewBox="0 0 253.15 253.15">
  <defs>
    <style>
      .cls-1 {
        fill: none;
      }

      .cls-2 {
        fill: #fff;
        filter: url(#drop-shadow-13);
      }

      .cls-3 {
        fill: #bfb290;
      }

      .cls-4 {
        fill: #c4cba2;
      }

      .cls-5 {
        fill: #29282b;
      }

      .cls-6 {
        clip-path: url(#clippath);
      }
    </style>
    <clipPath id="clippath">
      <rect class="cls-1" x="-315.53" y="-374.95" width="1080.03" height="293.15"/>
    </clipPath>
    <filter id="drop-shadow-13" x="-432.32" y="-224.9" width="1315" height="1335" filterUnits="userSpaceOnUse">
      <feOffset dx="0" dy="0"/>
      <feGaussianBlur result="blur" stdDeviation="38.87"/>
      <feFlood flood-color="#000" flood-opacity="1"/>
      <feComposite in2="blur" operator="in"/>
      <feComposite in="SourceGraphic"/>
    </filter>
  </defs>
  <g>
    <circle class="cls-3" cx="126.58" cy="126.58" r="126.58"/>
    <circle class="cls-5" cx="126.58" cy="126.58" r="65.45"/>
    <g>
      <path class="cls-5" d="M164.73,29.09c-10.26-5.28-23.32-8.39-34.87-9-12.28-.65-24.53,2.52-35.95,6.81-1.84.69-3.67,1.42-5.48,2.19-4.59,2.36-11.55,10.51-11.78,15.58.96,4.8,4.65,6.45,7.93,8.89,3.61,3.33,8.84,6.37,13.27,4.32,8.82-4.08,18.59-6.94,28.45-7.16,10.4-.24,19.58,3.16,29.01,7.16,4.43,2.05,9.67-.98,13.27-4.32,3.29-2.44,6.97-4.09,7.93-8.89-.23-5.07-7.19-13.22-11.78-15.58Z"/>
      <path class="cls-5" d="M164.73,224.06c-10.26,5.28-23.32,8.39-34.87,9-12.28.65-24.53-2.52-35.95-6.81-1.84-.69-3.67-1.42-5.48-2.19-4.59-2.36-11.55-10.51-11.78-15.58.96-4.8,4.65-6.45,7.93-8.89,3.61-3.33,8.84-6.37,13.27-4.32,8.82,4.08,18.59,6.94,28.45,7.16,10.4.24,19.58-3.16,29.01-7.16,4.43-2.05,9.67.98,13.27,4.32,3.29,2.44,6.97,4.09,7.93,8.89-.23,5.07-7.19,13.22-11.78,15.58Z"/>
    </g>
    <g>
      <path class="cls-5" d="M224.06,164.73c5.28-10.26,8.39-23.32,9-34.87.65-12.28-2.52-24.53-6.81-35.95-.69-1.84-1.42-3.67-2.19-5.48-2.36-4.59-10.51-11.55-15.58-11.78-4.8.96-6.45,4.65-8.89,7.93-3.33,3.61-6.37,8.84-4.32,13.27,4.08,8.82,6.94,18.59,7.16,28.45.24,10.4-3.16,19.58-7.16,29.01-2.05,4.43.98,9.67,4.32,13.27,2.44,3.29,4.09,6.97,8.89,7.93,5.07-.23,13.22-7.19,15.58-11.78Z"/>
      <path class="cls-5" d="M29.09,164.73c-5.28-10.26-8.39-23.32-9-34.87-.65-12.28,2.52-24.53,6.81-35.95.69-1.84,1.42-3.67,2.19-5.48,2.36-4.59,10.51-11.55,15.58-11.78,4.8.96,6.45,4.65,8.89,7.93,3.33,3.61,6.37,8.84,4.32,13.27-4.08,8.82-6.94,18.59-7.16,28.45-.24,10.4,3.16,19.58,7.16,29.01,2.05,4.43-.98,9.67-4.32,13.27-2.44,3.29-4.09,6.97-8.89,7.93-5.07-.23-13.22-7.19-15.58-11.78Z"/>
    </g>
  </g>
  <g>
    <path class="cls-4" d="M98.55,101.63l-6.01,24.08c6.2-2.56,14.35-21.25,18.06-23.48,1.52-.91,10.81-1.85,9.61,1.18-10.43,14.34-19.93,31.1-35.48,40.37-2.65-.52-2-10.28-1.81-12.63.32-4.11,5.92-27.47,8.38-28.94,1.97-1.17,5.01-.46,7.25-.57Z"/>
    <path class="cls-4" d="M114.21,132.94c3.12,1.08,16.97,2.79,18.04-.62.53-1.69-.18-3.44-1.99-4.01-2.04-.64-7.27,1.13-6.41-1.98,2.07-7.5,10.89-3.64,12.02-10.25h-12.03c-1.41-8.97,16.33-7.24,18.66-2.42,3.45,7.16-3.3,8.73-4.03,11.68-.87,3.53,4.05,8.66-1.41,12.99-5.52,4.39-25.93,6-22.85-5.39Z"/>
    <path class="cls-4" d="M166.77,138.54c-17.26,14.79-35.56-8.7-16.47-24.29,18.62-15.21,34.3,9.02,16.47,24.29ZM165.69,117.58c-6.12-6.22-21.99,10.07-14.09,17.12,7.36,6.57,20.2-10.92,14.09-17.12Z"/>
  </g>
  <g class="cls-6">
    <rect class="cls-2" x="-315.53" y="-107.89" width="1080.03" height="1100.34"/>
  </g>
</svg>