<?xml version="1.0" encoding="UTF-8"?>
<svg id="Layer_1" data-name="Layer 1" xmlns="http://www.w3.org/2000/svg" viewBox="0 0 68.17 68.29">
  <defs>
    <style>
      .cls-1 {
        fill: #f0525b;
      }
    </style>
  </defs>
  <path class="cls-1" d="M49.93,3.9c-.54-.29-1.22-.09-1.51.45-.29.54-.09,1.22.45,1.51,10.29,5.55,16.99,16.56,17.07,28.06.07,9.56-4.13,18.56-11.53,24.72-5.81,4.84-13,7.41-20.37,7.41-2,0-4.02-.19-6.03-.58-7.4-1.43-14.08-5.47-18.81-11.38-4.72-5.91-7.2-13.32-6.96-20.85.16-5.17,1.34-9.98,3.49-14.31,2.07-4.15,4.94-7.66,8.54-10.44,3.6-2.77,7.73-4.66,12.27-5.6,4.73-.98,9.68-.89,14.72.27,1.03.24,1.77.42,2.58.68l-3.68,5.06c-.11.15-.17.31-.2.48-.58-.14-1.16-.25-1.74-.35l2.19-2.68c.25-.3.32-.72.18-1.09s-.45-.64-.84-.71c-1.86-.36-3.78-.54-5.69-.54C17.44,4.03,3.91,17.57,3.91,34.21s13.54,30.18,30.18,30.18,30.18-13.54,30.18-30.18c0-5.76-1.63-11.36-4.71-16.19-3-4.7-7.22-8.49-12.22-10.93-.55-.27-1.22-.04-1.49.51-.27.55-.04,1.22.51,1.49,4.63,2.27,8.55,5.77,11.32,10.13,2.85,4.48,4.36,9.66,4.36,14.99,0,15.41-12.54,27.95-27.95,27.95S6.14,49.62,6.14,34.21,18.68,6.26,34.09,6.26c1.13,0,2.26.07,3.38.2l-.1.12c-1.16,2.11-2.31,4.23-3.47,6.34,0,0,.01.02.02.03,1.02-.36,2.04-.73,3.05-1.09,0,.01.01.02.02.03-1.39,2.14-2.79,4.28-4.18,6.42,0,0,0,.01.01.02.92-.33,1.84-.66,2.79-1-1.45,1.6-2.9,3.18-4.35,4.77.29.04.58.06.88.06,3.66,0,6.63-2.97,6.63-6.63,0-1.82-.73-3.47-1.92-4.67.01,0,.02,0,.03,0,.09,0,.17.02.26.03.08,0,.16.02.24.03.08.01.17.02.25.04.08.01.16.02.24.04.08.01.17.03.25.04.08.01.16.03.23.04.08.02.17.03.25.05.08.01.16.03.23.05.08.02.17.03.25.05.08.02.15.03.23.05.08.02.17.04.25.06.08.02.15.04.23.06.08.02.17.04.25.06.08.02.15.04.23.06.08.02.17.05.25.07.08.02.15.04.23.07.08.02.17.05.25.08.08.02.15.05.23.07.08.03.17.05.25.08.08.02.15.05.23.08.08.03.17.06.25.09.07.03.15.05.22.08.08.03.17.06.25.09.07.03.15.06.22.08.08.03.17.07.25.1.07.03.15.06.22.09.08.03.17.07.25.11.07.03.14.06.21.09.08.04.17.08.25.11.07.03.14.06.21.1.09.04.17.08.25.12.07.03.13.06.2.1.09.04.17.09.26.13.06.03.13.06.19.1.09.05.19.1.28.15.06.03.11.06.17.09.13.07.26.15.38.22.02.01.04.02.06.03.01,0,3.17,1.75,4.47,3.37.02.02.03.04.05.06,0,.01.02.02.03.03.01.02.03.03.04.05,0,0,.01.02.02.03.01.02.02.03.03.04,0,0,0,.01.01.01.01.02.02.03.03.04,0,0,0,0,0,0,0,.01,0,.02,0,.03,0,.07-.02.11-.08.15-2.68,1.67-5.37,3.34-8.03,5.04-4.22,2.69-8.4,5.48-12.7,8.03-5.71,2.1-15.13-4.66-13.8-10.9.14-.68.7-1.22,1.17-1.73.12-.12.23-.25.35-.37.04-.04.08-.08.12-.12.08-.08.16-.16.24-.24.05-.05.1-.1.15-.14.07-.07.14-.14.22-.21.05-.05.11-.1.16-.15.07-.07.14-.13.21-.19.06-.05.11-.1.17-.15.07-.06.14-.12.21-.18.06-.05.12-.1.18-.15.07-.06.14-.12.21-.17.06-.05.12-.1.18-.15.07-.06.14-.11.21-.17.06-.05.13-.1.19-.15.07-.05.14-.11.21-.16.06-.05.13-.09.19-.14.07-.05.14-.1.21-.15.07-.05.13-.09.2-.14.07-.05.14-.1.21-.15.07-.05.13-.09.2-.13.07-.05.14-.1.22-.14.07-.04.13-.09.2-.13.07-.05.15-.09.22-.14.07-.04.14-.08.21-.13.07-.04.15-.09.22-.13.07-.04.14-.08.21-.12.07-.04.15-.09.22-.13.07-.04.14-.08.21-.12.08-.04.15-.08.23-.12.07-.04.14-.08.21-.11.08-.04.15-.08.23-.12.07-.04.14-.07.21-.11.08-.04.15-.08.23-.11.07-.03.14-.07.22-.1.08-.04.16-.07.23-.11.07-.03.14-.07.22-.1.08-.04.16-.07.24-.1.07-.03.15-.06.22-.09.08-.03.16-.07.24-.1.07-.03.15-.06.22-.09.08-.03.16-.06.24-.09.07-.03.15-.06.22-.08.08-.03.16-.06.24-.09.07-.03.15-.05.22-.08.02,0,.04-.01.06-.02-.64,1.02-1.01,2.22-1.01,3.51,0,3.06,2.08,5.64,4.9,6.4.34-.76.67-1.52,1.01-2.27,0,0-.02-.02-.03-.02-.62.21-1.24.42-1.9.64,1.01-1.99,2-3.94,2.99-5.9,0-.01-.01-.02-.02-.03-.94.3-1.89.6-2.85.91.02-.05.03-.09.05-.12,1.04-2.13,2.09-4.25,3.13-6.38-9.43.51-18.29,6.26-22.19,15.79-5.74,13.99,1.93,29.82,16.31,34.07,17.88,5.28,34.76-9.71,32.31-28-.08-.63-.34-1.4-.36-2.02-.02-.53.11-1.06.07-1.63-.14-2.42-1.55-4.77-4.19-4.87-2.26-.09-4.02,1.22-4.84,3.27-.39-.14-.71-.41-1.11-.59-3.45-1.53-6.51,1.71-5.2,5.05,1.24,3.17,5.35,3.96,4.1,8.04-.89,2.91-4.59,5.26-7.46,5.77-6.69,1.19-14.38-5.31-8.75-11.65,5.51-3.51,11.01-7.02,16.52-10.52,1.34-.85,2.78-1.65,4.09-2.52.47-.31,1.08-.58,1.05-1.26-.02-.41-.61-1.02-1.08-1.48,0,0,0,0,0,0-.17-.16-.33-.31-.44-.42-.13-.13-.27-.11-.27-.27-1.07-.99-1.96-1.69-2.5-2.08-.48-.33-.96-.69-1.46-.99-1.7-1.03-3.46-1.83-5.26-2.43l4.39-6.03c.2-.28.26-.64.17-.97-.1-.33-.34-.6-.66-.73-1.54-.61-2.52-.88-4.26-1.28-5.36-1.23-10.63-1.33-15.68-.28-4.88,1.01-9.31,3.04-13.18,6.02-3.87,2.98-6.96,6.75-9.18,11.21C1.44,22.56.19,27.68.02,33.18c-.25,8.07,2.39,15.99,7.45,22.31,5.06,6.32,12.2,10.65,20.13,12.18,2.15.41,4.31.62,6.45.62,7.88,0,15.57-2.75,21.79-7.92,7.91-6.58,12.41-16.22,12.33-26.45-.09-12.3-7.25-24.09-18.24-30.01M12.25,40.94c-.09-.07-.18-.14-.28-.21-.02-.01-.04-.03-.06-.04-.08-.06-.15-.12-.22-.18-.09-.08-.16-.16-.2-.21-.02-.03-.04-.07-.06-.12,0-.02-.02-.05-.03-.07-.02-.04-.03-.09-.05-.15-.15-.48-.28-1.24-.34-1.57-.14-.77-.24-1.55-.3-2.33-.01-.16-.02-.31-.03-.47-.02-.31-.03-.62-.03-.94-.01-.62,0-1.25.04-1.87.03-.45.07-.9.12-1.34,0-.04,0-.07.01-.11.09-.72.21-1.44.37-2.15.05-.22.1-.45.16-.67.24-.96.54-1.91.9-2.83.08-.2.16-.4.24-.6.06-.14.12-.29.19-.43.13-.29.26-.57.4-.85,0-.02.02-.04.03-.06.1-.21.29-.61.43-.9.01-.03.03-.06.04-.08.06-.11.1-.19.14-.23.02-.02.04-.03.07-.04.06-.02.14-.02.16,0,.03.02.08.31.14.6.01.06.02.13.04.19.03.15.06.28.08.34.08.27.18.54.29.81,2.05,5.06,8.44,9.02,13.81,8.69.02.02.01.06,0,.13-.05.19-.22.55-.32.79-.04.08-.07.16-.08.2-.16.5-.26,1-.31,1.51-.02.15-.03.3-.04.44-.02.4-.02.8,0,1.2,0,.13.04.24.08.36,0,.03.02.06.02.08,0,.03.02.07.03.1.01.05.02.09.02.14.01.23-.24.58-.46.85-.08.1-.15.18-.21.25-1.06,1.33-2.43,2.33-3.94,2.98-.91.39-1.87.66-2.85.79-.33.05-.66.08-.98.09-.33.02-.66.02-.99,0-.33-.01-.66-.04-.99-.08-.61-.08-1.21-.2-1.8-.38-.31-.09-.61-.2-.91-.32-.07-.03-.14-.06-.21-.09-.6-.25-1.18-.57-1.73-.94-.09-.06-.24-.17-.41-.29M46.68,30.9s0,0,0,0c-.16-.17-.32-.34-.47-.51-.26-.3-.49-.61-.66-.93,0-.01-.02-.03-.02-.04-.16-.32-.27-.64-.3-.98,0-.08,0-.15,0-.23.01-.28.08-.56.22-.85.07-.15.16-.28.24-.4.01-.01.02-.03.03-.04.23-.3.51-.48.8-.57.02,0,.05-.01.07-.02.06-.02.13-.03.19-.04.09-.01.18-.02.27-.02.64.01,1.32.34,1.88.81.07.05.13.11.19.17,0,0,0,0,.01,0,.02.02.04.04.06.06.04.04.08.08.11.12.06.06.11.13.17.2.06.07.11.14.17.21.26.32.52.63.85.71,0,0,.02,0,.03,0,.21.04.46-.01.74-.22.37-.28.43-.64.42-1.03,0-.09,0-.18-.01-.27,0-.08,0-.17-.01-.25h0c0-.14,0-.27.02-.4.09-.65.41-1.2.86-1.6.05-.04.1-.08.15-.12.47-.37,1.06-.59,1.65-.62.08,0,.15,0,.23,0,.9.02,1.76.51,2.18,1.59.18.46.24.87.25,1.26,0,.26,0,.51-.03.76-.02.25-.03.51-.03.78,0,.13,0,.27.02.41.07.74.34,1.61.44,2.39.13,1.1.23,2.55.2,3.78,0,0,0,.02,0,.03,0,.17-.01.34-.02.5,0,.1-.01.2-.02.29,0,0,0,0,0,0,0,0,0,.02,0,.04,0,0,0,0,0,.01-.03.18-.11.65-.21.58-.04-.11-.13-.22-.23-.33-.17-.18-.39-.36-.55-.48-1.64-1.28-3.7-1.62-5.69-1.07-.09.03-.18.05-.28.08-.02,0-.05.02-.09.03-.03.01-.07.03-.12.05-.04.02-.09.04-.14.06-.02.01-.05.02-.07.03-.19.08-.39.16-.47.15-.01,0-.02,0-.03-.01-.03-.12-.07-.25-.11-.37-.16-.47-.38-.96-.65-1.36-.47-.71-1.41-1.48-2.22-2.32M47.81,41.4s.02-.04.04-.08c.05-.08.13-.2.23-.33.03-.05.07-.09.11-.14.02-.03.05-.06.07-.09.07-.09.14-.19.2-.27.04-.06.08-.11.11-.15.03-.05.06-.08.08-.11.34-.55.6-1.1.82-1.71.39-1.09.1-1.37,1.36-1.91.03-.01.05-.02.08-.03.15-.06.31-.11.46-.16.23-.07.47-.12.7-.15.14-.02.29-.03.43-.04.48-.02.95.05,1.39.19.69.21,1.34.61,1.89,1.18.14.15.28.3.41.47.1.12.19.25.27.39.03.05.05.09.08.14.08.15.14.28.19.41.05.13.09.24.11.36.03.11.04.22.05.32.03.52-.16.97-.39,1.7-.53,1.69-1.32,3.4-2.28,5-.21.35-.44.7-.67,1.04-.23.34-.47.67-.71,1-.24.32-.49.64-.75.94-.13.15-.26.3-.39.45-.05.06-.11.12-.17.2-.11.12-.24.27-.36.41-.2.22-.41.44-.54.55-.11.09-.22.2-.37.18.45-1.86.38-3.81-.18-5.61-.07-.23-.15-.45-.23-.67-.11-.3-.24-.59-.38-.87-.29-.6-.65-1.16-1.06-1.7-.1-.13-.2-.26-.31-.38-.02-.03-.04-.05-.07-.08-.06-.07-.12-.14-.19-.21-.05-.08-.04-.15-.02-.24M38.47,45.73s.09,0,.15,0c.22,0,.48.02.6,0,2.14-.22,4.07-.85,5.9-1.97.25-.15,1.06-.87,1.27-.74.17.19.33.39.48.58.09.11.17.23.25.35.37.55.68,1.13.91,1.72.06.15.11.3.16.45.28.85.42,1.73.42,2.62,0,.86-.13,1.72-.39,2.58-.07.24-.16.47-.25.7-.03.07-.06.14-.09.21-.03.07-.06.14-.09.21-.19.42-.35.72-.52.97-.03.04-.06.09-.09.13-.06.08-.12.15-.18.22-.35.38-.78.62-1.54,1.03-.92.51-1.87.95-2.84,1.33-.73.28-1.48.53-2.23.74-.5.14-1.01.26-1.53.37-1.03.21-2.07.35-3.11.42-.78.05-1.57.07-2.36.04,0-.03,0-.05,0-.08,0-.07.03-.12.08-.19.04-.06.1-.13.17-.21.33-.33.94-.8,1.2-1.09,2.24-2.46,3.45-5.95,3.45-9.3h0c0-.23,0-.45-.02-.67,0-.12-.01-.25-.02-.37.03-.04.11-.06.22-.07M30.41,42.49c.26.24.53.48.82.7.29.22.59.43.9.64.22.14.45.28.69.41.47.26.97.5,1.48.7.17.07.34.13.51.18.43.14.87.25,1.31.32.38,2.08-.01,4.39-.92,6.43-.19.43-.41.85-.64,1.25-.53.9-1.17,1.73-1.88,2.41-.18.18-.62.55-1.09.92-.1.08-.2.15-.3.23-.15.11-.29.21-.43.3-.06.04-.12.08-.18.11-.23.14-.42.23-.54.23h0c-7.12-1.22-13.35-5.76-16.72-12.11-.04-.08-.1-.18-.16-.3-.02-.03-.03-.06-.05-.09-.02-.03-.03-.07-.05-.1-.07-.13-.13-.26-.2-.39-.12-.26-.23-.51-.25-.65-.01-.12,0-.12.11-.11,4.58,2.35,10.24,1.74,14.16-1.6.3-.25.58-.53.86-.8.17-.17.34-.33.52-.49,0,0,0,0,.01-.01.1-.11.09-.36.36-.15.09.07.12.2.18.3.01.02.02.04.03.05.46.59.93,1.13,1.45,1.62"/>
</svg>