<?xml version="1.0" encoding="UTF-8"?>
<svg xmlns="http://www.w3.org/2000/svg" version="1.1" viewBox="0 0 2000 2000">
  <!-- Generator: Adobe Illustrator 30.0.0, SVG Export Plug-In . SVG Version: 2.1.1 Build 123)  -->
  <defs>
    <style>
      .st0 {
        display: none;
      }
    </style>
  </defs>
  <g id="TIGER" class="st0">
    <g id="STRIPES">
      <g>
        <path d="M1682.91,1488.9l.57-1.91c3.05,1.65,5.4,4.16,6.48,7.55l10.04,97.45-5.59-2.93-1.88,1.95c-18.24-9.95-34.67-23.04-52.61-33.42-63.82-36.97-109.18,22.98-164.4,48.43-16.87,7.77-33.75,8.81-50.74,14.26-30.09,9.64-51.57,21.08-84.44,26.56-6.15,1.03-16.8.94-21.64,2.14-1.09.27-.68,2.58-3.16,3.05-9.43,1.78-20.23-2.48-29.28-3.77s-17.25-1.58-26.44-3.57c-3.3-.71-18.85-4.02-19.65-6.35l-3.16-45.33c11.74.33,23.7,1.95,35.48.97,6.05-.5,36.06-5.08,39.81-7.19,2.22-1.25,2.18-3.02,3.41-3.85,2.29-1.55,8.89-3.24,11.97-4.77,22.05-10.95,40.59-23.4,61.65-35.35,30-17.02,57.96-31.95,87.2-50.8,20.63-13.3,69.39-51.37,92.08-51.92,36.68-.9,62.08,17.13,92.06,34.72,7.58,4.45,14.62,9.73,22.24,14.08Z"/>
        <path d="M618.94,1029.05l-2.94,83.95-42.06-5.44c-1.03-.72-1.31-3.7-1.39-5.06-.85-14.28.28-38.44,1.42-53.05,1.06-13.54,7.22-16.38,17.75-23.26l27.23,2.85Z"/>
        <polygon points="626.99 759 601.29 745.21 585 745.99 588.98 670.48 603.28 667.2 628.84 679.66 626.99 759"/>
        <g>
          <path d="M1160.06,187.91l6.97,2.77c.33,8.09-1.17,16.54,1.46,24.32,9.15-7.82,34.07-34.49,45.12-35.7,7.07-.78,20.61,8.88,26.7,12.89,34.54,22.81,66.59,49.83,100.78,73.22,13.06,8.94,30.74,14.22,35.83,30.99-.23,1.05-1.91,1.77-2.91,2.12-36.82,13.01-63.6-11.86-95.13-26.9-21.56-10.28-57.22-26.16-74.39-1.64l-31.48,41.01-4.02-86.99-39.47,27.9-34.56-12.37c-1.84-9.1-7.22-40.4-1.99-47.06l59.53-47.47c.05,13.4,3.59,27.4,7.78,40.25.3.92.05,1.79-.23,2.65Z"/>
          <path d="M1060,220.01c-6.05,15.03-.89,32.47-4.05,48.29l29.42,15.62.62,2.06-46.5,33.84-19.35-22.54c4-18.52,5.5-39.07,13.42-56.21l26.43-21.06Z"/>
        </g>
        <path d="M606.01,1445.99l-2.01,62c-15.72,1.79-31.49,4.55-45.99,11l2.43-70.06c1.53-2.18,39.94-2.85,45.57-2.94Z"/>
        <path d="M610.99,1293l-2.1,66.89c-16.14,3.12-33.33,4.26-45.88,16.1.42-19.65.37-39.48,2.51-58.98.46-1.04,15.48-13.89,17.21-14.79,7.64-3.98,20.02-5.71,28.27-9.22Z"/>
        <g>
          <path d="M713,533.5l28,8.51-50.74,38.8-27.15-7.91c1.74-12.33-1.07-25.48,4.02-37.27l46.38-37.62c1.64.76-.5,2.33-.5,2.5v33Z"/>
          <path d="M885,361.01c-.87,1.58-1.53,2.73-1.91,4.58-2.61,12.8-3.58,27.76-4.93,40.75l25.21,13.57.62,2.06-43.33,30.8-24.72-13.45c2.76-12.77.96-38.17,10.01-47.87,7.27-7.79,26.79-22.24,36.05-28.95.98-.71,1.2-2,2.99-1.5Z"/>
          <path d="M940.32,315.31l35.67-28.31-7.88,49.34,24.87,18.16-24.62,18.26-29.37-12.25c-1.12-.73-.91-1.85-1.05-2.95-.91-7.27-.8-27.68.03-35.08.28-2.54,1.59-4.78,2.35-7.16Z"/>
        </g>
        <path d="M622.01,904.99l-1.01,60c-14.81-4.33-26.8-13.9-42.56-15.93.45-9.2-.63-21.84.52-30.62.23-1.76.36-2.16,1.47-3.53.7-.87,13.44-10.46,14.29-10.7,7.56-2.17,19.25,2.05,27.29.78Z"/>
        <path d="M625.84,783.16l-.84,52.84c-1.02,1.17-23.42-14.62-26.59-15.9-5.05-2.04-10.81-1.09-14.89-5.11l1.43-43.55,15.32-1.19,25.58,12.91Z"/>
        <path d="M613.99,1197l-1.16,34.84c-15.37,7.85-31.64,13.19-45.83,23.16l2.45-47.05c14.12-6.64,29.8-6.3,44.54-10.95Z"/>
        <path d="M792.99,435.01l-8.03,43.29,24.03,14.69-20.49,14.73-25.18-13.15c2.59-13.68.71-28.56,6.23-41.5l23.43-18.06Z"/>
        <path d="M638.99,559l-1.57,33.05,25.58,7.95c.61,2.33-.56,1.67-1.27,2.29-2.22,1.91-18.95,14.66-20.2,14.69l-20.91-9.88-.72-1.58c2.16-12.78,2.17-26.32,7.4-38.21l11.68-8.3Z"/>
        <g>
          <path d="M1648.11,1168.91l5.88-2.91,8.9,81.34-4.48,2.7-2.76-1.95c-16.53,7.48-35.18,15.79-53.67,11.41-9.82-2.33-19.38-8.24-29.21-10.79-15.48-4.02-24.84-4.84-40.14-11.86-20.11-9.22-23.61-15.1-48.1-15.9-51.76-1.69-106.88,14.28-158.18,20.9-20.36,2.63-40.38,3.55-60.71,6.29-14.51,1.95-29.05,4.69-43.38,7.67l-2.11-1.46-2.99-69.19c14.2-5.25,28.24-13.23,42.58-17.92,38.29-12.53,79.42-11.75,118.08-21.92,13.49-3.55,23.72-11.3,35.89-15.11,23.7-7.4,60.84,11.09,85.1,16.47,17.41,3.86,35.69,4.66,53.19,8.81,22.26,5.27,58.58,24.78,80.21,18.23,4.77-1.45,10.03-5.06,14.29-7.7l1.6,2.9Z"/>
          <path d="M1579.95,542.09l.1,2.81,5.81.24,9.13,80.86c-3.61.39-5.73-3.69-7.45-4.02-6.78-1.3-32.31,0-39.8,1.26-3.01.5-20.39,7.78-21.72,6.77-1.51-6.63-4.29-13.49-10.32-17.2-51.92-23.51-103.47-48.62-156.19-69.9-14.67-.05-6.12,25.19-7.51,34.09-20.9-4.25-42.18-8.34-63.5-9.99-17.41-1.34-36.23-2.53-52.88,3.1-19.36,11.61-31.47,32.5-47.6,47.89l-.57-36.06c15.55-18.19,30.46-52.43,52.59-62.41,45.46-20.49,114.91-18.34,162.78-7.85s111.16,39.25,159.56,34.19c6.15-.64,11.52-4.05,17.57-3.79Z"/>
          <path d="M1569.32,436.66c1.77,1.1,4.67.61,5.49,3.03l8.18,72.3c-.27.25-3.52-.64-4.19-1.04-11.89-7.16-32.55-8.08-47.22-12.03-43.65-11.76-81.87-35.8-122.9-53.1-40.36-17.01-129.64-39.5-171.72-30.37-8.51,1.85-14.05,5.83-19.93,12.07-13.18,14.01-22.99,33.13-36.02,47.47l-.47-32.96c11.08-14.27,20.99-30.69,32.5-44.5,9.97-11.97,14.33-14.74,29.73-18.27,28.07-6.43,57.76-7.93,86.04-12.96,67.74-12.04,128.3,38.68,190.97,56.4,14.72,4.16,37.8,6.65,49.53,13.95Z"/>
          <path d="M1376.89,925.11c2.48,12.17-.06,26.61,6.91,37.58,4.78,7.52,12.21,7.82,20.18,9.82,20.76,5.22,42.04,9.18,63.01,13.49l-.47,2.01c-11.3,7.45-20.86,17.31-31.62,25.38-46.47,34.82-117.05,28.24-170.42,47.58-18.33,6.65-32.19,21.34-48.58,30.42-1.27.7-2.21,1.94-3.9,1.59l-4.11-95.53,47.43-29.64c23.32-7.51,40.03-26.76,62.69-35.31,19.34-7.3,38.31-8.53,58.88-7.41Z"/>
          <path d="M1497.58,1372.57c-26.17,29.5-48.25,31.67-83.34,42.16-31.22,9.34-58.66,36.63-84.92,56.08-8.28,6.13-14.53,10.73-22.03,17.24-5.87,5.09-17.31,8.49-24.77,10.97-16.09,5.35-32.75,9.31-49.51,11.98l-7-150.99,75.43,17.04,1.13-2.09c55.39,1.47,120.33,4.95,170.46-22.44,3.31-1.81,20.01-13.44,21.32-13.32,5.53.51,9.34,12.58,9.65,17.31.5,7.45-1.75,10.79-6.42,16.06Z"/>
          <path d="M1356.88,648.12l9.1,117.85c-26.56,9.75-53.34,13.81-81.48,16.02-9.49.75-20.43-.19-29.97,1.03-19.87,2.53-38.68,20.46-56.51,28.98l-4.07-83.49c-.5-5.32,6.26-7.24,9.97-10.09,9.94-7.63,21.06-18.26,31.17-24.83,13.23-8.6,34.81-11.04,50.43-16.57,24.39-8.64,45.05-26.21,71.36-28.9Z"/>
          <path d="M1633.01,971.99l6.98,67.01c-9.98-5.24-22.45-2.34-32.99.5-15.01,4.06-24.68,11.58-37.81,17.19-5.67,2.42-12.45,3.74-18.56,6.44-12.19,5.41-27.91,18.72-39.09,21.91-6.24,1.78-17.68-.27-18.54-7.63-1.51-12.93,18.61-30.11,28.26-36.65,7.98-5.41,19.14-9.52,26.23-14.77,8.56-6.34,17.63-19.13,25.98-27.02,10.56-9.99,34.97-30.1,50.04-29.06,2.87.2,5.71,3.4,9.49,2.08Z"/>
          <path d="M1602.01,743l5.99-3,6.01,55.99c-6.07,1.9-4.68-.85-6.18-1.81-1.94-1.23-18.94,5.22-23.44,5.69-13.61,1.43-29.11-1.61-42.24-5.01l-3.96-43.16c.58-1.91,3.97-3.54,5.84-4.2,12.32-4.3,26.43,3.33,39.38.38,6.19-1.41,12.49-4.54,17.12-8.86l1.51,3.98Z"/>
          <path d="M1615.73,871.32c.26.12.24,1.5.95,1.66,1.71.39,3.56-.26,5.28.06l6.03,52.95c-25.56-7.16-52.76-8.93-76.54-21.95l-2.46-31.05c14.18.37,29.37,2.07,43.54,1.04,5.5-.4,19.12-4.61,23.19-2.72Z"/>
          <path d="M1673,1340.99l4.99,45.01c-10.67-4.21-23.99-4.78-35.53-4.04-10.15.65-27.05,5.96-35.97,5.11-10.55-1.01-11.89-18.43-6.01-26.09,9.99-13.02,48.54-19.93,64.47-20.47,1.63-.05,5.02,2.09,8.05.48Z"/>
          <path d="M1554.01,686c1.15,12.76-8.59,19.84-20,22.01l-3.01-22.99,23.01.99Z"/>
        </g>
        <g>
          <path d="M993,1624.01c-.37,1.8-1.96,1.87-3.46,2.03-10.55,1.13-21.44,1.23-32.04,1.96l-2.43,1.57c-2.88,20.37-9.79,42.02-7.08,62.43l-72.39-16.1c-2.02-1.66-2.66-7.57-2.63-10.35.09-10.4,3.4-30.01,5.18-40.91.33-2.02.64-6.89,2.49-7.51l38.51-3.52,73.87,10.4Z"/>
          <path d="M1100,1640.01c.02,1.54-3.52,1.4-4.83,1.66-8.97,1.74-18.11,2.87-27.11,4.38.75,17.6,1.31,36.92,4.07,54.32.99,6.23,2.2,12.33,5.87,17.62l-80.88-17.11.33-10.93,15.69-51.81c10.77-.24,21.58-.65,32.35-1.15,5.33-.25,12.81-2.08,17.96-2.02,11.26.13,24.84,5.54,36.54,5.05Z"/>
          <path d="M1240.01,1661v2.99s-37.96,3.05-37.96,3.05c-2.08,19.7-9.48,41.05-10.91,60.58-.35,4.82.17,8.69.86,13.37-10.62-2.58-22.6-3.54-33.02-6.47-1.44-.41-9.25-3.26-9.75-3.75-1.08-1.06-3.75-11.17-4.12-13.38l-6.01-59.3,32.4-7.08,68.51,10Z"/>
          <path d="M818,1598.01c.03,1.55-3.45,1.66-4.63,1.86-3.74.63-22.81,1.69-23.89,3.11-.82,2.43-1.29,4.92-1.51,7.49-.89,10.27-.97,28.69-.41,39.04.18,3.28,1.02,6.53,2.45,9.48-18.3-3.9-39.59-5.97-57.39-11.1-6.63-1.91-8.8-3-9.61-10.39-1.52-13.85,1.09-30.32.06-44.45l32.39-4.08,62.55,9.04Z"/>
          <path d="M714.99,1583.01c.24,1.74-2.27.95-3.48.99-9.57.36-18.98,1.56-28.52,1.99.05,17.28-4.86,35.07,0,52-5.93-2.76-37.7-5.91-40.06-9.67-1.16-1.84-.99-4.57-.83-6.69.93-12.47,7.73-26.87,8.94-39.6l39.46-2.48,24.5,3.44Z"/>
          <path d="M645.99,1573.01l-16.5,1.98c-5.47.91-12.32-2.76-14.23,3.77-2.25,7.69-6.49,33.06-6.28,40.76.04,1.33.56,2.31,1.02,3.47-4.83-1.74-26.5-4.03-28.77-7.23-.66-.93-1.31-6.66-1.27-8.21l5.18-36.41c20.78-.93,40.42-3.96,60.85,1.87Z"/>
          <path d="M885,1608.01c.09,1.47-3.59,1.76-4.62,1.87-4.41.46-29.58,1.08-30.95,3.05l-5.52,46.57,2.08,11.49c-10.42-2.37-15.25-1.42-16.03-13.45-.32-4.9,1-8.76,1.07-13,.2-11.51.58-23.2-.05-34.53l34.48-4.48,19.52,2.48Z"/>
        </g>
      </g>
    </g>
    <g id="BODY">
      <g>
        <path d="M1167,1650.01c-.35,1.95-2.12,1.63-3.46,2.03-4.07,1.23-24.68,4.17-25.48,6.59l6.06,56.74,4.88,16.61c-20.04-4.59-42.6-6.6-62.21-12.28-11.84-3.43-11.6-6.43-13.66-18.34-3.03-17.51-2.84-36.6-5.06-54.28l35.43-6.07,63.5,9Z"/>
        <path d="M937,359.5l29.41,13.44.58,2.04-60.96,44.63-26.87-12.77-.23-1.3c1.8-15.39,2.07-32.77,8.21-46.9l50.36-40.64c1.66.81-.51,2.93-.51,3.49v38Z"/>
        <path d="M969.22,336.79c-1.02-1.74,4.14-35.39,5.08-40,.88-4.33,1.64-8.03,4.26-11.74l53.44-43.05c-6.91,17.27-8.32,36.51-12.91,54.58.15,2.39,15.38,18.12,17.97,21.9.61.88,1.45,1.33.51,2.52l-43.21,32.89-25.13-17.09Z"/>
        <path d="M1059,1634.01l-10.51,1.98-36.39,2.12-15.86,52.63-.24,10.26c-6.78-1.65-45.18-6.97-47.51-10.99l-1.1-8.34,8.54-52.24,42.56-3.86,60.5,8.44Z"/>
        <polygon points="615.99 1114.01 613.87 1195.87 569.01 1207 572 1108 615.99 1114.01"/>
        <path d="M608.99,1361l-2.99,84-46,2.99c1.03-11.48.54-23.04.95-34.54.32-9.08.31-18.94,1-28,.63-8.21,1.93-9.97,8.71-14.29,11.12-7.07,25.55-7.93,38.32-10.18Z"/>
        <path d="M835.11,439.88l24.89,13.14-50.5,38.69-23.33-12.86c-1.42-2.26,5.11-41.48,8.97-46.2l46.36-37.64-6.39,44.88Z"/>
        <path d="M604,1509l-1.01,58.01,12,1.98-30.8,2.2-5.09,37.42c-.91,1.6,3.93,8.91.41,8.39-.92-.14-7.03-1.95-7.3-2.22-1.96-1.96-2.39-12.63-2.32-15.68l-11.9-2.11c.42-1.18.98-2.12,1.03-3.46.2-5.87.93-19,0-24.07-.48-2.6-2.83-1.63-3.11-3.93-1.56-13.01,2.68-29.31,1.3-42.82,1.03-4.48,10.54-6.99,14.79-8.21,3.83-1.1,30.84-6.65,32-5.51Z"/>
        <path d="M623.84,836.16l-1.72,67.26-26.41-.21-16.7,11.79,4-99c4.55,3.41,9.83,2.65,14.87,4.62,8.38,3.27,17.19,12.23,25.95,15.54Z"/>
        <path d="M768,455.01c-2.08,3.52-2.51,8.34-2.99,12.5-1.05,9.14-1.55,18.62-1.84,27.84l23.82,13.16-44.63,33.23-28.25-7.83c1.2-9.52-3.04-30.44,2.46-37.84l51.44-41.05Z"/>
        <path d="M628.99,678c-.84,1.14-23.12-11.47-25.72-11.82s-14.66,4.5-15.26,3.81c1.62-11.39.11-23.15,1-34.48.51-6.42,3.67-9.14,4.01-10.98,1.1-5.77-.47-15.42.95-21.83.22-.99,9.42-6.23,10.5-8.72.96-2.2.24-4.7.96-7.04,1.46-4.75,15-13.16,19.07-16.93l-5.39,36.32,20.88,11.19-8.98,9-2.02,51.49Z"/>
        <path d="M1093.13,239.87l34.87,12.14-1.52,2.97-39.14,28.82-29.42-15.22c-2.69-3.68.02-12.66.12-17.04.22-9.88-2.34-27.05,4.46-34.54l28.49-22c-2.8,14.88,1.86,29.94,2.14,44.87Z"/>
        <path d="M621.01,966.02l-2,61.99c-8.72.18-20.01-3.6-28.48-1.98-3.81.73-11.73,9.75-15.51,11.98l3-88c15.73,1.6,28.21,11.47,43,16.01Z"/>
        <path d="M861.99,1605.01l-8.62,1.87-22.38,2.12c-.22,6.82.31,13.72.05,20.55-.32,8.35-2.13,18.76-2.12,26.95,0,3.67,1.76,8.09,3.08,11.5l-41.81-9.18c-3.74-8.55-1.26-16.04-1.15-24.27.06-4.48-.87-29.91.9-31.1l33.45-4.33,38.61,5.9Z"/>
        <path d="M613,1233.01l-2.44,59.05c-8.61,3.57-20.12,5.48-28.26,9.74-6.1,3.19-11.26,10.54-17.29,14.2l2.48-60.01c8.68-7.58,18.84-10.55,28.86-15.14,2.71-1.24,15.33-8.75,16.64-7.85Z"/>
        <path d="M751,1588.01c-.58,1.38-5.1,1.66-6.62,1.87-7.37,1-14.97,1.52-22.38,2.12,1.4,17.62-3.17,37.39,3.01,54-6.79-1.87-37.62-5.58-41.05-9.44-5-5.62-.35-40.52.16-49.44l36.43-3.15,30.45,4.05Z"/>
        <path d="M913.99,1613.01l-35.95,4.03-5.94,49.56,1.9,9.39-27.83-6.16c-3.06-18.85,2.88-37.92,3.89-56.77l40.44-3.85,23.5,3.8Z"/>
        <path d="M685,1579.99l-33.87,1.14-9.88,40.63.74,7.23-31.51-6.98c-3.34-5.63,5.72-37.46,6.45-45.58,11.77-.44,24.93-3.08,36.61-2.47,7.95.41,19.93,2.52,27.95,4.05,1.46.28,3.1,0,3.51,1.98Z"/>
        <path d="M665,538.01c-2.16,11.5-2.65,23.34-1.54,35.04.7,1.05,19.19,6.55,22.33,7.7,1.28.47,2.66-.43,2.21,1.75l-24.47,17.41-24.93-7.79c-2.04-1.44.38-10.02.45-12.57.17-6.24-1.38-17.96,2.08-22.92l23.87-18.62Z"/>
        <path d="M601.5,746l25.01,13.99-.52,23.01c-.89,1.21-22.54-12.99-26.73-13.8s-9.61,1.82-14.26.8v-22.5l1.5-1.5h15Z"/>
        <g>
          <path d="M1656.79,1249.25c.26.13.12,2.39,1.63,1.8l4.57-2.05,9.58,90c-3.27,3.35-6.88.67-11.03.98-15.77,1.19-54.55,7.66-62.96,22.09-5.16,8.85-2.85,23.02,7.98,25.89,23.69-2.61,46.78-9.97,70.22-1.73l12.22,103.77c-3.05-4.21-6.23-2.61-8.93-3.53-2.85-.96-9.71-6.9-13.15-8.89-41.17-23.81-79.09-53.79-127.59-27.76-34.59,18.57-67.73,45.58-102.03,65.97-29.16,17.34-61.84,36.41-91.63,52.37-9.81,5.26-22.28,9.09-30.97,13.79-1.16.63-.39,2.66-2.34,3.88-3.88,2.43-33.32,6.44-39.87,7.14-4.9.53-33.19.67-35.05-1.92l-4.44-79.06c11.51-1.97,22.94-4.24,34.22-7.29,8.11-2.19,34.7-10.04,39.75-15.25,7.75-7.99,13.41-11.05,22.35-17.65,22.05-16.28,53.22-45.48,77.9-54.1,32.98-11.53,48.67-8.48,78.26-32.74,7.76-6.37,19.4-15.72,19.52-26.47.06-5.44-4.39-20.72-11.52-20.49-1.19.04-16.46,11.28-19.8,13.16-50.14,28.2-116.5,24.29-172.07,22.76l-1.04,2.01c-24.15-5.89-48.29-12.5-72.92-16.09l-1.48-1.52-5.04-101.2c3.78-1.31,7.74-2.06,11.66-2.84,35.56-7.05,70.86-8.37,106.54-13.46,47.85-6.82,98.59-20.92,147.16-18.82,25.86,1.12,32.21,10.23,53.83,19.17,12.53,5.18,23.37,5.68,35.69,9.31,24.28,7.16,27.57,15.67,55.98,8.01,4.04-1.09,23.62-9.86,24.8-9.25Z"/>
          <path d="M1168,196.5c-.16-1.82-1.77-4.76-1.12-7.38-1.24-.68-3.05-.59-4.21-1.28-2.26-1.34-5.37-15.25-6.18-18.83-2.75-12.08-8.28-26.21,6.5-32.01l1.51,8c.81,1.2,1.51,1.22,2.83.85,2.71-.77,21.65-18.88,22.66-17.85l2.94,29.57c3.11,2.26,6.74-3.04,9.54-4.6,6.16-3.44,9.72-4.87,16.74-2.68,7.85,2.44,29.13,19.96,33.26,20.32.68.06,1.68-.54,2.43-.71l-2.94-40.38,1.52-1.51,282.04,188.96,4.27,5.73,3.7,35.3c5.18,5.53,21.4,11.26,24.02,17.98l7.5,61.5c-1.23-.11-4.34-1-5.22-1.53-12.05-7.26-32.44-9.21-47.01-13.24-64.02-17.71-125.23-68.91-193.99-57.42-26.36,4.41-53.69,6.65-79.98,12.02-5.92,1.21-17.07,3.28-22.09,5.91-12.71,6.65-35.3,43.43-45.44,56.51-.64.83.01,1.84-2.29,1.25l-5.79-128.28c4.95-7.6,10.34-14.95,15.83-22.16,7.18-9.44,22.68-31.43,34.41-32.59,48.32-4.78,98.2,53.27,138.78,44.78,4.17-.87,10.37-3.21,14.29-4.71,2.08-3.48-2.45-9.46-4.69-12.34-7.1-9.15-20.02-13.93-29.56-20.44-32.28-22.04-62.66-47.07-94.96-69.04-8.31-5.65-23.96-18.1-33.82-17.24-7.77.68-20.34,12.26-26.51,17.54-6.54,5.59-12.5,11.88-18.99,17.51-.36-5.69.49-11.88,0-17.5Z"/>
          <path d="M1621.68,924.36c.25.07.34,1.21,1.11,1.54,1.27.55,4.85.22,5.23,1.79l4.97,43.3c-4.51,1.67-5.94-2.1-8.43-2.09-16.9.09-37.13,16.23-49.1,27.07-8.79,7.96-19.63,22.84-27.98,29.02-6.96,5.16-17.35,8.99-25.03,13.97-10.83,7.02-31.36,24.19-30.43,38.47.28,4.27,8.6,9.16,12.58,9.51,10.35.9,34.69-17.73,46.02-22.81,5.99-2.69,12.67-4.19,18.35-6.65,16.83-7.3,44.96-25.11,64.32-20.46.33.08,2.35,3.32,5.73,2.43l14.72,124.28c.48,2.03-5.05,5.02-5.75,4.27l-.5-3c-5.33,2.37-12.64,7.81-18.25,8.76-22.37,3.77-54.98-13.8-77.44-19.08-16.52-3.88-33.48-4.76-49.85-8.15-22.56-4.66-55.59-20.33-77.47-19.6-13.58.45-35.13,14.78-51.49,18.58-37.19,8.63-77,8.72-113.27,20.73-14.5,4.8-28.19,12.93-42.73,17.75l-4.49-89.06c16.25-10.08,33.83-26.62,51.79-33.13,46.57-16.86,102.4-14.54,148.95-34.05,21.64-9.07,36.5-28.75,56.36-40.5l76.15,17.51c10.99,1.51,13.44-7.18,13.29-16.3-.33-19.97-4.43-42.73-6.05-62.97-.54-6.76-.73-13.71-1-20.49,13.45,7.04,28.01,11.42,42.8,14.69,8.46,1.87,18.97,2.27,26.87,4.67Z"/>
          <path d="M1693.81,1591.74l.67-1.75c6.6,3.3,7.8,7.97,6.08,15.07l-24.51,4.99c-2.09,2.17,7.18,52.56,3.96,59.95l18.51-3.98.48,1.97-349.5,85.02c.7-2.31,2.65-3.81,3.69-6.31s1.63-5.44,1.84-8.16l-4.03-63.54c-19.18,1.88-38.02,9.3-57.49,7.99-6.03-.4-12.27-2.81-18.52-1.99l2,50.01-34-5.01c-.4,9.46.31,19.74,7,27-16.19-4.5-35.13-5.65-51.02-10.47-2.25-.68-6.06-1.76-6.79-4.21-1.35-4.51.42-14.48,1.1-19.51,2.27-16.8,6.79-33.49,9.59-50.21l38.01-4.68-.88-23.89c8.07,2.69,16.41,5.15,24.81,6.68,12.35,2.26,31.51,5.81,43.64,6.36,2.98.13,6.01-.21,8.99.03l1.09-3.14c25.41-1.02,50.14-7.62,73.98-15.91,11.13-3.87,22.8-9.93,33.68-13.32,9.45-2.94,20.29-4.19,30.02-6.98,33.12-9.51,60.75-31.95,89.87-49.13,61.23-36.13,77.17-15.48,129,16.83,2.48,1.55,17.75,11.1,18.72,10.32Z"/>
          <path d="M1576.69,509.33c.46.25.66,1.72,1.35,2.12,1.3.75,3.05.29,3.75.74,1.91,1.23,3.75,27.47,4.2,31.82l-4.94-.11-.11-2.8-1.44-.15c-11.4,3.49-21.1,4.55-33.05,4.1-44.57-1.68-85.85-19.81-128.45-30.55-46.06-11.61-88.03-15.47-135.19-7.18-20.88,3.67-46.97,7.99-60.78,25.22l-35.02,48.46-5.79-103.69c9.63-13.16,18.6-27.04,28.82-39.76,11.48-14.28,16.74-21.05,36.47-22.53,42.68-3.21,93.66,8.79,134.25,21.72,55.99,17.84,103.77,52.25,162.2,65.8,7.87,1.83,27.92,3.66,33.73,6.79Z"/>
          <path d="M1365.99,767l11.01,157c-17.53-.49-33.88-.3-50.77,4.73-19.18,5.72-31.98,16.36-48.63,26.42-16.58,10.01-34.23,20.44-51.3,30.65-5.86,3.51-12.28,6.12-17.81,10.17l-10.03-182.97c13.01-6.98,26.13-17.42,39.21-23.83,17.13-8.4,40.74-5.51,59.81-7.19,23.48-2.07,46.2-7.83,68.5-14.99Z"/>
          <path d="M1356.95,646.95c-3.78.32-7.53,1.29-11.17,2.33-22.07,6.28-38.9,19.14-60.27,26.73-17.34,6.16-38.64,8.13-53.43,18.57-12.76,9.01-24.27,21.46-38.08,29.41-1.64-35.08-4.53-70.25-4.81-105.3,10.39-11.48,19.8-24.3,30.77-35.23,4.19-4.18,10.71-10.58,16.13-12.87,16.18-6.86,55.14-2.74,73.27-.47,13.95,1.75,27.82,4.74,41.61,7.39l2.03,4.97,3.93,64.47Z"/>
          <path d="M1588.78,623.24c.43.27.54,1.77,1.26,2.17,3,1.69,5.02-.19,5.89,5.15,5.45,33.38,5.39,69.41,11.1,102.98.4,3.39-1.07,8.21-5.02,8.45l-.5-4.99c-4.65,5.31-15.2,10.19-22.12,10.88-13.06,1.31-29.4-7.33-41.38,2.11l-3.89-40.37.85-1.15c10.35-1.21,24.51-12.54,17.39-23.35l-21.37-1.12-4.93-52.37c.64-1.95,9.56-3.11,12.15-3.92,3.03-.95,6.39-3.11,9.34-3.66,4.56-.84,39.4-1.95,41.22-.81Z"/>
          <path d="M1607.95,795.07l.05,2.93,5.99-1.01,8,75c-4.57,1.6-5.79-1.97-8.41-2.09-5.88-.28-11.75,2.41-17.19,2.99-15.36,1.65-31.89-.15-47.3-1l-7.09-75.89c15.68,3.2,32.2,7.15,48.25,3.75,3.03-.64,15.87-6.42,17.7-4.68Z"/>
        </g>
      </g>
    </g>
  </g>
  <g id="SHOCK" class="st0">
    <g id="BOLT" class="st0">
      <g>
        <g>
          <path d="M1558.14,997.14c2.38-1.52,37.02,8.79,42.86,8.87l-284.48,634.01c-25.25,6.05-51.04-2.63-76.39-4.16l-4.14-77.87c25.56-.32,51.88,7.81,77.02,1.3l122.94-464.86-109.96-17.45,51.01-137.99c3.19,2.14,1.58,7.73,2.24,11.24,1.45,7.7,5.37,17.11,13.52,19.48l157.25,34.88c7.23-1.32,6.91-6.69,8.11-7.46Z"/>
          <g>
            <path d="M1566.71,373.29c.71.96,1.9,6.66,2.19,8.32,2.06,12.03,1.51,25.33,4.09,37.39-.42.52-8.55-8.49-10.98-7l-46.5,200.98-81.51-36.99.16-2.31,123.43-205.62c.7-.17,8.62,4.55,9.11,5.23Z"/>
            <polygon points="1547.99 855.99 1537.01 741 1578.72 756.78 1581.03 759.5 1547.99 855.99"/>
            <polygon points="1366.99 790 1315 773.99 1360.5 697 1366.99 790"/>
          </g>
        </g>
        <path d="M605,1498l-2,46.01c-15.6.15-30.46,3.76-45.95-.06l.95-45.95h47Z"/>
      </g>
    </g>
    <g id="BOTTOM" class="st0">
      <path d="M603,1565.5l2.55,1.45,635.45,94.05-1.01-23.01c25.44,1.2,51.21,10.16,76.54,4.04l286.44-635.54-43.93-10.54-10.96-137.37,34.91-101.57-46.26-19.25-10.99-109.01c-1.2-6.6-5.02-10.92-8.67-16.18l46.42-200.57c6.15,5.22,10.31,7.58,10.38,16.62l127,1175.74c-1.01,2.95-24.69,4.91-24.91,6.19l5.08,50.98-1.03,8.45c5.91-1.05,11.81-2.78,17.72-3.79,2.12-.36,1.18.6,1.28,1.78l-349.5,85.02c.69-2.31,2.65-3.81,3.69-6.31s1.64-5.45,1.83-8.16l-4.03-63.54c-19.21,2.14-37.94,9.14-57.49,7.99-2.85-.17-17.4-3.1-18.51-1.99l2,50.01-34-5.01,1.49,17.02,5.01,9.99-676.79-137.98c-2.83-4.89-2.84-10.45-2.81-15.93l-11.91-2.12c.9-4.81,2.22-26.32.48-29-.42-.64-1.95-.74-2.24-1.19-.84-1.36-.26-20.83.81-21.76,15.54,3.61,30.34.19,45.96-.03v20.5Z"/>
    </g>
    <g id="TOP">
      <path d="M1252.01,128l284.26,188.95c6.9,6.74,4.63,31.1,7.63,40.65l13.01,9.89-123.89,206.07-3.03.02-67.71-30.35c-12.83-2.67-11.53,10.52-11.26,19.27l9.72,130.9-47.73,81.6,54.87,17.14,10.22,139.36-54.09,146.49,110.84,17.48-122.92,461.96-2.42,1.58-24.05,1.04-50.02-4.98-66.44-1331.06-537.5,400.99c-2.47,25.73-1.61,51.71-2.45,77.55-3.2,98.96-6,197.95-9,297l-15.04,494.96-1.64,2.36c-15.13.63-30.29,2.37-45.35.13.75-10.14.62-20.32,1-30.48,10.25-269.7,19.23-539.96,30.03-809.97.29-7.32-1.39-22.91,1.17-28.87.64-1.5,2.56-1.39,2.81-2.37,1.43-5.49-1.8-17.75,1.51-23.27,1.21-2.02,8.93-5.71,9.96-8.04,1.37-3.11-.2-7.06,2.83-10.68l554.19-446.31c2.37-.43,1.27,1.08,1.45,2.52.41,3.24-.24,6.59,4.34,6.37l22.69-17.89c1.38,5.24-.4,27.46,3,29.56,2.63,1.63,12.23-7,17-8.07,12.36-2.77,31.61,15.97,42.51,21.39l2.5-3.39-3-39.47Z"/>
    </g>
  </g>
  <g id="NITRO">
    <g id="FLAMES">
      <g>
        <path d="M1369.65,979.66c8.38-8.28,2.41-35.04-.15-45.66-5.38-22.32-14.85-42.13-17.38-65.62-3.16-29.39,5.57-51.01,7.86-78.88.4-4.81-.58-10.38,0-15.01.18-1.38.56-2.93,1.99-1.48,4.7,22.09,5.87,44.91,8.1,67.41.19,1.88,1.67,3.36,1.86,5.14,3.45,32.85,1.58,71.95,7.16,103.84,1.47,8.42,5.21,18.38,14.46,20.54l109.78,24.98c3.29,10.7,4.38,23.1,12.62,31.63,17.21,17.81,28.43-6.97,28.05-22.54,9.21,3.01,14.3-2.52,14.98-11.51l-8.98-108.48,8.13,25.35c2.07,4.68,10.7,20.25,14.88,22.17,4.78,2.2,10.27-8.71,11.33-12.68,9.13-34.29-18.29-107.67-18.4-149.38l2.04-19.46c2.35,13.32,3.73,26.89,6.33,40.18,8.78,44.95,29.11,87.48,33.68,133.32,4.76,47.82-19.64,72.91-33.03,114.96-14.98,47.04-15.93,128.95,3.27,174.8,5.1,12.18,19.8,31.25,25.3,7.77,12.36-52.75-37.81-118.12-14.57-173.57l4.02-8.46c-12.41,51.17,18.57,98.22,29.34,146.17,5.36,23.89,3.51,48.29,10.96,72.04,2.75,8.76,9.03,23.69,18.68,26.32,3.13.85,13.81.4,14.85,3.15l34.79,316.86c-.24,1.51-1.91,2-3.14,2.43-6.38,2.24-15.65,2.86-22.46,4.04l5.03,51.54-2.01,10.98-329.52,80.48c.69-2.31,2.64-3.81,3.69-6.31s1.64-5.45,1.83-8.16l-4.03-63.54c-19.7,2.31-38.38,9.29-58.49,7.99-5.68-.37-11.62-2.68-17.52-1.99l2,50.01-34-5.01,1.49,17.02,5.01,9.99-670.69-136.3-6.83-2.41-2.02-15.25-11.96-2.07c.66-5.04,2.38-26.07.48-28.99-.45-.69-2.23-.67-2.49-1.68-.62-2.37-.11-11.6-.02-14.84,1.72-57.84,5.33-115.93,7.08-173.92.26-8.49-.28-17.05-.03-25.53l46-1.01-5.07,215.57,637.07,94.44-17.01-343.01,43.46-3.04c8.29-1.23,22.34,1.8,29.84.01.8-.19,7.21-2.68,9.7-3.47,13.64-4.33,18.03-21.14,18.99-34.01,2.09-28.17-7.99-53.73-5.97-81.97,1.89-26.55,15.05-53.17,18.85-79.15,1.99-13.6-.66-24-.85-37.36,1.91,1.03,2.87,4.99,3.5,6.98,10.61,33.48-.18,67.81,2.45,101.55.87,11.11,6.13,25.85,18.22,28.78,17.39,4.21,24.56-20.1,26.54-33.08,15.13-99.14-78.73-144.06-89.61-236.85-8.56-73.05,17.52-109.5,28.56-175.19,3.18-18.9,1.02-36.18,1.33-55.18,4.11,4.45,4.92,14.37,5.85,20.64,8.33,56.55-9.51,104.32-8.9,159.9.26,23.13,6,66.44,25.56,81.44,4.94,3.79,12.95,6.8,18.13,1.68Z"/>
        <g>
          <path d="M1362.99,729.99l-14.51-24.97c-20.26-38.08-28.43-80.43-22.31-123.36,3.43-24.07,13.21-47.59,15.82-71.18,1.71-15.44-.84-30.91.02-46.48,1.84.71,2.37,5.01,2.72,6.77,7.82,39.86,3.71,83.45,9.26,123.74l9,135.48Z"/>
          <path d="M1413.99,565.99l-31.01-13.7c-3.21-44.37-18.74-86.43-25.69-130.09-6.21-39-8.41-80.17,3.72-118.2,1.74-.24.94,2.27.99,3.48.95,25.42-.39,47.89,3.13,73.88,8.59,63.53,40.68,121.08,48.87,184.62Z"/>
          <path d="M1497.99,605l-17.34-7.92c-1.34-.99-2.54-13.78-2.69-16.54-1.94-35.61,6.12-70.98,4.03-107.03-2.92-50.44-27.3-90.62-29.03-143.97-.26-8.13-.35-16.57,1.05-24.54,1.46-.18,1.79,2.61,1.9,3.58,2.35,20.73,2.67,40.91,9.05,60.95,11.61,36.47,30.44,68.65,34.91,108.09,4.75,41.86-7.54,85.18-1.89,127.38Z"/>
          <path d="M1516.99,558.01c2.1,29.67,15.12,57.34,22.72,85.78,13.16,49.26,12.77,103.28,7.29,153.73l-1.02,37.48c-1.74.24-.95-2.27-.99-3.48-.1-2.66.15-5.34,0-8l-19.44-194.56c-3.57-17.01-9.28-36.07-10.54-53.46-.31-4.23-.53-11.96-.01-16.01.19-1.46.78-3.12,2-1.48Z"/>
        </g>
      </g>
    </g>
  </g>
</svg>