<?xml version="1.0" encoding="UTF-8"?>
<svg id="Layer_1" xmlns="http://www.w3.org/2000/svg" version="1.1" viewBox="0 0 2000 2000">
  <!-- Generator: Adobe Illustrator 30.0.0, SVG Export Plug-In . SVG Version: 2.1.1 Build 123)  -->
  <g id="HvbkCd">
    <g>
      <path d="M1682.91,1488.9l.57-1.91c3.05,1.65,5.4,4.16,6.48,7.55l10.04,97.45-5.59-2.93-1.88,1.95c-18.24-9.95-34.67-23.04-52.61-33.42-63.82-36.97-109.18,22.98-164.4,48.43-16.87,7.77-33.75,8.81-50.74,14.26-30.09,9.64-51.57,21.08-84.44,26.56-6.15,1.03-16.8.94-21.64,2.14-1.09.27-.68,2.58-3.16,3.05-9.43,1.78-20.23-2.48-29.28-3.77s-17.25-1.58-26.44-3.57c-3.3-.71-18.85-4.02-19.65-6.35l-3.16-45.33c11.74.33,23.7,1.95,35.48.97,6.05-.5,36.06-5.08,39.81-7.19,2.22-1.25,2.18-3.02,3.41-3.85,2.29-1.55,8.89-3.24,11.97-4.77,22.05-10.95,40.59-23.4,61.65-35.35,30-17.02,57.96-31.95,87.2-50.8,20.63-13.3,69.39-51.37,92.08-51.92,36.68-.9,62.08,17.13,92.06,34.72,7.58,4.45,14.62,9.73,22.24,14.08Z"/>
      <path d="M618.94,1029.05l-2.94,83.95-42.06-5.44c-1.03-.72-1.31-3.7-1.39-5.06-.85-14.28.28-38.44,1.42-53.05,1.06-13.54,7.22-16.38,17.75-23.26l27.23,2.85Z"/>
      <polygon points="626.99 759 601.29 745.21 585 745.99 588.98 670.48 603.28 667.2 628.84 679.66 626.99 759"/>
      <g>
        <path d="M1160.06,187.91l6.97,2.77c.33,8.09-1.17,16.54,1.46,24.32,9.15-7.82,34.07-34.49,45.12-35.7,7.07-.78,20.61,8.88,26.7,12.89,34.54,22.81,66.59,49.83,100.78,73.22,13.06,8.94,30.74,14.22,35.83,30.99-.23,1.05-1.91,1.77-2.91,2.12-36.82,13.01-63.6-11.86-95.13-26.9-21.56-10.28-57.22-26.16-74.39-1.64l-31.48,41.01-4.02-86.99-39.47,27.9-34.56-12.37c-1.84-9.1-7.22-40.4-1.99-47.06l59.53-47.47c.05,13.4,3.59,27.4,7.78,40.25.3.92.05,1.79-.23,2.65Z"/>
        <path d="M1060,220.01c-6.05,15.03-.89,32.47-4.05,48.29l29.42,15.62.62,2.06-46.5,33.84-19.35-22.54c4-18.52,5.5-39.07,13.42-56.21l26.43-21.06Z"/>
      </g>
      <path d="M606.01,1445.99l-2.01,62c-15.72,1.79-31.49,4.55-45.99,11l2.43-70.06c1.53-2.18,39.94-2.85,45.57-2.94Z"/>
      <path d="M610.99,1293l-2.1,66.89c-16.14,3.12-33.33,4.26-45.88,16.1.42-19.65.37-39.48,2.51-58.98.46-1.04,15.48-13.89,17.21-14.79,7.64-3.98,20.02-5.71,28.27-9.22Z"/>
      <g>
        <path d="M713,533.5l28,8.51-50.74,38.8-27.15-7.91c1.74-12.33-1.07-25.48,4.02-37.27l46.38-37.62c1.64.76-.5,2.33-.5,2.5v33Z"/>
        <path d="M885,361.01c-.87,1.58-1.53,2.73-1.91,4.58-2.61,12.8-3.58,27.76-4.93,40.75l25.21,13.57.62,2.06-43.33,30.8-24.72-13.45c2.76-12.77.96-38.17,10.01-47.87,7.27-7.79,26.79-22.24,36.05-28.95.98-.71,1.2-2,2.99-1.5Z"/>
        <path d="M940.32,315.31l35.67-28.31-7.88,49.34,24.87,18.16-24.62,18.26-29.37-12.25c-1.12-.73-.91-1.85-1.05-2.95-.91-7.27-.8-27.68.03-35.08.28-2.54,1.59-4.78,2.35-7.16Z"/>
      </g>
      <path d="M622.01,904.99l-1.01,60c-14.81-4.33-26.8-13.9-42.56-15.93.45-9.2-.63-21.84.52-30.62.23-1.76.36-2.16,1.47-3.53.7-.87,13.44-10.46,14.29-10.7,7.56-2.17,19.25,2.05,27.29.78Z"/>
      <path d="M625.84,783.16l-.84,52.84c-1.02,1.17-23.42-14.62-26.59-15.9-5.05-2.04-10.81-1.09-14.89-5.11l1.43-43.55,15.32-1.19,25.58,12.91Z"/>
      <path d="M613.99,1197l-1.16,34.84c-15.37,7.85-31.64,13.19-45.83,23.16l2.45-47.05c14.12-6.64,29.8-6.3,44.54-10.95Z"/>
      <path d="M792.99,435.01l-8.03,43.29,24.03,14.69-20.49,14.73-25.18-13.15c2.59-13.68.71-28.56,6.23-41.5l23.43-18.06Z"/>
      <path d="M638.99,559l-1.57,33.05,25.58,7.95c.61,2.33-.56,1.67-1.27,2.29-2.22,1.91-18.95,14.66-20.2,14.69l-20.91-9.88-.72-1.58c2.16-12.78,2.17-26.32,7.4-38.21l11.68-8.3Z"/>
      <g>
        <path d="M1648.11,1168.91l5.88-2.91,8.9,81.34-4.48,2.7-2.76-1.95c-16.53,7.48-35.18,15.79-53.67,11.41-9.82-2.33-19.38-8.24-29.21-10.79-15.48-4.02-24.84-4.84-40.14-11.86-20.11-9.22-23.61-15.1-48.1-15.9-51.76-1.69-106.88,14.28-158.18,20.9-20.36,2.63-40.38,3.55-60.71,6.29-14.51,1.95-29.05,4.69-43.38,7.67l-2.11-1.46-2.99-69.19c14.2-5.25,28.24-13.23,42.58-17.92,38.29-12.53,79.42-11.75,118.08-21.92,13.49-3.55,23.72-11.3,35.89-15.11,23.7-7.4,60.84,11.09,85.1,16.47,17.41,3.86,35.69,4.66,53.19,8.81,22.26,5.27,58.58,24.78,80.21,18.23,4.77-1.45,10.03-5.06,14.29-7.7l1.6,2.9Z"/>
        <path d="M1579.95,542.09l.1,2.81,5.81.24,9.13,80.86c-3.61.39-5.73-3.69-7.45-4.02-6.78-1.3-32.31,0-39.8,1.26-3.01.5-20.39,7.78-21.72,6.77-1.51-6.63-4.29-13.49-10.32-17.2-51.92-23.51-103.47-48.62-156.19-69.9-14.67-.05-6.12,25.19-7.51,34.09-20.9-4.25-42.18-8.34-63.5-9.99-17.41-1.34-36.23-2.53-52.88,3.1-19.36,11.61-31.47,32.5-47.6,47.89l-.57-36.06c15.55-18.19,30.46-52.43,52.59-62.41,45.46-20.49,114.91-18.34,162.78-7.85s111.16,39.25,159.56,34.19c6.15-.64,11.52-4.05,17.57-3.79Z"/>
        <path d="M1569.32,436.66c1.77,1.1,4.67.61,5.49,3.03l8.18,72.3c-.27.25-3.52-.64-4.19-1.04-11.89-7.16-32.55-8.08-47.22-12.03-43.65-11.76-81.87-35.8-122.9-53.1-40.36-17.01-129.64-39.5-171.72-30.37-8.51,1.85-14.05,5.83-19.93,12.07-13.18,14.01-22.99,33.13-36.02,47.47l-.47-32.96c11.08-14.27,20.99-30.69,32.5-44.5,9.97-11.97,14.33-14.74,29.73-18.27,28.07-6.43,57.76-7.93,86.04-12.96,67.74-12.04,128.3,38.68,190.97,56.4,14.72,4.16,37.8,6.65,49.53,13.95Z"/>
        <path d="M1376.89,925.11c2.48,12.17-.06,26.61,6.91,37.58,4.78,7.52,12.21,7.82,20.18,9.82,20.76,5.22,42.04,9.18,63.01,13.49l-.47,2.01c-11.3,7.45-20.86,17.31-31.62,25.38-46.47,34.82-117.05,28.24-170.42,47.58-18.33,6.65-32.19,21.34-48.58,30.42-1.27.7-2.21,1.94-3.9,1.59l-4.11-95.53,47.43-29.64c23.32-7.51,40.03-26.76,62.69-35.31,19.34-7.3,38.31-8.53,58.88-7.41Z"/>
        <path d="M1497.58,1372.57c-26.17,29.5-48.25,31.67-83.34,42.16-31.22,9.34-58.66,36.63-84.92,56.08-8.28,6.13-14.53,10.73-22.03,17.24-5.87,5.09-17.31,8.49-24.77,10.97-16.09,5.35-32.75,9.31-49.51,11.98l-7-150.99,75.43,17.04,1.13-2.09c55.39,1.47,120.33,4.95,170.46-22.44,3.31-1.81,20.01-13.44,21.32-13.32,5.53.51,9.34,12.58,9.65,17.31.5,7.45-1.75,10.79-6.42,16.06Z"/>
        <path d="M1356.88,648.12l9.1,117.85c-26.56,9.75-53.34,13.81-81.48,16.02-9.49.75-20.43-.19-29.97,1.03-19.87,2.53-38.68,20.46-56.51,28.98l-4.07-83.49c-.5-5.32,6.26-7.24,9.97-10.09,9.94-7.63,21.06-18.26,31.17-24.83,13.23-8.6,34.81-11.04,50.43-16.57,24.39-8.64,45.05-26.21,71.36-28.9Z"/>
        <path d="M1633.01,971.99l6.98,67.01c-9.98-5.24-22.45-2.34-32.99.5-15.01,4.06-24.68,11.58-37.81,17.19-5.67,2.42-12.45,3.74-18.56,6.44-12.19,5.41-27.91,18.72-39.09,21.91-6.24,1.78-17.68-.27-18.54-7.63-1.51-12.93,18.61-30.11,28.26-36.65,7.98-5.41,19.14-9.52,26.23-14.77,8.56-6.34,17.63-19.13,25.98-27.02,10.56-9.99,34.97-30.1,50.04-29.06,2.87.2,5.71,3.4,9.49,2.08Z"/>
        <path d="M1602.01,743l5.99-3,6.01,55.99c-6.07,1.9-4.68-.85-6.18-1.81-1.94-1.23-18.94,5.22-23.44,5.69-13.61,1.43-29.11-1.61-42.24-5.01l-3.96-43.16c.58-1.91,3.97-3.54,5.84-4.2,12.32-4.3,26.43,3.33,39.38.38,6.19-1.41,12.49-4.54,17.12-8.86l1.51,3.98Z"/>
        <path d="M1615.73,871.32c.26.12.24,1.5.95,1.66,1.71.39,3.56-.26,5.28.06l6.03,52.95c-25.56-7.16-52.76-8.93-76.54-21.95l-2.46-31.05c14.18.37,29.37,2.07,43.54,1.04,5.5-.4,19.12-4.61,23.19-2.72Z"/>
        <path d="M1673,1340.99l4.99,45.01c-10.67-4.21-23.99-4.78-35.53-4.04-10.15.65-27.05,5.96-35.97,5.11-10.55-1.01-11.89-18.43-6.01-26.09,9.99-13.02,48.54-19.93,64.47-20.47,1.63-.05,5.02,2.09,8.05.48Z"/>
        <path d="M1554.01,686c1.15,12.76-8.59,19.84-20,22.01l-3.01-22.99,23.01.99Z"/>
      </g>
      <g>
        <path d="M993,1624.01c-.37,1.8-1.96,1.87-3.46,2.03-10.55,1.13-21.44,1.23-32.04,1.96l-2.43,1.57c-2.88,20.37-9.79,42.02-7.08,62.43l-72.39-16.1c-2.02-1.66-2.66-7.57-2.63-10.35.09-10.4,3.4-30.01,5.18-40.91.33-2.02.64-6.89,2.49-7.51l38.51-3.52,73.87,10.4Z"/>
        <path d="M1100,1640.01c.02,1.54-3.52,1.4-4.83,1.66-8.97,1.74-18.11,2.87-27.11,4.38.75,17.6,1.31,36.92,4.07,54.32.99,6.23,2.2,12.33,5.87,17.62l-80.88-17.11.33-10.93,15.69-51.81c10.77-.24,21.58-.65,32.35-1.15,5.33-.25,12.81-2.08,17.96-2.02,11.26.13,24.84,5.54,36.54,5.05Z"/>
        <path d="M1240.01,1661v2.99s-37.96,3.05-37.96,3.05c-2.08,19.7-9.48,41.05-10.91,60.58-.35,4.82.17,8.69.86,13.37-10.62-2.58-22.6-3.54-33.02-6.47-1.44-.41-9.25-3.26-9.75-3.75-1.08-1.06-3.75-11.17-4.12-13.38l-6.01-59.3,32.4-7.08,68.51,10Z"/>
        <path d="M818,1598.01c.03,1.55-3.45,1.66-4.63,1.86-3.74.63-22.81,1.69-23.89,3.11-.82,2.43-1.29,4.92-1.51,7.49-.89,10.27-.97,28.69-.41,39.04.18,3.28,1.02,6.53,2.45,9.48-18.3-3.9-39.59-5.97-57.39-11.1-6.63-1.91-8.8-3-9.61-10.39-1.52-13.85,1.09-30.32.06-44.45l32.39-4.08,62.55,9.04Z"/>
        <path d="M714.99,1583.01c.24,1.74-2.27.95-3.48.99-9.57.36-18.98,1.56-28.52,1.99.05,17.28-4.86,35.07,0,52-5.93-2.76-37.7-5.91-40.06-9.67-1.16-1.84-.99-4.57-.83-6.69.93-12.47,7.73-26.87,8.94-39.6l39.46-2.48,24.5,3.44Z"/>
        <path d="M645.99,1573.01l-16.5,1.98c-5.47.91-12.32-2.76-14.23,3.77-2.25,7.69-6.49,33.06-6.28,40.76.04,1.33.56,2.31,1.02,3.47-4.83-1.74-26.5-4.03-28.77-7.23-.66-.93-1.31-6.66-1.27-8.21l5.18-36.41c20.78-.93,40.42-3.96,60.85,1.87Z"/>
        <path d="M885,1608.01c.09,1.47-3.59,1.76-4.62,1.87-4.41.46-29.58,1.08-30.95,3.05l-5.52,46.57,2.08,11.49c-10.42-2.37-15.25-1.42-16.03-13.45-.32-4.9,1-8.76,1.07-13,.2-11.51.58-23.2-.05-34.53l34.48-4.48,19.52,2.48Z"/>
      </g>
    </g>
  </g>
</svg>